<svg xmlns="http://www.w3.org/2000/svg" width="512" height="512" viewBox="0 0 512 512"><defs><style>.cls-1{fill:#bfbfbf;opacity:0}.cls-2{fill:#9a523a}.cls-3{fill:#22505d}.cls-4{fill:#ffcdcb}.cls-5{fill:#7141da}.cls-6{fill:#ef7317}.cls-7{fill:#ffccca}.cls-8{fill:#20505e}.cls-9{fill:#fff}.cls-10{fill:#ff7e7d}.cls-11{fill:#9a4f35}</style></defs><title>berg-stylesheet</title><g id="Layer_2" data-name="Layer 2"><g id="char-2-2_copy_5" data-name="char-2-2 copy 5"><path id="back" class="cls-1" d="M384 384h128v128H384z"/><path id="shoe" class="cls-2" d="M436 500h8v8h-8z"/><path id="shoe-2" data-name="shoe" class="cls-2" d="M452 500h8v8h-8z"/><path id="legs" class="cls-3" d="M436 488v12h8v-8h8v8h8v-12h-24z"/><path id="hand-on-left" class="cls-4" d="M432 488h4v4h-4z"/><path id="hand-on-right" class="cls-4" d="M460 488h4v4h-4z"/><path class="cls-4" d="M424 408v56h18v8h12v-8h18v-56h-48z"/><g id="ears"><path class="cls-4" d="M408 432h8v16h-8zM480 432h8v16h-8z"/></g><path id="shirt" class="cls-5" d="M454 472v-4h-12v4h-10v16h32v-16h-10z"/><path class="cls-6" d="M472 410v-8h-8v-16h-24v8h-8v8h-8v8h-8v44h8v8h48v-8h8v-44h-8z"/></g><g id="char-1-2_copy_3" data-name="char-1-2 copy 3"><path id="eye" transform="rotate(-180 340 436)" d="M336 432h8v8h-8z"/><path id="hair" class="cls-6" d="M304 410v-8h16v-8h16v-8h16v24h-24v48h-8v-24h-8v24h-8v-8h-8v-40h8z"/><path id="head" class="cls-7" d="M312 432v36h12v-4h20v-8h8v-48h-24v48h-8v-24zm24 8v-8h8v8z"/><path id="pants" class="cls-8" transform="rotate(-180 318 494)" d="M308 488h20v12h-20z"/><path class="cls-2" transform="rotate(-180 322 504)" d="M312 500h20v8h-20z"/><path class="cls-5" d="M312 472v-4h12v4h4v16h-20v-16h4z"/><path id="hand" class="cls-7" transform="rotate(-180 318 488)" d="M314 484h8v8h-8z"/></g><g id="char-2-2_copy_4" data-name="char-2-2 copy 4"><path id="shoe-3" data-name="shoe" class="cls-2" d="M180 500h8v8h-8z"/><path id="shoe-4" data-name="shoe" class="cls-2" d="M196 500h8v8h-8z"/><path id="legs-2" data-name="legs" class="cls-3" d="M180 488v12h8v-8h8v8h8v-12h-24z"/><path class="cls-5" d="M184 468v4h-8v16h10v-20h-2zM200 472v-4h-2v20h10v-16h-8z"/><path id="shirt-2" data-name="shirt" class="cls-9" d="M186 472h12v16h-12z"/><path id="hand-on-left-2" data-name="hand-on-left" class="cls-4" d="M176 488h4v4h-4z"/><path id="hand-on-right-2" data-name="hand-on-right" class="cls-4" d="M204 488h4v4h-4z"/><path class="cls-4" d="M168 408v56h18v8h12v-8h18v-56h-48z"/><g id="hair-sides"><path class="cls-6" d="M160 410h8v48h-8zM216 410h8v48h-8z"/></g><path id="hair-top" class="cls-6" d="M208 402v-8h-8v-8h-24v16h-8v8h48v-8h-8z"/><path class="cls-10" d="M184 448h16v8h-16z"/><path id="eye-2" data-name="eye" d="M172 432h8v8h-8z"/><path id="eye-3" data-name="eye" d="M204 432h8v8h-8z"/><g id="ears-2" data-name="ears"><path class="cls-4" d="M152 432h8v16h-8zM224 432h8v16h-8z"/></g></g><g id="char-1-2_copy_2" data-name="char-1-2 copy 2"><path id="eye-4" data-name="eye" d="M40 432h8v8h-8z"/><path id="hair-2" data-name="hair" class="cls-6" d="M80 410v-8H64v-8H48v-8H32v24h24v48h8v-24h8v24h8v-8h8v-40h-8z"/><path id="head-2" data-name="head" class="cls-7" d="M64 432v24h-8v-48H32v48h8v8h20v4h12v-36zm-24 8v-8h8v8z"/><path id="pants-2" data-name="pants" class="cls-8" d="M56 488h20v12H56z"/><path class="cls-2" d="M52 500h20v8H52z"/><path class="cls-5" d="M72 472v-4H60v4h-4v16h20v-16h-4z"/><path id="hand-2" data-name="hand" class="cls-7" d="M62 484h8v8h-8z"/></g><g id="char-1-1_copy" data-name="char-1-1 copy"><path id="eye-5" data-name="eye" transform="rotate(-180 340 56)" d="M336 52h8v8h-8z"/><path id="hair-3" data-name="hair" class="cls-6" d="M304 28v-8h16v-8h16V4h16v24h-24v48h-8V52h-8v24h-8v-8h-8V28h8z"/><path id="head-3" data-name="head" class="cls-7" d="M312 52v36h12v-4h20v-8h8V28h-24v48h-8V52zm24 8v-8h8v8z"/><path id="shirt-3" data-name="shirt" class="cls-5" transform="rotate(-180 318 96)" d="M308 88h20v16h-20z"/><path id="shoe-5" data-name="shoe" class="cls-11" d="M336 108h8v8l-8 8h-8v-8l8-8z"/><path id="shoe-6" data-name="shoe" class="cls-11" d="M316 116v8h-8l-8-8v-8h8l8 8z"/><path id="pants-3" data-name="pants" class="cls-8" transform="rotate(-180 318 110)" d="M308 104h20v12h-20z"/><path id="hand-3" data-name="hand" class="cls-7" transform="rotate(-180 312 104)" d="M308 100h8v8h-8z"/></g><g id="char-2-1_copy_2" data-name="char-2-1 copy 2"><path id="shoe-7" data-name="shoe" class="cls-2" d="M180 116h8v8h-8z"/><path id="legs-3" data-name="legs" class="cls-3" d="M180 104v12h8v-8h8v8h8v-12h-24z"/><path id="shoe-8" data-name="shoe" class="cls-2" d="M196 112h8v4h-8z"/><path class="cls-5" d="M184 84v4h-8v16h10V84h-2zM200 88v-4h-2v20h10V88h-8z"/><path id="hand-on-left-3" data-name="hand-on-left" class="cls-4" d="M176 100h4v4h-4z"/><path id="hand-on-right-3" data-name="hand-on-right" class="cls-4" d="M200 100h8v8h-8z"/><path class="cls-4" d="M168 28v56h18v8h12v-8h18V28h-48z"/><g id="hair-sides-2" data-name="hair-sides"><path class="cls-6" d="M160 28h8v48h-8zM216 28h8v48h-8z"/></g><path id="hair-top-2" data-name="hair-top" class="cls-6" d="M208 20v-8h-8V4h-24v16h-8v8h48v-8h-8z"/><path class="cls-10" d="M184 68h16v8h-16z"/><path id="eye-6" data-name="eye" d="M172 52h8v8h-8z"/><path id="eye-7" data-name="eye" d="M204 52h8v8h-8z"/><g id="ears-3" data-name="ears"><path class="cls-4" d="M152 52h8v16h-8zM224 52h8v16h-8z"/></g><path id="shirt-4" data-name="shirt" class="cls-9" d="M186 88h12v16h-12z"/></g><g id="char-2-1_copy" data-name="char-2-1 copy"><path id="shoe-9" data-name="shoe" class="cls-2" d="M196 372h8v8h-8z"/><path id="legs-4" data-name="legs" class="cls-3" d="M180 360v12h8v-8h8v8h8v-12h-24z"/><path id="shoe-10" data-name="shoe" class="cls-2" d="M180 368h8v4h-8z"/><path class="cls-5" d="M184 340v4h-8v16h10v-20h-2zM200 344v-4h-2v20h10v-16h-8z"/><path id="hand-on-left-4" data-name="hand-on-left" class="cls-4" d="M204 356h4v4h-4z"/><path id="hand-on-right-4" data-name="hand-on-right" class="cls-4" d="M176 356h8v8h-8z"/><path class="cls-4" d="M168 284v56h18v8h12v-8h18v-56h-48z"/><g id="hair-sides-3" data-name="hair-sides"><path class="cls-6" d="M160 284h8v48h-8zM216 284h8v48h-8z"/></g><path id="hair-top-3" data-name="hair-top" class="cls-6" d="M208 276v-8h-8v-8h-24v16h-8v8h48v-8h-8z"/><path class="cls-10" d="M184 324h16v8h-16z"/><path id="eye-8" data-name="eye" d="M172 308h8v8h-8z"/><path id="eye-9" data-name="eye" d="M204 308h8v8h-8z"/><g id="ears-4" data-name="ears"><path class="cls-4" d="M152 308h8v16h-8zM224 308h8v16h-8z"/></g><path id="shirt-5" data-name="shirt" class="cls-9" d="M186 344h12v16h-12z"/></g><g id="char-2-2_copy_3" data-name="char-2-2 copy 3"><path id="shoe-11" data-name="shoe" class="cls-2" d="M436 372h8v8h-8z"/><path id="legs-5" data-name="legs" class="cls-3" d="M436 360v12h8v-8h8v8h8v-12h-24z"/><path id="shoe-12" data-name="shoe" class="cls-2" d="M452 368h8v4h-8z"/><path class="cls-4" d="M424 284v56h18v8h12v-8h18v-56h-48z"/><g id="ears-5" data-name="ears"><path class="cls-4" d="M408 308h8v16h-8zM480 308h8v16h-8z"/></g><path id="shirt-6" data-name="shirt" class="cls-5" d="M454 344v-4h-12v4h-10v16h32v-16h-10z"/><path id="hand-on-right-5" data-name="hand-on-right" class="cls-4" d="M432 356h8v8h-8z"/><path id="hand-on-left-5" data-name="hand-on-left" class="cls-4" d="M460 356h4v4h-4z"/><path class="cls-6" d="M472 284v-8h-8v-16h-24v8h-8v8h-8v8h-8v44h8v8h48v-8h8v-44h-8z"/></g><g id="char-2-2_copy" data-name="char-2-2 copy"><path id="shoe-13" data-name="shoe" class="cls-2" d="M436 244h8v8h-8z"/><path id="shoe-14" data-name="shoe" class="cls-2" d="M452 244h8v8h-8z"/><path id="legs-6" data-name="legs" class="cls-3" d="M436 232v12h8v-8h8v8h8v-12h-24z"/><path id="hand-on-left-6" data-name="hand-on-left" class="cls-4" d="M432 232h4v4h-4z"/><path id="hand-on-right-6" data-name="hand-on-right" class="cls-4" d="M460 232h4v4h-4z"/><path class="cls-4" d="M424 152v56h18v8h12v-8h18v-56h-48z"/><g id="ears-6" data-name="ears"><path class="cls-4" d="M408 176h8v16h-8zM480 176h8v16h-8z"/></g><path id="shirt-7" data-name="shirt" class="cls-5" d="M454 216v-4h-12v4h-10v16h32v-16h-10z"/><path class="cls-6" d="M472 154v-8h-8v-16h-24v8h-8v8h-8v8h-8v44h8v8h48v-8h8v-44h-8z"/></g><g id="char-2-2_copy_2" data-name="char-2-2 copy 2"><path id="shoe-15" data-name="shoe" class="cls-2" d="M452 116h8v8h-8z"/><path id="legs-7" data-name="legs" class="cls-3" d="M436 104v12h8v-8h8v8h8v-12h-24z"/><path id="shoe-16" data-name="shoe" class="cls-2" d="M436 112h8v4h-8z"/><path class="cls-4" d="M424 28v56h18v8h12v-8h18V28h-48z"/><g id="ears-7" data-name="ears"><path class="cls-4" d="M408 52h8v16h-8zM480 52h8v16h-8z"/></g><path id="shirt-8" data-name="shirt" class="cls-5" d="M454 88v-4h-12v4h-10v16h32V88h-10z"/><path id="hand-on-right-7" data-name="hand-on-right" class="cls-4" d="M456 100h8v8h-8z"/><path id="hand-on-left-7" data-name="hand-on-left" class="cls-4" d="M432 100h4v4h-4z"/><path class="cls-6" d="M472 28v-8h-8V4h-24v8h-8v8h-8v8h-8v44h8v8h48v-8h8V28h-8z"/></g><g id="char-2-2"><path id="shoe-17" data-name="shoe" class="cls-2" d="M180 244h8v8h-8z"/><path id="shoe-18" data-name="shoe" class="cls-2" d="M196 244h8v8h-8z"/><path id="legs-8" data-name="legs" class="cls-3" d="M180 232v12h8v-8h8v8h8v-12h-24z"/><path class="cls-5" d="M184 212v4h-8v16h10v-20h-2zM200 216v-4h-2v20h10v-16h-8z"/><path id="shirt-9" data-name="shirt" class="cls-9" d="M186 216h12v16h-12z"/><path id="hand-on-left-8" data-name="hand-on-left" class="cls-4" d="M176 232h4v4h-4z"/><path id="hand-on-right-8" data-name="hand-on-right" class="cls-4" d="M204 232h4v4h-4z"/><path class="cls-4" d="M168 152v56h18v8h12v-8h18v-56h-48z"/><g id="hair-sides-4" data-name="hair-sides"><path class="cls-6" d="M160 154h8v48h-8zM216 154h8v48h-8z"/></g><path id="hair-top-4" data-name="hair-top" class="cls-6" d="M208 146v-8h-8v-8h-24v16h-8v8h48v-8h-8z"/><path class="cls-10" d="M184 192h16v8h-16z"/><path id="eye-10" data-name="eye" d="M172 176h8v8h-8z"/><path id="eye-11" data-name="eye" d="M204 176h8v8h-8z"/><g id="ears-8" data-name="ears"><path class="cls-4" d="M152 176h8v16h-8zM224 176h8v16h-8z"/></g></g><g id="char-1-3_copy" data-name="char-1-3 copy"><path id="eye-12" data-name="eye" transform="rotate(-180 340 312)" d="M336 308h8v8h-8z"/><path id="hair-4" data-name="hair" class="cls-6" d="M304 284v-8h16v-8h16v-8h16v24h-24v48h-8v-24h-8v24h-8v-8h-8v-40h8z"/><path id="head-4" data-name="head" class="cls-7" d="M312 308v36h12v-4h20v-8h8v-48h-24v48h-8v-24zm24 8v-8h8v8z"/><path id="shirt-10" data-name="shirt" class="cls-5" transform="rotate(-180 318 352)" d="M308 344h20v16h-20z"/><path id="shoe-19" data-name="shoe" class="cls-11" d="M336 364h8v8l-8 8h-8v-8l8-8z"/><path id="pants-4" data-name="pants" class="cls-8" transform="rotate(-180 318 366)" d="M308 360h20v12h-20z"/><path id="shoe-20" data-name="shoe" class="cls-11" d="M316 372v8h-8l-8-8v-8h8l8 8z"/><path id="hand-4" data-name="hand" class="cls-7" transform="rotate(-180 324 360)" d="M320 356h8v8h-8z"/></g><g id="char-1-3"><path id="eye-13" data-name="eye" d="M40 308h8v8h-8z"/><path id="hair-5" data-name="hair" class="cls-6" d="M80 284v-8H64v-8H48v-8H32v24h24v48h8v-24h8v24h8v-8h8v-40h-8z"/><path id="head-5" data-name="head" class="cls-7" d="M64 308v24h-8v-48H32v48h8v8h20v4h12v-36zm-24 8v-8h8v8z"/><path id="shirt-11" data-name="shirt" class="cls-5" d="M56 344h20v16H56z"/><path id="shoe-21" data-name="shoe" class="cls-11" d="M48 364h-8v8l8 8h8v-8l-8-8z"/><path id="pants-5" data-name="pants" class="cls-8" d="M56 360h20v12H56z"/><path id="shoe-22" data-name="shoe" class="cls-11" d="M68 372v8h8l8-8v-8h-8l-8 8z"/><path id="hand-5" data-name="hand" class="cls-7" d="M56 356h8v8h-8z"/></g><g id="char-1-2_copy" data-name="char-1-2 copy"><path id="eye-14" data-name="eye" transform="rotate(-180 340 180)" d="M336 176h8v8h-8z"/><path id="hair-6" data-name="hair" class="cls-6" d="M304 154v-8h16v-8h16v-8h16v24h-24v48h-8v-24h-8v24h-8v-8h-8v-40h8z"/><path id="head-6" data-name="head" class="cls-7" d="M312 176v36h12v-4h20v-8h8v-48h-24v48h-8v-24zm24 8v-8h8v8z"/><path id="pants-6" data-name="pants" class="cls-8" transform="rotate(-180 318 238)" d="M308 232h20v12h-20z"/><path class="cls-2" transform="rotate(-180 322 248)" d="M312 244h20v8h-20z"/><path class="cls-5" d="M312 216v-4h12v4h4v16h-20v-16h4z"/><path id="hand-6" data-name="hand" class="cls-7" transform="rotate(-180 318 232)" d="M314 228h8v8h-8z"/></g><g id="char-1-2"><path id="eye-15" data-name="eye" d="M40 176h8v8h-8z"/><path id="hair-7" data-name="hair" class="cls-6" d="M80 154v-8H64v-8H48v-8H32v24h24v48h8v-24h8v24h8v-8h8v-40h-8z"/><path id="head-7" data-name="head" class="cls-7" d="M64 176v24h-8v-48H32v48h8v8h20v4h12v-36zm-24 8v-8h8v8z"/><path id="pants-7" data-name="pants" class="cls-8" d="M56 232h20v12H56z"/><path class="cls-2" d="M52 244h20v8H52z"/><path class="cls-5" d="M72 216v-4H60v4h-4v16h20v-16h-4z"/><path id="hand-7" data-name="hand" class="cls-7" d="M62 228h8v8h-8z"/></g><g id="char-1-1"><path id="back-2" data-name="back" class="cls-1" d="M0 0h128v128H0z"/><path id="eye-16" data-name="eye" d="M40 52h8v8h-8z"/><path id="hair-8" data-name="hair" class="cls-6" d="M80 28v-8H64v-8H48V4H32v24h24v48h8V52h8v24h8v-8h8V28h-8z"/><path id="head-8" data-name="head" class="cls-7" d="M64 52v24h-8V28H32v48h8v8h20v4h12V52zm-24 8v-8h8v8z"/><path id="shirt-12" data-name="shirt" class="cls-5" d="M56 88h20v16H56z"/><path id="shoe-23" data-name="shoe" class="cls-11" d="M48 108h-8v8l8 8h8v-8l-8-8z"/><path id="shoe-24" data-name="shoe" class="cls-11" d="M68 116v8h8l8-8v-8h-8l-8 8z"/><path id="pants-8" data-name="pants" class="cls-8" d="M56 104h20v12H56z"/><path id="hand-8" data-name="hand" class="cls-7" d="M68 100h8v8h-8z"/></g></g></svg>