<svg width="176" height="112" viewBox="0 0 176 112" xmlns="http://www.w3.org/2000/svg" xmlns:xlink="http://www.w3.org/1999/xlink"><title>Group Copy 2</title><defs><path id="a" d="M0 0h176v112H0z"/></defs><g fill="none" fill-rule="evenodd"><mask id="b" fill="#fff"><use xlink:href="#a"/></mask><use fill="#A98B8B" xlink:href="#a"/><g mask="url(#b)"><path fill="#DFD3C0" d="M0 0h176v144H0z"/><path fill="#98A09C" d="M16 9h144v23H16zM0 80h16v32H0zM160 80h16v32h-16z"/><path fill="#B0B6B3" d="M0 0h16v80H0zM16 0h144v9H16zM160 0h16v80h-16z"/><path fill-opacity=".25" fill="#000" d="M16 10h144v1H16zM16 37h3v107h-3zM0 81h16v1H0zM160 81h16v1h-16zM0 109h16v3H0zM160 109h16v3h-16z"/><g fill="#D5C9B7"><path d="M19 48h141v1H19zM19 64h141v1H19zM19 80h141v1H19zM19 96h141v1H19z"/><path d="M32 32h1v112h-1zM48 32h1v112h-1zM64 32h1v112h-1zM80 32h1v112h-1zM96 32h1v112h-1zM112 32h1v112h-1zM128 32h1v112h-1zM144 32h1v112h-1z"/></g><path fill-opacity=".25" fill="#000" d="M16 28h144v9H16zM112 39h48v9h-48z"/><path d="M112 39h7v6h-7v-6zm7 0h34v2h-34v-2zm34 0h7v6h-7v-6z" fill="#50697C"/><path fill="#9D7E7B" d="M112 23h48v16h-48z"/><g><path fill-opacity=".25" fill="#000" d="M16 39h48v9H16z"/><path d="M16 39h7v6h-7v-6zm7 0h34v2H23v-2zm34 0h7v6h-7v-6z" fill="#50697C"/><path fill="#9D7E7B" d="M16 23h48v16H16z"/></g></g><g mask="url(#b)"><path fill="#000" opacity=".248" d="M116.452 33.613h2.44l-.18.618h-2.088z"/><path fill="#FFF" d="M116.157 30h3.088v.375h-3.088z"/><path fill="#EF2E41" d="M116.303 30.288h2.787l-.498 3.462h-1.782z"/><path fill="#000" opacity=".095" d="M118.26 30.288h.833l-.507 3.462h-.767z"/><path fill-opacity=".171" fill="#000" d="M116.606 30.577h2.12v.375h-2.12zM116.91 33.173h1.514v.375h-1.515z"/></g><g mask="url(#b)"><path fill="#FFF" d="M51.157 33h3.088v.375h-3.088z"/><path fill="#EF2E41" d="M51.303 33.288h2.787l-.498 3.462H51.81z"/><path fill="#000" opacity=".095" d="M53.26 33.288h.833l-.507 3.462h-.767z"/><path fill-opacity=".171" fill="#000" d="M51.606 33.577h2.12v.375h-2.12zM51.91 36.173h1.514v.375H51.91z"/><path fill="#000" opacity=".248" d="M51.452 36.613h2.44l-.126.68h-2.068z"/></g><g mask="url(#b)"><path fill="#FFF" d="M39.157 28h3.088v.375h-3.088z"/><path fill="#EF2E41" d="M39.303 28.288h2.787l-.498 3.462H39.81z"/><path fill="#000" opacity=".095" d="M41.26 28.288h.833l-.507 3.462h-.767z"/><path fill-opacity=".171" fill="#000" d="M39.606 28.577h2.12v.375h-2.12zM39.91 31.173h1.514v.375H39.91z"/><path fill="#000" opacity=".248" d="M39.452 31.613h2.44l-.14.697h-2.3z"/></g><g mask="url(#b)"><path fill="#000" opacity=".248" d="M22.452 33.613h2.44l-.308.837H22.72z"/><path fill="#FFF" d="M22.157 30h3.088v.375h-3.088z"/><path fill="#EF2E41" d="M22.303 30.288h2.787l-.498 3.462H22.81z"/><path fill="#000" opacity=".095" d="M24.26 30.288h.833l-.507 3.462h-.767z"/><path fill-opacity=".171" fill="#000" d="M22.606 30.577h2.12v.375h-2.12zM22.91 33.173h1.514v.375H22.91z"/></g><g mask="url(#b)"><path fill="#000" opacity=".248" d="M128.452 29.613h2.44l-.126.66h-2.154z"/><path fill="#FFF" d="M128.157 26h3.088v.375h-3.088z"/><path fill="#EF2E41" d="M128.303 26.288h2.787l-.498 3.462h-1.782z"/><path fill="#000" opacity=".095" d="M130.26 26.288h.833l-.507 3.462h-.767z"/><path fill-opacity=".171" fill="#000" d="M128.606 26.577h2.12v.375h-2.12zM128.91 29.173h1.514v.375h-1.515z"/></g><g mask="url(#b)"><path fill="#000" opacity=".248" d="M145.452 34.613h2.44l-.13.644h-2.077z"/><path fill="#FFF" d="M145.157 31h3.088v.375h-3.088z"/><path fill="#EF2E41" d="M145.303 31.288h2.787l-.498 3.462h-1.782z"/><path fill="#000" opacity=".095" d="M147.26 31.288h.833l-.507 3.462h-.767z"/><path fill-opacity=".171" fill="#000" d="M145.606 31.577h2.12v.375h-2.12zM145.91 34.173h1.514v.375h-1.515z"/></g><g mask="url(#b)"><path fill="#000" opacity=".248" d="M141.317 50.566l-4.037.738v-.738l3.83-.77z"/><path fill="#FFF" d="M137.397 51.286l-.59-3.03.37-.073.59 3.03z"/><path fill="#EF2E41" d="M137.653 51.088l-.532-2.736 3.494-.172.34 1.75z"/><path fill="#000" opacity=".095" d="M137.28 49.168l-.16-.82 3.495-.162.147.753z"/><path fill-opacity=".171" fill="#000" d="M137.878 50.735l-.404-2.082.368-.07.404 2.08zM140.37 49.943l-.29-1.488.368-.07.29 1.486z"/></g><g mask="url(#b)"><path fill="#000" opacity=".248" d="M152.452 31.613h2.44l-.147.677h-2.082z"/><path fill="#FFF" d="M152.157 28h3.088v.375h-3.088z"/><path fill="#EF2E41" d="M152.303 28.288h2.787l-.498 3.462h-1.782z"/><path fill="#000" opacity=".095" d="M154.26 28.288h.833l-.507 3.462h-.767z"/><path fill-opacity=".171" fill="#000" d="M152.606 28.577h2.12v.375h-2.12zM152.91 31.173h1.514v.375h-1.515z"/></g><g mask="url(#b)"><path fill="#EAEAEA" d="M66 12h45v15H66z"/><path fill="#FEFEFE" opacity=".49" d="M66 13h45v10H66z"/><path fill="#000" opacity=".029" d="M66 25h45v2H66z"/><path fill="#717774" d="M66 12h1v15h-1zM110 12h1v15h-1z"/><path fill="#8A9791" d="M67 27h43v1H67z"/></g></g></svg>