<svg xmlns="http://www.w3.org/2000/svg" width="512" height="512" viewBox="0 0 512 512"><defs><style>.cls-1{fill:#bfbfbf;opacity:0}.cls-2{fill:#9a523a}.cls-3{fill:#636781}.cls-4{fill:#fc6600}.cls-5{fill:#9a4f35}.cls-6{fill:#b18963}.cls-14,.cls-7{fill:#fff}.cls-12,.cls-7{opacity:.1}.cls-8{fill:#f8b6b6}.cls-9{fill:#e5cd1c}.cls-10{fill:#3a2d22}.cls-11{fill:#3d2406}.cls-13{fill:#f9f7f7;opacity:.59}.cls-15{fill:#fcd806}</style></defs><title>construction-guy-sprite</title><g id="Layer_2" data-name="Layer 2"><g id="char-2-2_copy_5" data-name="char-2-2 copy 5"><path id="back" class="cls-1" d="M384 384h128v128H384z"/><path id="shoe" class="cls-2" d="M436 500h8v8h-8z"/><path id="shoe-2" data-name="shoe" class="cls-2" d="M452 500h8v8h-8z"/></g><g id="char-1-2_copy_3" data-name="char-1-2 copy 3"><path class="cls-2" transform="rotate(-180 322 504)" d="M312 500h20v8h-20z"/><path class="cls-2" d="M52 500h20v8H52z"/></g><g id="char-2-2_copy_4" data-name="char-2-2 copy 4"><path id="legs" class="cls-3" d="M196 502h8"/><path id="legs-2" data-name="legs" class="cls-3" d="M180 502h8"/></g><g id="char-1-1_copy" data-name="char-1-1 copy"><path id="shirt" class="cls-4" transform="rotate(-180 318 96)" d="M308 88h20v16h-20z"/><path id="shoe-3" data-name="shoe" class="cls-5" d="M336 108h8v8l-8 8h-8v-8l8-8z"/><path id="shoe-4" data-name="shoe" class="cls-5" d="M316 116v8h-8l-8-8v-8h8l8 8z"/><path id="pants" class="cls-3" transform="rotate(-180 318 110)" d="M308 104h20v12h-20z"/><path id="hand" class="cls-6" transform="rotate(-180 312 104)" d="M308 100h8v8h-8z"/><path id="eye" transform="rotate(-180 340 180)" d="M336 176h8v8h-8z"/><path class="cls-6" d="M344 152h-16v32h-8v-8h-8v36h12v-4h20v-8h8v-48zm0 32h-8v-8h8z"/><path class="cls-7" d="M320 184h8v4h-8z"/><path id="eye-2" data-name="eye" d="M40 176h8v8h-8z"/><path class="cls-6" d="M32 152v48h8v8h20v4h12v-36h-8v8h-8v-32H32zm8 24h8v8h-8z"/><path class="cls-7" transform="rotate(-180 60 186)" d="M56 184h8v4h-8z"/><path id="eye-3" data-name="eye" d="M40 432h8v8h-8z"/><path class="cls-6" d="M32 408v48h8v8h20v4h12v-36h-8v8h-8v-32H32zm8 24h8v8h-8z"/><path class="cls-7" transform="rotate(-180 60 442)" d="M56 440h8v4h-8z"/><path id="eye-4" data-name="eye" transform="rotate(-180 340 436)" d="M336 432h8v8h-8z"/><path class="cls-6" d="M344 408h-16v32h-8v-8h-8v36h12v-4h20v-8h8v-48zm0 32h-8v-8h8z"/><path class="cls-7" d="M320 440h8v4h-8z"/><path id="eye-5" data-name="eye" transform="rotate(-180 340 56)" d="M336 52h8v8h-8z"/><path class="cls-6" d="M344 28h-16v32h-8v-8h-8v36h12v-4h20v-8h8V28zm0 32h-8v-8h8z"/><path class="cls-7" d="M320 60h8v4h-8z"/><path id="shirt-2" data-name="shirt" class="cls-4" d="M56 88h20v16H56z"/><path id="shoe-5" data-name="shoe" class="cls-5" d="M48 108h-8v8l8 8h8v-8l-8-8z"/><path id="shoe-6" data-name="shoe" class="cls-5" d="M68 116v8h8l8-8v-8h-8l-8 8z"/><path id="pants-2" data-name="pants" class="cls-3" d="M56 104h20v12H56z"/><path id="hand-2" data-name="hand" class="cls-6" d="M68 100h8v8h-8z"/><path id="eye-6" data-name="eye" d="M40 52h8v8h-8z"/><path class="cls-6" d="M32 28v48h8v8h20v4h12V52h-8v8h-8V28H32zm8 24h8v8h-8z"/><path class="cls-7" transform="rotate(-180 60 62)" d="M56 60h8v4h-8z"/><path id="eye-7" data-name="eye" transform="rotate(-180 340 312)" d="M336 308h8v8h-8z"/><path class="cls-6" d="M344 284h-16v32h-8v-8h-8v36h12v-4h20v-8h8v-48zm0 32h-8v-8h8z"/><path class="cls-7" d="M320 316h8v4h-8z"/><path id="eye-8" data-name="eye" d="M40 308h8v8h-8z"/><path class="cls-6" d="M32 284v48h8v8h20v4h12v-36h-8v8h-8v-32H32zm8 24h8v8h-8z"/><path class="cls-7" transform="rotate(-180 60 318)" d="M56 316h8v4h-8z"/></g><g id="char-2-1_copy_2" data-name="char-2-1 copy 2"><path id="shoe-7" data-name="shoe" class="cls-2" d="M180 116h8v8h-8z"/><path id="legs-3" data-name="legs" class="cls-3" d="M180 104v12h8v-8h8v8h8v-12h-24z"/><path id="shoe-8" data-name="shoe" class="cls-2" d="M196 112h8v4h-8z"/><path class="cls-6" d="M216 52V28h-48v24h-8v16h8v16h18v4h12v-4h18V68h8V52h-8z"/><path class="cls-8" d="M184 70h12v6h-12z"/><path id="eye-9" data-name="eye" d="M172 52h8v8h-8z"/><path id="eye-10" data-name="eye" d="M204 52h8v8h-8z"/><path class="cls-9" d="M168 16h50v16h-50zM174 10h40v6h-40z"/><path class="cls-10" d="M166 32h54v4h-54zM166 36h52v4h-52z"/><path class="cls-11" d="M164 40h4v12h-4zM216 36h4v16h-4z"/><path class="cls-12" d="M168 40h40v2h-40zM210 36h6v4h-6z"/><path class="cls-13" d="M178 10h6v10h-6zM178 20h6v12h-6z"/><path class="cls-6" d="M216 176v-24h-48v24h-8v16h8v16h18v4h12v-4h18v-16h8v-16h-8z"/><path class="cls-8" d="M184 194h12v6h-12z"/><path id="eye-11" data-name="eye" d="M172 176h8v8h-8z"/><path id="eye-12" data-name="eye" d="M204 176h8v8h-8z"/><path class="cls-9" d="M214 140v-6h-40v6h-6v16h50v-16h-4z"/><path class="cls-10" d="M166 156v8h52v-4h2v-4h-54z"/><path class="cls-11" d="M164 164h4v12h-4zM216 160h4v16h-4z"/><path class="cls-12" d="M168 164h40v2h-40zM310 164h42v2h-42zM210 160h6v4h-6z"/><path class="cls-13" d="M178 134v22h6v-22h-6z"/><path class="cls-9" d="M350 140v-6h-40v6h-6v16h50v-16h-4z"/><path class="cls-10" d="M302 156v8h52v-4h2v-4h-54z"/><path class="cls-13" d="M340 134v22h6v-22h-6z"/><path class="cls-12" transform="rotate(-180 53 165)" d="M32 164h42v2H32z"/><path class="cls-9" d="M34 140v-6h40v6h6v16H30v-16h4z"/><path class="cls-10" d="M82 156v8H30v-4h-2v-4h54z"/><path class="cls-13" d="M44 134v22h-6v-22h6z"/><path class="cls-12" transform="rotate(-180 53 421)" d="M32 420h42v2H32z"/><path class="cls-9" d="M34 396v-6h40v6h6v16H30v-16h4z"/><path class="cls-10" d="M82 412v8H30v-4h-2v-4h54z"/><path class="cls-13" d="M44 390v22h-6v-22h6z"/><path class="cls-12" d="M310 420h42v2h-42z"/><path class="cls-9" d="M350 396v-6h-40v6h-6v16h50v-16h-4z"/><path class="cls-10" d="M302 412v8h52v-4h2v-4h-54z"/><path class="cls-13" d="M340 390v22h6v-22h-6z"/><path class="cls-12" d="M310 40h42v2h-42zM426 40h42v2h-42zM426 296h42v2h-42zM426 164h42v2h-42zM426 420h42v2h-42z"/><path class="cls-9" d="M350 16v-6h-40v6h-6v16h50V16h-4z"/><path class="cls-10" d="M302 32v8h52v-4h2v-4h-54z"/><path class="cls-13" d="M340 10v22h6V10h-6z"/><path class="cls-12" transform="rotate(-180 53 41)" d="M32 40h42v2H32z"/><path class="cls-9" d="M34 16v-6h40v6h6v16H30V16h4z"/><path class="cls-10" d="M82 32v8H30v-4h-2v-4h54z"/><path class="cls-13" d="M44 10v22h-6V10h6z"/><path class="cls-12" d="M310 296h42v2h-42z"/><path class="cls-9" d="M350 272v-6h-40v6h-6v16h50v-16h-4z"/><path class="cls-10" d="M302 288v8h52v-4h2v-4h-54z"/><path class="cls-13" d="M340 266v22h6v-22h-6z"/><path class="cls-12" transform="rotate(-180 53 297)" d="M32 296h42v2H32z"/><path class="cls-9" d="M34 272v-6h40v6h6v16H30v-16h4z"/><path class="cls-10" d="M82 288v8H30v-4h-2v-4h54z"/><path class="cls-13" d="M44 266v22h-6v-22h6z"/><path class="cls-6" d="M216 432v-24h-48v24h-8v16h8v16h18v4h12v-4h18v-16h8v-16h-8z"/><path class="cls-8" d="M184 450h12v6h-12z"/><path id="eye-13" data-name="eye" d="M172 432h8v8h-8z"/><path id="eye-14" data-name="eye" d="M204 432h8v8h-8z"/><path class="cls-9" d="M214 396v-6h-40v6h-6v16h50v-16h-4z"/><path class="cls-10" d="M166 412v8h52v-4h2v-4h-54z"/><path class="cls-11" d="M164 420h4v12h-4zM216 416h4v16h-4z"/><path class="cls-12" d="M168 420h40v2h-40zM210 416h6v4h-6z"/><path class="cls-13" d="M178 390v22h6v-22h-6z"/><path class="cls-6" d="M216 308v-24h-48v24h-8v16h8v16h18v4h12v-4h18v-16h8v-16h-8z"/><path class="cls-8" d="M184 326h12v6h-12z"/><path id="eye-15" data-name="eye" d="M172 308h8v8h-8z"/><path id="eye-16" data-name="eye" d="M204 308h8v8h-8z"/><path class="cls-9" d="M168 272h50v16h-50zM174 266h40v6h-40z"/><path class="cls-10" d="M166 288h54v4h-54zM166 292h52v4h-52z"/><path class="cls-11" d="M164 296h4v12h-4zM216 292h4v16h-4z"/><path class="cls-12" d="M168 296h40v2h-40zM210 292h6v4h-6z"/><path class="cls-13" d="M178 266h6v10h-6zM178 276h6v12h-6z"/><path id="hand-on-left" class="cls-6" d="M176 100h4v4h-4z"/><path class="cls-14" d="M208 88h-32v12h4v4h20v-4h8V88z"/><path class="cls-4" d="M180 88h8v16h-8zM188 96h8v8h-8zM196 88h8v16h-8z"/><path class="cls-15" d="M186 88h2v16h-2zM196 88h2v16h-2z"/><path id="hand-on-right" class="cls-6" d="M200 100h8v8h-8z"/><path id="shoe-9" data-name="shoe" class="cls-2" d="M196 372h8v8h-8z"/><path id="legs-4" data-name="legs" class="cls-3" d="M180 360v12h8v-8h8v8h8v-12h-24z"/><path id="shoe-10" data-name="shoe" class="cls-2" d="M180 368h8v4h-8z"/><path id="hand-on-left-2" data-name="hand-on-left" class="cls-6" d="M204 356h4v4h-4z"/><path id="hand-on-left-3" data-name="hand-on-left" class="cls-6" d="M204 488h4v4h-4z"/><path id="hand-on-left-4" data-name="hand-on-left" class="cls-6" d="M176 488h4v4h-4z"/><path class="cls-14" d="M208 344h-32v12h4v4h20v-4h8v-12z"/><path class="cls-4" d="M180 344h8v16h-8zM188 352h8v8h-8zM196 344h8v16h-8z"/><path class="cls-15" d="M186 344h2v16h-2zM196 344h2v16h-2z"/><path id="hand-on-right-2" data-name="hand-on-right" class="cls-6" d="M176 356h8v8h-8z"/></g><g id="char-2-2_copy_3" data-name="char-2-2 copy 3"><path id="shoe-11" data-name="shoe" class="cls-2" d="M436 372h8v8h-8z"/><path id="legs-5" data-name="legs" class="cls-3" d="M436 360v12h8v-8h8v8h8v-12h-24z"/><path id="shoe-12" data-name="shoe" class="cls-2" d="M452 368h8v4h-8z"/></g><g id="char-2-2_copy" data-name="char-2-2 copy"><path id="shirt-3" data-name="shirt" class="cls-4" d="M454 216v-4h-12v4h-10v16h32v-16h-10z"/><path id="shirt-4" data-name="shirt" class="cls-4" d="M454 472v-4h-12v4h-10v16h32v-16h-10z"/><path class="cls-6" d="M424 28v56h48V28h-48z"/><g id="ears"><path class="cls-6" d="M416 52h8v16h-8zM472 52h8v16h-8z"/></g><path class="cls-11" d="M468.57 30v-8h-41.14v8H424v38h3.43l3.43 6h34.28l3.43-6H472V30h-3.43z"/><path class="cls-6" d="M424 284v56h48v-56h-48z"/><g id="ears-2" data-name="ears"><path class="cls-6" d="M416 308h8v16h-8zM472 308h8v16h-8z"/></g><path class="cls-11" d="M468.57 286v-8h-41.14v8H424v38h3.43l3.43 6h34.28l3.43-6H472v-38h-3.43z"/></g><g id="char-2-2_copy_2" data-name="char-2-2 copy 2"><path id="shoe-13" data-name="shoe" class="cls-2" d="M452 116h8v8h-8z"/><path id="legs-6" data-name="legs" class="cls-3" d="M436 104v12h8v-8h8v8h8v-12h-24z"/><path id="shoe-14" data-name="shoe" class="cls-2" d="M436 112h8v4h-8z"/><path id="shirt-5" data-name="shirt" class="cls-4" d="M454 88v-4h-12v4h-10v16h32V88h-10z"/><path id="hand-on-right-3" data-name="hand-on-right" class="cls-6" d="M456 100h8v8h-8z"/><path id="hand-on-left-5" data-name="hand-on-left" class="cls-6" d="M432 100h4v4h-4z"/><path id="shirt-6" data-name="shirt" class="cls-4" d="M454 344v-4h-12v4h-10v16h32v-16h-10z"/><path id="hand-on-right-4" data-name="hand-on-right" class="cls-6" d="M432 356h8v8h-8z"/><path id="hand-on-left-6" data-name="hand-on-left" class="cls-6" d="M460 356h4v4h-4z"/></g><g id="char-1-3_copy" data-name="char-1-3 copy"><path id="shirt-7" data-name="shirt" class="cls-4" transform="rotate(-180 318 352)" d="M308 344h20v16h-20z"/><path id="shoe-15" data-name="shoe" class="cls-5" d="M336 364h8v8l-8 8h-8v-8l8-8z"/><path id="pants-3" data-name="pants" class="cls-3" transform="rotate(-180 318 366)" d="M308 360h20v12h-20z"/><path id="shoe-16" data-name="shoe" class="cls-5" d="M316 372v8h-8l-8-8v-8h8l8 8z"/><path id="hand-3" data-name="hand" class="cls-6" transform="rotate(-180 324 360)" d="M320 356h8v8h-8z"/><path id="shirt-8" data-name="shirt" class="cls-4" d="M56 344h20v16H56z"/><path id="shoe-17" data-name="shoe" class="cls-5" d="M48 364h-8v8l8 8h8v-8l-8-8z"/><path id="pants-4" data-name="pants" class="cls-3" d="M56 360h20v12H56z"/><path id="shoe-18" data-name="shoe" class="cls-5" d="M68 372v8h8l8-8v-8h-8l-8 8z"/><path id="hand-4" data-name="hand" class="cls-6" d="M56 356h8v8h-8z"/></g><g id="only-layer"><path class="cls-6" d="M472 176v-24h-48v24h-8v16h8v16h18v4h12v-4h18v-16h8v-16h-8z"/><path id="shoe-19" data-name="shoe" class="cls-2" d="M180 244h8v8h-8z"/><path id="shoe-20" data-name="shoe" class="cls-2" d="M196 244h8v8h-8z"/><path id="legs-7" data-name="legs" class="cls-3" d="M180 232v12h8v-8h8v8h8v-12h-24z"/><path id="hand-on-left-7" data-name="hand-on-left" class="cls-6" d="M176 232h4v4h-4z"/><path id="hand-on-right-5" data-name="hand-on-right" class="cls-6" d="M204 232h4v4h-4z"/><path id="pants-5" data-name="pants" class="cls-3" transform="rotate(-180 318 238)" d="M308 232h20v12h-20z"/><path class="cls-2" transform="rotate(-180 322 248)" d="M312 244h20v8h-20z"/><path class="cls-4" d="M312 216v-4h12v4h4v16h-20v-16h4z"/><path id="hand-5" data-name="hand" class="cls-6" transform="rotate(-180 318 232)" d="M314 228h8v8h-8z"/><path id="back-2" data-name="back" class="cls-1" d="M0 0h128v128H0z"/><path id="shoe-21" data-name="shoe" class="cls-2" d="M180 500h8v8h-8z"/><path id="shoe-22" data-name="shoe" class="cls-2" d="M196 500h8v8h-8z"/><path id="legs-8" data-name="legs" class="cls-3" d="M180 488v12h8v-8h8v8h8v-12h-24z"/><path class="cls-14" d="M176 212h32v20h-32z"/><path class="cls-4" d="M180 212h8v20h-8zM196 212h8v20h-8zM188 222h8v10h-8z"/><path class="cls-15" d="M186 212h2v20h-2zM196 212h2v20h-2z"/><path class="cls-14" d="M176 468h32v20h-32z"/><path class="cls-4" d="M180 468h8v20h-8zM196 468h8v20h-8zM188 478h8v10h-8z"/><path class="cls-15" d="M186 468h2v20h-2zM196 468h2v20h-2z"/><path class="cls-14" d="M314 222h8v6h-8zM316 350h8v6h-8zM312 94h8v6h-8z"/><path class="cls-15" d="M324 216h2v16h-2zM324 344h2v12h-2zM310 216h2v16h-2zM310 344h2v16h-2zM324 88h2v16h-2zM454 88h2v16h-2zM310 88h2v12h-2zM440 88h2v16h-2zM454 216h2v16h-2zM440 216h2v16h-2z"/><path class="cls-11" d="M320 164h-16v28h4v4h4v-16h8v4h8v-20h-8z"/><path id="pants-6" data-name="pants" class="cls-3" d="M56 232h20v12H56z"/><path class="cls-2" d="M52 244h20v8H52z"/><path class="cls-4" d="M72 216v-4H60v4h-4v16h20v-16h-4z"/><path id="hand-6" data-name="hand" class="cls-6" d="M62 228h8v8h-8z"/><path class="cls-14" transform="rotate(-180 66 225)" d="M62 222h8v6h-8z"/><path class="cls-15" transform="rotate(-180 59 224)" d="M58 216h2v16h-2z"/><path class="cls-11" d="M72 164H56v20h8v-4h8v12h8v-28h-8z"/><path class="cls-15" transform="rotate(-180 73 224)" d="M72 216h2v16h-2z"/><path class="cls-11" transform="rotate(-180 74 194)" d="M72 192h4v4h-4z"/><path id="pants-7" data-name="pants" class="cls-3" d="M56 488h20v12H56z"/><path class="cls-4" d="M72 472v-4H60v4h-4v16h20v-16h-4z"/><path id="hand-7" data-name="hand" class="cls-6" d="M62 484h8v8h-8z"/><path class="cls-14" transform="rotate(-180 66 481)" d="M62 478h8v6h-8z"/><path class="cls-15" transform="rotate(-180 59 480)" d="M58 472h2v16h-2z"/><path class="cls-11" d="M72 420H56v20h8v-4h8v12h8v-28h-8z"/><path class="cls-15" transform="rotate(-180 73 480)" d="M72 472h2v16h-2z"/><path class="cls-11" transform="rotate(-180 74 450)" d="M72 448h4v4h-4z"/><path id="pants-8" data-name="pants" class="cls-3" transform="rotate(-180 318 494)" d="M308 488h20v12h-20z"/><path class="cls-4" d="M312 472v-4h12v4h4v16h-20v-16h4z"/><path id="hand-8" data-name="hand" class="cls-6" transform="rotate(-180 318 488)" d="M314 484h8v8h-8z"/><path class="cls-14" d="M314 478h8v6h-8z"/><path class="cls-15" d="M324 472h2v16h-2zM310 472h2v16h-2z"/><path class="cls-11" d="M320 420h-16v28h4v4h4v-16h8v4h8v-20h-8zM320 40h-16v28h4v4h4V56h8v4h8V40h-8z"/><path class="cls-14" transform="rotate(-180 68 97)" d="M64 94h8v6h-8z"/><path class="cls-15" transform="rotate(-180 59 96)" d="M58 88h2v16h-2z"/><path class="cls-15" transform="rotate(-180 73 94)" d="M72 88h2v12h-2z"/><path class="cls-11" d="M72 40H56v20h8v-4h8v12h8V40h-8z"/><path class="cls-11" transform="rotate(-180 74 70)" d="M72 68h4v4h-4z"/><path class="cls-11" d="M320 296h-16v28h4v4h4v-16h8v4h8v-20h-8z"/><path class="cls-14" transform="rotate(-180 64 353)" d="M60 350h8v6h-8z"/><path class="cls-15" transform="rotate(-180 59 350)" d="M58 344h2v12h-2z"/><path class="cls-15" transform="rotate(-180 73 352)" d="M72 344h2v16h-2z"/><path class="cls-11" d="M72 296H56v20h8v-4h8v12h8v-28h-8z"/><path class="cls-11" transform="rotate(-180 74 326)" d="M72 324h4v4h-4z"/><path class="cls-9" d="M470 16v-6h-40v6h-6v16h50V16h-4z"/><path class="cls-10" d="M422 32v8h52v-4h2v-4h-54z"/><path class="cls-14" d="M456 98h8v2h-8zM432 98h4v2h-4z"/><path class="cls-15" d="M454 344h2v16h-2zM440 344h2v16h-2z"/><path class="cls-9" d="M470 272v-6h-40v6h-6v16h50v-16h-4z"/><path class="cls-10" d="M422 288v8h52v-4h2v-4h-54z"/><path class="cls-14" d="M460 354h4v2h-4zM432 354h8v2h-8zM432 230h4v2h-4zM460 230h4v2h-4z"/><path class="cls-11" d="M468.57 154v-8h-41.14v8H424v38h3.43l3.43 6h34.28l3.43-6H472v-38h-3.43z"/><path class="cls-9" d="M470 140v-6h-40v6h-6v16h50v-16h-4z"/><path class="cls-10" d="M422 156v8h52v-4h2v-4h-54z"/><path id="shoe-23" data-name="shoe" class="cls-2" d="M436 244h8v8h-8z"/><path id="shoe-24" data-name="shoe" class="cls-2" d="M452 244h8v8h-8z"/><path id="legs-9" data-name="legs" class="cls-3" d="M436 232v12h8v-8h8v8h8v-12h-24z"/><path id="hand-on-left-8" data-name="hand-on-left" class="cls-6" d="M432 232h4v4h-4z"/><path id="hand-on-right-6" data-name="hand-on-right" class="cls-6" d="M460 232h4v4h-4z"/><path class="cls-6" d="M472 432v-24h-48v24h-8v16h8v16h18v4h12v-4h18v-16h8v-16h-8z"/><path class="cls-15" d="M454 472h2v16h-2zM440 472h2v16h-2z"/><path class="cls-14" d="M432 486h4v2h-4zM460 486h4v2h-4z"/><path class="cls-11" d="M468.57 410v-8h-41.14v8H424v38h3.43l3.43 6h34.28l3.43-6H472v-38h-3.43z"/><path class="cls-9" d="M470 396v-6h-40v6h-6v16h50v-16h-4z"/><path class="cls-10" d="M422 412v8h52v-4h2v-4h-54z"/><path id="legs-10" data-name="legs" class="cls-3" d="M436 488v12h8v-8h8v8h8v-12h-24z"/><path id="hand-on-left-9" data-name="hand-on-left" class="cls-6" d="M432 488h4v4h-4z"/><path id="hand-on-right-7" data-name="hand-on-right" class="cls-6" d="M460 488h4v4h-4z"/></g></g></svg>