<svg xmlns="http://www.w3.org/2000/svg" width="512" height="512" viewBox="0 0 512 512"><defs><style>.cls-1{fill:#bfbfbf;opacity:0}.cls-2{fill:#ffcdcb}.cls-3{fill:#1eb2f4}.cls-4{fill:#c4518f}.cls-5{fill:#9a4f35}.cls-6{fill:#86874f}.cls-7{fill:#9a523a}.cls-8{fill:#fffdfe}.cls-9{fill:#fff}.cls-10{fill:#a67f2e}.cls-11{fill:#6c5526}.cls-12{fill:#624c1f}.cls-13{fill:#ffcbc9}.cls-14{fill:#a57f35}.cls-15{fill:#6c552a}.cls-16{fill:#ffccca}.cls-17{fill:#624c22}.cls-18{fill:#dbe025}.cls-19{fill:#603d00}.cls-20{fill:#e444a1}.cls-21{fill:#5bcfbd}</style></defs><title>hank-spritesheet</title><g id="Layer_2" data-name="Layer 2"><g id="char-2-2_copy_5" data-name="char-2-2 copy 5"><path id="back" class="cls-1" d="M384 384h128v128H384z"/><path class="cls-2" d="M424 408v56h18v8h12v-8h18v-56h-48z"/><g id="ears"><path class="cls-2" d="M408 432h8v16h-8zM480 432h8v16h-8z"/></g><path id="shirt" class="cls-3" d="M454 472v-4h-12v4h-10v16h32v-16h-10z"/></g><g id="char-1-2_copy_3" data-name="char-1-2 copy 3"><path id="eye" transform="rotate(-180 340 436)" d="M336 432h8v8h-8z"/><path id="eye-2" data-name="eye" d="M40 432h8v8h-8z"/></g><g id="char-1-1_copy" data-name="char-1-1 copy"><path id="shirt-2" data-name="shirt" class="cls-4" transform="rotate(-180 318 96)" d="M308 88h20v16h-20z"/><path id="shoe" class="cls-5" d="M336 108h8v8l-8 8h-8v-8l8-8z"/><path id="shoe-2" data-name="shoe" class="cls-5" d="M316 116v8h-8l-8-8v-8h8l8 8z"/><path id="pants" class="cls-6" transform="rotate(-180 318 110)" d="M308 104h20v12h-20z"/><path id="shirt-3" data-name="shirt" class="cls-4" d="M56 88h20v16H56z"/><path id="pants-2" data-name="pants" class="cls-6" d="M56 104h20v12H56z"/></g><g id="char-2-2_copy" data-name="char-2-2 copy"><path id="shirt-4" data-name="shirt" class="cls-3" d="M454 216v-4h-12v4h-10v16h32v-16h-10z"/><path id="shirt-5" data-name="shirt" class="cls-3" d="M454 472v-4h-12v4h-10v16h32v-16h-10z"/></g><g id="char-2-2_copy_2" data-name="char-2-2 copy 2"><path id="hand-on-right" class="cls-2" d="M456 100h8v8h-8z"/><path id="hand-on-left" class="cls-2" d="M432 100h4v4h-4z"/><path id="hand-on-right-2" data-name="hand-on-right" class="cls-2" d="M456 356h8v8h-8z"/><path id="hand-on-left-2" data-name="hand-on-left" class="cls-2" d="M432 356h4v4h-4z"/></g><g id="char-2-2"><path id="shoe-3" data-name="shoe" class="cls-7" d="M168 244h16v8h-16z"/><path id="shoe-4" data-name="shoe" class="cls-7" d="M200 244h16v8h-16z"/><path id="legs" class="cls-6" d="M168 232v12h16v-8h16v8h16v-12h-48z"/><path id="shoe-5" data-name="shoe" class="cls-7" d="M424 244h16v8h-16z"/><path id="shoe-6" data-name="shoe" class="cls-7" d="M456 244h16v8h-16z"/><path id="shoe-7" data-name="shoe" class="cls-7" d="M424 112h16v4h-16z"/><path id="shoe-8" data-name="shoe" class="cls-7" d="M456 116h16v8h-16z"/><path id="legs-2" data-name="legs" class="cls-6" d="M424 232v12h16v-8h16v8h16v-12h-48z"/><path id="legs-3" data-name="legs" class="cls-6" d="M424 104v8h16v-4h16v8h16v-12h-48z"/><path class="cls-2" d="M432 78h32v4h-32z"/><path id="shirt-6" data-name="shirt" class="cls-8" d="M160 202h64v30h-64z"/><path class="cls-4" d="M472 206v-4h-48v4h-8v26h64v-26h-8zM472 82h-48v4h-8v18h56V82z"/><path class="cls-2" d="M160 224h8v8h-8zM216 224h8v8h-8zM472 224h8v8h-8zM416 224h8v8h-8z"/><path id="shoe-9" data-name="shoe" class="cls-7" d="M168 500h16v8h-16z"/><path id="shoe-10" data-name="shoe" class="cls-7" d="M200 500h16v8h-16z"/><path id="legs-4" data-name="legs" class="cls-6" d="M168 488v12h16v-8h16v8h16v-12h-48z"/><path id="shirt-7" data-name="shirt" class="cls-4" d="M160 458h64v30h-64z"/><path class="cls-2" d="M216 480h8v8h-8z"/><path id="shoe-11" data-name="shoe" class="cls-7" d="M168 116h16v8h-16z"/><path id="shoe-12" data-name="shoe" class="cls-7" d="M200 112h16v4h-16z"/><path id="legs-5" data-name="legs" class="cls-6" d="M168 104v12h16v-8h16v4h16v-8h-48z"/><path class="cls-2" d="M164 90h4v4h-4zM212 96h12v12h-12z"/><path id="shoe-13" data-name="shoe" class="cls-7" d="M200 372h16v8h-16z"/><path id="shoe-14" data-name="shoe" class="cls-7" d="M168 368h16v4h-16z"/><path id="legs-6" data-name="legs" class="cls-6" d="M168 360v8h16v-4h16v8h16v-12h-48z"/><path class="cls-2" d="M216 346h4v4h-4zM160 352h12v12h-12z"/><g id="hank-head"><path class="cls-2" d="M168 152v50h48v-50h-48z"/><path id="eye-3" data-name="eye" class="cls-9" d="M168 178h8v8h-8z"/><path id="eye-4" data-name="eye" class="cls-9" d="M208 178h8v8h-8z"/><g id="ears-2" data-name="ears"><path class="cls-2" d="M152 178h8v16h-8zM224 178h8v16h-8z"/></g><path d="M200 170v8h-16v-8h-24v24h24v-8h16v8h24v-24zm-32 16v-8h8v8zm48 0h-8v-8h8z"/><path class="cls-10" d="M216 136v-6h-56v40h8v-18h48v18h8v-34h-8z"/><path class="cls-11" d="M208 194v8h-8v-8h-16v8h-8v-8h-8v16h16v8h16v-8h16v-16h-8z"/><path class="cls-12" d="M160 130v6h8v8h8v-14h-16zM176 144h8v8h-8zM208 144v-14h-16v6h8v16h16v-8h-8z"/></g><g id="hank-head-2" data-name="hank-head"><path class="cls-2" d="M168 408v50h48v-50h-48z"/><path id="eye-5" data-name="eye" class="cls-9" d="M168 434h8v8h-8z"/><path id="eye-6" data-name="eye" class="cls-9" d="M208 434h8v8h-8z"/><g id="ears-3" data-name="ears"><path class="cls-2" d="M152 434h8v16h-8zM224 434h8v16h-8z"/></g><path d="M200 426v8h-16v-8h-24v24h24v-8h16v8h24v-24zm-32 16v-8h8v8zm48 0h-8v-8h8z"/><path class="cls-10" d="M216 392v-6h-56v40h8v-18h48v18h8v-34h-8z"/><path class="cls-11" d="M208 450v8h-8v-8h-16v8h-8v-8h-8v16h16v8h16v-8h16v-16h-8z"/><path class="cls-12" d="M160 386v6h8v8h8v-14h-16zM176 400h8v8h-8zM208 400v-14h-16v6h8v16h16v-8h-8z"/></g><g id="hank-head-3" data-name="hank-head"><path class="cls-2" d="M168 284v50h48v-50h-48z"/><path id="eye-7" data-name="eye" class="cls-9" d="M168 310h8v8h-8z"/><path id="eye-8" data-name="eye" class="cls-9" d="M208 310h8v8h-8z"/><g id="ears-4" data-name="ears"><path class="cls-2" d="M152 310h8v16h-8zM224 310h8v16h-8z"/></g><path d="M200 302v8h-16v-8h-24v24h24v-8h16v8h24v-24zm-32 16v-8h8v8zm48 0h-8v-8h8z"/><path class="cls-10" d="M216 268v-6h-56v40h8v-18h48v18h8v-34h-8z"/><path class="cls-11" d="M208 326v8h-8v-8h-16v8h-8v-8h-8v16h16v8h16v-8h16v-16h-8z"/><path class="cls-12" d="M160 262v6h8v8h8v-14h-16zM176 276h8v8h-8zM208 276v-14h-16v6h8v16h16v-8h-8z"/></g><g id="hank-head-4" data-name="hank-head"><path class="cls-2" d="M168 28v50h48V28h-48z"/><path id="eye-9" data-name="eye" class="cls-9" d="M168 54h8v8h-8z"/><path id="eye-10" data-name="eye" class="cls-9" d="M208 54h8v8h-8z"/><g id="ears-5" data-name="ears"><path class="cls-2" d="M152 54h8v16h-8zM224 54h8v16h-8z"/></g><path d="M200 46v8h-16v-8h-24v24h24v-8h16v8h24V46zm-32 16v-8h8v8zm48 0h-8v-8h8z"/><path class="cls-10" d="M216 12V6h-56v40h8V28h48v18h8V12h-8z"/><path class="cls-11" d="M208 70v8h-8v-8h-16v8h-8v-8h-8v16h16v8h16v-8h16V70h-8z"/><path class="cls-12" d="M160 6v6h8v8h8V6h-16zM176 20h8v8h-8zM208 20V6h-16v6h8v16h16v-8h-8z"/></g><path class="cls-2" d="M432 198h32v4h-32z"/><path class="cls-13" d="M480 178h8v16h-8zM480 58h8v16h-8zM408 178h8v16h-8zM408 58h8v16h-8z"/><path class="cls-14" d="M478 138v-6h-38v6h-16v8h-8v52h64v-60h-2z"/><path class="cls-15" d="M416 162h8v8h-8zM424 146h8v8h-8zM472 152h8v8h-8zM464 144h8v8h-8zM472 182h8v16h-8zM440 178h8v10h-8zM424 190h8v8h-8zM440 132h8v10h-8zM448 142h8v28h-8zM432 154h8v24h-8z"/><path id="shoe-15" data-name="shoe" class="cls-7" d="M424 500h16v8h-16z"/><path id="shoe-16" data-name="shoe" class="cls-7" d="M456 500h16v8h-16z"/><path id="legs-7" data-name="legs" class="cls-6" d="M424 488v12h16v-8h16v8h16v-12h-48z"/><path class="cls-4" d="M472 462v-4h-48v4h-8v26h64v-26h-8z"/><path class="cls-2" d="M472 480h8v8h-8zM416 480h8v8h-8zM432 454h32v4h-32z"/><path class="cls-13" d="M480 434h8v16h-8zM408 434h8v16h-8z"/><path class="cls-14" d="M478 394v-6h-38v6h-16v8h-8v52h64v-60h-2z"/><path class="cls-15" d="M416 418h8v8h-8zM424 402h8v8h-8zM472 408h8v8h-8zM464 400h8v8h-8zM472 438h8v16h-8zM440 434h8v10h-8zM424 446h8v8h-8zM440 388h8v10h-8zM448 398h8v28h-8zM432 410h8v24h-8z"/><path class="cls-14" d="M478 18v-6h-38v6h-16v8h-8v52h64V18h-2z"/><path class="cls-15" d="M416 42h8v8h-8zM424 26h8v8h-8zM472 32h8v8h-8zM464 24h8v8h-8zM472 62h8v16h-8zM440 58h8v10h-8zM424 70h8v8h-8zM440 12h8v10h-8zM448 22h8v28h-8zM432 34h8v24h-8z"/><path class="cls-2" d="M416 96h12v12h-12z"/><path class="cls-4" d="M472 86h8v8h-8z"/><path class="cls-2" d="M472 94h4v4h-4z"/><path id="shoe-17" data-name="shoe" class="cls-7" d="M424 372h16v8h-16z"/><path id="shoe-18" data-name="shoe" class="cls-7" d="M456 368h16v4h-16z"/><path id="legs-8" data-name="legs" class="cls-6" d="M424 360v12h16v-8h16v4h16v-8h-48z"/><path class="cls-2" d="M432 334h32v4h-32z"/><path class="cls-4" d="M424 338h48v4h8v18h-56v-22z"/><path class="cls-13" d="M480 314h8v16h-8zM408 314h8v16h-8z"/><path class="cls-14" d="M478 274v-6h-38v6h-16v8h-8v52h64v-60h-2z"/><path class="cls-15" d="M416 298h8v8h-8zM424 282h8v8h-8zM472 288h8v8h-8zM464 280h8v8h-8zM472 318h8v16h-8zM440 314h8v10h-8zM424 326h8v8h-8zM440 268h8v10h-8zM448 278h8v28h-8zM432 290h8v24h-8z"/><path class="cls-2" transform="rotate(-180 474 358)" d="M468 352h12v12h-12z"/><path class="cls-4" transform="rotate(-180 420 346)" d="M416 342h8v8h-8z"/><path class="cls-2" transform="rotate(-180 422 352)" d="M420 350h4v4h-4z"/></g><g id="char-1-3_copy" data-name="char-1-3 copy"><path id="shoe-19" data-name="shoe" class="cls-5" d="M336 364h8v8l-8 8h-8v-8l8-8z"/><path id="pants-3" data-name="pants" class="cls-6" transform="rotate(-180 318 366)" d="M308 360h20v12h-20z"/><path id="shoe-20" data-name="shoe" class="cls-5" d="M316 372v8h-8l-8-8v-8h8l8 8z"/><path id="pants-4" data-name="pants" class="cls-6" d="M56 360h20v12H56z"/></g><g id="char-1-3"><path id="shoe-21" data-name="shoe" class="cls-5" d="M48 364h-8v8l8 8h8v-8l-8-8z"/><path id="shoe-22" data-name="shoe" class="cls-5" d="M68 372v8h8l8-8v-8h-8l-8 8z"/></g><g id="char-1-2_copy" data-name="char-1-2 copy"><path id="eye-11" data-name="eye" transform="rotate(-180 340 180)" d="M336 176h8v8h-8z"/><path id="pants-5" data-name="pants" class="cls-6" transform="rotate(-180 317 238)" d="M308 232h18v12h-18z"/><path class="cls-7" transform="rotate(-180 322 248)" d="M312 244h20v8h-20z"/><path class="cls-4" d="M311.43 216v-4h17.14v4H332v16h-24v-16h3.43zM311.43 472v-4h17.14v4H332v16h-24v-16h3.43zM311.43 88v-4h17.14v4H332v16h-24V88h3.43z"/><path id="hand" class="cls-16" transform="rotate(-180 316 232)" d="M312 228h8v8h-8z"/><g id="hank-head-5" data-name="hank-head"><path class="cls-16" d="M344 152h-24v8h8v24h-8v-8h-8v36h14v-4h18v-8h8v-48zm-16 48h-8v-8h8zm16-16h-8v-8h8z"/><path d="M352 168v8h-24v8h24v8h8v-24h-8z"/><path class="cls-14" d="M320 130h-8v8h-8v16h-8v46h16v-24h8v8h8v-24h-8v-8h16v8h8v-8h8v-22h-32z"/><path class="cls-11" d="M352 192v8h-8v-8h-24v8h8v8h16v8h16v-24h-8z"/><path class="cls-17" d="M304 142h8v8h-8zM312 156h8v8h-8zM320 176h8v8h-8zM296 156h8v16h-8zM304 176v4h-8v8h8v-4h8v-8h-8zM336 130h8v14h-8zM328 144v-14h-16v8h8v14h16v-8h-8zM344 144h8v8h-8z"/></g><path id="eye-12" data-name="eye" transform="rotate(-180 326 436)" d="M322 432h8v8h-8z"/><path id="pants-6" data-name="pants" class="cls-6" transform="rotate(-180 317 494)" d="M308 488h18v12h-18z"/><path class="cls-7" transform="rotate(-180 322 504)" d="M312 500h20v8h-20z"/><path id="hand-2" data-name="hand" class="cls-16" transform="rotate(-180 316 488)" d="M312 484h8v8h-8z"/><g id="hank-head-6" data-name="hank-head"><path class="cls-16" d="M344 408h-24v8h8v24h-8v-8h-8v36h14v-4h18v-8h8v-48zm-16 48h-8v-8h8zm16-16h-8v-8h8z"/><path d="M352 424v8h-24v8h24v8h8v-24h-8z"/><path class="cls-14" d="M320 386h-8v8h-8v16h-8v46h16v-24h8v8h8v-24h-8v-8h16v8h8v-8h8v-22h-32z"/><path class="cls-11" d="M352 448v8h-8v-8h-24v8h8v8h16v8h16v-24h-8z"/><path class="cls-17" d="M304 398h8v8h-8zM312 412h8v8h-8zM320 432h8v8h-8zM296 412h8v16h-8zM304 432v4h-8v8h8v-4h8v-8h-8zM336 386h8v14h-8zM328 400v-14h-16v8h8v14h16v-8h-8zM344 400h8v8h-8z"/></g><g id="hank-head-7" data-name="hank-head"><path class="cls-16" d="M344 284h-24v8h8v24h-8v-8h-8v36h14v-4h18v-8h8v-48zm-16 48h-8v-8h8zm16-16h-8v-8h8z"/><path d="M352 300v8h-24v8h24v8h8v-24h-8z"/><path class="cls-14" d="M320 262h-8v8h-8v16h-8v46h16v-24h8v8h8v-24h-8v-8h16v8h8v-8h8v-22h-32z"/><path class="cls-11" d="M352 324v8h-8v-8h-24v8h8v8h16v8h16v-24h-8z"/><path class="cls-17" d="M304 274h8v8h-8zM312 288h8v8h-8zM320 308h8v8h-8zM296 288h8v16h-8zM304 308v4h-8v8h8v-4h8v-8h-8zM336 262h8v14h-8zM328 276v-14h-16v8h8v14h16v-8h-8zM344 276h8v8h-8z"/></g><g id="hank-head-8" data-name="hank-head"><path class="cls-16" d="M344 28h-24v8h8v24h-8v-8h-8v32h32v-8h8V28zm-16 48h-8v-8h8zm16-16h-8v-8h8z"/><path d="M352 44v8h-24v8h24v8h8V44h-8z"/><path class="cls-14" d="M320 6h-8v8h-8v16h-8v46h16V52h8v8h8V36h-8v-8h16v8h8v-8h8V6h-32z"/><path class="cls-11" d="M352 68v8h-8v-8h-24v8h8v8h16v8h16V68h-8z"/><path class="cls-17" d="M304 18h8v8h-8zM312 32h8v8h-8zM320 52h8v8h-8zM296 32h8v16h-8zM304 52v4h-8v8h8v-4h8v-8h-8zM336 6h8v14h-8zM328 20V6h-16v8h8v14h16v-8h-8zM344 20h8v8h-8z"/></g><path class="cls-4" d="M311.43 344v-4h17.14v4H332v16h-24v-16h3.43z"/><path id="eye-13" data-name="eye" d="M40 176h8v8h-8z"/><path id="pants-7" data-name="pants" class="cls-6" d="M58 232h18v12H58z"/><path class="cls-4" d="M72.57 216v-4H55.43v4H52v16h24v-16h-3.43zM72.57 472v-4H55.43v4H52v16h24v-16h-3.43zM72.57 88v-4H55.43v4H52v16h24V88h-3.43z"/><path id="hand-3" data-name="hand" class="cls-16" d="M64 228h8v8h-8z"/><g id="hank-head-9" data-name="hank-head"><path class="cls-16" d="M32 152v48h8v8h18v4h14v-36h-8v8h-8v-24h8v-8H32zm24 40h8v8h-8zm-16-16h8v8h-8z"/><path d="M32 168v8h24v8H32v8h-8v-24h8z"/><path class="cls-14" d="M64 130h8v8h8v16h8v46H72v-24h-8v8h-8v-24h8v-8H48v8h-8v-8h-8v-22h32z"/><path class="cls-11" d="M32 192v8h8v-8h24v8h-8v8H40v8H24v-24h8z"/><path class="cls-17" transform="rotate(-180 76 146)" d="M72 142h8v8h-8z"/><path class="cls-17" transform="rotate(-180 68 160)" d="M64 156h8v8h-8z"/><path class="cls-17" transform="rotate(-180 60 180)" d="M56 176h8v8h-8z"/><path class="cls-17" transform="rotate(-180 84 164)" d="M80 156h8v16h-8z"/><path class="cls-17" d="M80 176v4h8v8h-8v-4h-8v-8h8z"/><path class="cls-17" transform="rotate(-180 44 137)" d="M40 130h8v14h-8z"/><path class="cls-17" d="M56 144v-14h16v8h-8v14H48v-8h8z"/><path class="cls-17" transform="rotate(-180 36 148)" d="M32 144h8v8h-8z"/></g><path id="eye-14" data-name="eye" d="M54 432h8v8h-8z"/><path id="pants-8" data-name="pants" class="cls-6" d="M58 488h18v12H58z"/><path class="cls-7" d="M52 500h20v8H52z"/><path id="hand-4" data-name="hand" class="cls-16" d="M64 484h8v8h-8z"/><g id="hank-head-10" data-name="hank-head"><path class="cls-16" d="M32 408v48h8v8h18v4h14v-36h-8v8h-8v-24h8v-8H32zm24 40h8v8h-8zm-16-16h8v8h-8z"/><path d="M32 424v8h24v8H32v8h-8v-24h8z"/><path class="cls-14" d="M64 386h8v8h8v16h8v46H72v-24h-8v8h-8v-24h8v-8H48v8h-8v-8h-8v-22h32z"/><path class="cls-11" d="M32 448v8h8v-8h24v8h-8v8H40v8H24v-24h8z"/><path class="cls-17" transform="rotate(-180 76 402)" d="M72 398h8v8h-8z"/><path class="cls-17" transform="rotate(-180 68 416)" d="M64 412h8v8h-8z"/><path class="cls-17" transform="rotate(-180 60 436)" d="M56 432h8v8h-8z"/><path class="cls-17" transform="rotate(-180 84 420)" d="M80 412h8v16h-8z"/><path class="cls-17" d="M80 432v4h8v8h-8v-4h-8v-8h8z"/><path class="cls-17" transform="rotate(-180 44 393)" d="M40 386h8v14h-8z"/><path class="cls-17" d="M56 400v-14h16v8h-8v14H48v-8h8z"/><path class="cls-17" transform="rotate(-180 36 404)" d="M32 400h8v8h-8z"/></g><g id="hank-head-11" data-name="hank-head"><path class="cls-16" d="M32 284v48h8v8h18v4h14v-36h-8v8h-8v-24h8v-8H32zm24 40h8v8h-8zm-16-16h8v8h-8z"/><path d="M32 300v8h24v8H32v8h-8v-24h8z"/><path class="cls-14" d="M64 262h8v8h8v16h8v46H72v-24h-8v8h-8v-24h8v-8H48v8h-8v-8h-8v-22h32z"/><path class="cls-11" d="M32 324v8h8v-8h24v8h-8v8H40v8H24v-24h8z"/><path class="cls-17" transform="rotate(-180 76 278)" d="M72 274h8v8h-8z"/><path class="cls-17" transform="rotate(-180 68 292)" d="M64 288h8v8h-8z"/><path class="cls-17" transform="rotate(-180 60 312)" d="M56 308h8v8h-8z"/><path class="cls-17" transform="rotate(-180 84 296)" d="M80 288h8v16h-8z"/><path class="cls-17" d="M80 308v4h8v8h-8v-4h-8v-8h8z"/><path class="cls-17" transform="rotate(-180 44 269)" d="M40 262h8v14h-8z"/><path class="cls-17" d="M56 276v-14h16v8h-8v14H48v-8h8z"/><path class="cls-17" transform="rotate(-180 36 280)" d="M32 276h8v8h-8z"/></g><g id="hank-head-12" data-name="hank-head"><path class="cls-16" d="M32 28v48h8v8h32V52h-8v8h-8V36h8v-8H32zm24 40h8v8h-8zM40 52h8v8h-8z"/><path d="M32 44v8h24v8H32v8h-8V44h8z"/><path class="cls-14" d="M64 6h8v8h8v16h8v46H72V52h-8v8h-8V36h8v-8H48v8h-8v-8h-8V6h32z"/><path class="cls-11" d="M32 68v8h8v-8h24v8h-8v8H40v8H24V68h8z"/><path class="cls-17" transform="rotate(-180 76 22)" d="M72 18h8v8h-8z"/><path class="cls-17" transform="rotate(-180 68 36)" d="M64 32h8v8h-8z"/><path class="cls-17" transform="rotate(-180 60 56)" d="M56 52h8v8h-8z"/><path class="cls-17" transform="rotate(-180 84 40)" d="M80 32h8v16h-8z"/><path class="cls-17" d="M80 52v4h8v8h-8v-4h-8v-8h8z"/><path class="cls-17" transform="rotate(-180 44 13)" d="M40 6h8v14h-8z"/><path class="cls-17" d="M56 20V6h16v8h-8v14H48v-8h8z"/><path class="cls-17" transform="rotate(-180 36 24)" d="M32 20h8v8h-8z"/></g><path class="cls-4" d="M72.57 344v-4H55.43v4H52v16h24v-16h-3.43z"/></g><g id="char-1-2"><path class="cls-7" d="M52 244h20v8H52z"/><path class="cls-3" d="M56 232h20"/></g><g id="char-1-1"><path id="back-2" data-name="back" class="cls-1" d="M0 0h128v128H0z"/><path id="shoe-23" data-name="shoe" class="cls-5" d="M48 108h-8v8l8 8h8v-8l-8-8z"/><path id="shoe-24" data-name="shoe" class="cls-5" d="M68 116v8h8l8-8v-8h-8l-8 8z"/><path class="cls-2" d="M160 480h8v8h-8z"/><path id="hand-5" data-name="hand" class="cls-16" transform="rotate(-180 312 104)" d="M308 100h8v8h-8z"/><path id="hand-6" data-name="hand" class="cls-16" transform="rotate(-180 324 360)" d="M320 356h8v8h-8z"/><path id="hand-7" data-name="hand" class="cls-16" d="M68 100h8v8h-8z"/><path id="hand-8" data-name="hand" class="cls-16" d="M56 356h8v8h-8z"/></g><g id="Plaid_Layer" data-name="Plaid Layer"><path class="cls-18" d="M160 202h4v4h-4z"/><path class="cls-19" d="M160 206h4v4h-4z"/><path class="cls-20" d="M164 206h4v4h-4z"/><path class="cls-21" d="M164 202h4v4h-4z"/><path class="cls-18" d="M160 82h4v4h-4z"/><path class="cls-19" d="M160 86h4v4h-4z"/><path class="cls-20" d="M164 86h4v4h-4z"/><path class="cls-21" d="M164 82h4v4h-4z"/><path class="cls-18" d="M216 74h4v4h-4z"/><path class="cls-19" d="M216 78h4v4h-4z"/><path class="cls-20" d="M220 78h4v4h-4z"/><path class="cls-21" d="M220 74h4v4h-4z"/><path class="cls-18" d="M216 82h4v4h-4z"/><path class="cls-19" d="M216 86h4v4h-4z"/><path class="cls-20" d="M220 86h4v4h-4z"/><path class="cls-21" d="M220 82h4v4h-4z"/><path class="cls-18" d="M168 90h4v4h-4z"/><path class="cls-19" d="M168 94h4v4h-4z"/><path class="cls-20" d="M172 94h4v4h-4z"/><path class="cls-21" d="M172 90h4v4h-4z"/><path class="cls-18" d="M176 90h4v4h-4z"/><path class="cls-19" d="M176 94h4v4h-4z"/><path class="cls-20" d="M180 94h4v4h-4z"/><path class="cls-19" d="M184 94h4v4h-4z"/><path class="cls-20" d="M188 94h4v4h-4z"/><path class="cls-19" d="M192 94h4v4h-4z"/><path class="cls-20" d="M196 94h4v4h-4z"/><path class="cls-19" d="M168 86h4v4h-4z"/><path class="cls-20" d="M172 86h4v4h-4z"/><path class="cls-19" d="M176 86h4v4h-4z"/><path class="cls-20" d="M180 86h4v4h-4z"/><path class="cls-19" d="M200 86h4v4h-4z"/><path class="cls-20" d="M204 86h4v4h-4z"/><path class="cls-19" d="M208 86h4v4h-4z"/><path class="cls-20" d="M212 86h4v4h-4z"/><path class="cls-21" d="M180 90h4v4h-4z"/><path class="cls-18" d="M168 98h4v4h-4z"/><path class="cls-21" d="M172 98h4v4h-4z"/><path class="cls-18" d="M176 98h4v4h-4z"/><path class="cls-21" d="M180 98h4v4h-4z"/><path class="cls-18" d="M184 98h4v4h-4z"/><path class="cls-21" d="M188 98h4v4h-4z"/><path class="cls-18" d="M192 98h4v4h-4z"/><path class="cls-21" d="M196 98h4v4h-4z"/><path class="cls-18" d="M200 98h4v4h-4z"/><path class="cls-21" d="M204 98h4v4h-4z"/><path class="cls-18" d="M208 98h4v4h-4zM200 90h4v4h-4z"/><path class="cls-19" d="M200 94h4v4h-4z"/><path class="cls-20" d="M204 94h4v4h-4z"/><path class="cls-21" d="M204 90h4v4h-4z"/><path class="cls-18" d="M208 90h4v4h-4z"/><path class="cls-19" d="M208 94h4v4h-4zM168 102h4v2h-4z"/><path class="cls-20" d="M172 102h4v2h-4z"/><path class="cls-19" d="M176 102h4v2h-4z"/><path class="cls-20" d="M180 102h4v2h-4z"/><path class="cls-19" d="M184 102h4v2h-4z"/><path class="cls-20" d="M188 102h4v2h-4z"/><path class="cls-19" d="M192 102h4v2h-4z"/><path class="cls-20" d="M196 102h4v2h-4z"/><path class="cls-19" d="M200 102h4v2h-4z"/><path class="cls-20" d="M204 102h4v2h-4z"/><path class="cls-19" d="M208 102h4v2h-4z"/><path class="cls-20" d="M212 94h4v2h-4z"/><path class="cls-21" d="M212 90h4v4h-4z"/><path class="cls-18" d="M216 90h4v4h-4z"/><path class="cls-19" d="M216 94h4v2h-4z"/><path class="cls-20" d="M220 94h4v2h-4z"/><path class="cls-21" d="M220 90h4v4h-4z"/><path class="cls-18" d="M424 82h4v4h-4z"/><path class="cls-19" d="M424 86h4v4h-4z"/><path class="cls-20" d="M428 86h4v4h-4z"/><path class="cls-21" d="M428 82h4v4h-4z"/><path class="cls-18" d="M424 90h4v4h-4z"/><path class="cls-19" d="M424 94h4v2h-4z"/><path class="cls-20" d="M428 94h4v4h-4z"/><path class="cls-21" d="M428 90h4v4h-4z"/><path class="cls-19" d="M416 86h4v4h-4z"/><path class="cls-20" d="M420 86h4v4h-4z"/><path class="cls-19" d="M416 94h4v2h-4z"/><path class="cls-20" d="M420 94h4v2h-4z"/><path class="cls-18" d="M416 90h4v4h-4z"/><path class="cls-21" d="M420 90h4v4h-4z"/><path class="cls-18" d="M432 98h4v4h-4z"/><path class="cls-19" d="M432 102h4v2h-4z"/><path class="cls-20" d="M428 102h4v2h-4z"/><path class="cls-21" d="M428 98h4v4h-4z"/><path class="cls-18" d="M440 98h4v4h-4z"/><path class="cls-19" d="M440 102h4v2h-4z"/><path class="cls-20" d="M436 102h4v2h-4z"/><path class="cls-21" d="M436 98h4v4h-4z"/><path class="cls-18" d="M448 98h4v4h-4z"/><path class="cls-19" d="M448 102h4v2h-4z"/><path class="cls-20" d="M444 102h4v2h-4z"/><path class="cls-21" d="M444 98h4v4h-4z"/><path class="cls-18" d="M456 98h4v4h-4z"/><path class="cls-19" d="M456 102h4v2h-4z"/><path class="cls-20" d="M452 102h4v2h-4z"/><path class="cls-21" d="M452 98h4v4h-4z"/><path class="cls-18" d="M464 98h4v4h-4z"/><path class="cls-19" d="M464 102h4v2h-4z"/><path class="cls-20" d="M460 102h4v2h-4z"/><path class="cls-21" d="M460 98h4v4h-4z"/><path class="cls-20" d="M468 102h4v2h-4z"/><path class="cls-21" d="M468 98h4v4h-4z"/><path class="cls-19" d="M472 86h4v4h-4z"/><path class="cls-20" d="M476 86h4v4h-4z"/><path class="cls-18" d="M472 90h4v4h-4z"/><path class="cls-21" d="M476 90h4v4h-4z"/><path class="cls-18" d="M432 90h4v4h-4z"/><path class="cls-19" d="M432 94h4v4h-4z"/><path class="cls-20" d="M436 94h4v4h-4z"/><path class="cls-21" d="M436 90h4v4h-4z"/><path class="cls-18" d="M440 90h4v4h-4z"/><path class="cls-19" d="M440 94h4v4h-4z"/><path class="cls-20" d="M444 94h4v4h-4z"/><path class="cls-21" d="M444 90h4v4h-4z"/><path class="cls-18" d="M448 90h4v4h-4z"/><path class="cls-19" d="M448 94h4v4h-4z"/><path class="cls-20" d="M452 94h4v4h-4z"/><path class="cls-21" d="M452 90h4v4h-4z"/><path class="cls-18" d="M456 90h4v4h-4z"/><path class="cls-19" d="M456 94h4v4h-4z"/><path class="cls-20" d="M460 94h4v4h-4z"/><path class="cls-21" d="M460 90h4v4h-4z"/><path class="cls-18" d="M464 90h4v4h-4z"/><path class="cls-19" d="M464 94h4v4h-4z"/><path class="cls-20" d="M468 94h4v4h-4z"/><path class="cls-21" d="M468 90h4v4h-4z"/><path class="cls-18" d="M432 82h4v4h-4z"/><path class="cls-19" d="M432 86h4v4h-4z"/><path class="cls-20" d="M436 86h4v4h-4z"/><path class="cls-21" d="M436 82h4v4h-4z"/><path class="cls-18" d="M440 82h4v4h-4z"/><path class="cls-19" d="M440 86h4v4h-4z"/><path class="cls-20" d="M444 86h4v4h-4z"/><path class="cls-21" d="M444 82h4v4h-4z"/><path class="cls-18" d="M448 82h4v4h-4z"/><path class="cls-19" d="M448 86h4v4h-4z"/><path class="cls-20" d="M452 86h4v4h-4z"/><path class="cls-21" d="M452 82h4v4h-4z"/><path class="cls-18" d="M456 82h4v4h-4z"/><path class="cls-19" d="M456 86h4v4h-4z"/><path class="cls-20" d="M460 86h4v4h-4z"/><path class="cls-21" d="M460 82h4v4h-4z"/><path class="cls-18" d="M464 82h4v4h-4z"/><path class="cls-19" d="M464 86h4v4h-4z"/><path class="cls-20" d="M468 86h4v4h-4z"/><path class="cls-21" d="M468 82h4v4h-4z"/><path class="cls-18" d="M424 202h4v4h-4z"/><path class="cls-19" d="M424 206h4v4h-4z"/><path class="cls-20" d="M428 206h4v4h-4z"/><path class="cls-21" d="M428 202h4v4h-4z"/><path class="cls-18" d="M424 210h4v4h-4z"/><path class="cls-21" d="M428 210h4v4h-4z"/><path class="cls-19" d="M416 206h4v4h-4z"/><path class="cls-20" d="M420 206h4v4h-4z"/><path class="cls-18" d="M416 210h4v4h-4z"/><path class="cls-21" d="M420 210h4v4h-4z"/><path class="cls-19" d="M472 206h4v4h-4z"/><path class="cls-20" d="M476 206h4v4h-4z"/><path class="cls-18" d="M472 210h4v4h-4z"/><path class="cls-21" d="M476 210h4v4h-4z"/><path class="cls-18" d="M432 210h4v4h-4z"/><path class="cls-21" d="M436 210h4v4h-4z"/><path class="cls-18" d="M440 210h4v4h-4z"/><path class="cls-21" d="M444 210h4v4h-4z"/><path class="cls-18" d="M448 210h4v4h-4z"/><path class="cls-21" d="M452 210h4v4h-4z"/><path class="cls-18" d="M456 210h4v4h-4z"/><path class="cls-21" d="M460 210h4v4h-4z"/><path class="cls-18" d="M464 210h4v4h-4z"/><path class="cls-21" d="M468 210h4v4h-4z"/><path class="cls-18" d="M432 202h4v4h-4z"/><path class="cls-19" d="M432 206h4v4h-4z"/><path class="cls-20" d="M436 206h4v4h-4z"/><path class="cls-21" d="M436 202h4v4h-4z"/><path class="cls-18" d="M440 202h4v4h-4z"/><path class="cls-19" d="M440 206h4v4h-4z"/><path class="cls-20" d="M444 206h4v4h-4z"/><path class="cls-21" d="M444 202h4v4h-4z"/><path class="cls-18" d="M448 202h4v4h-4z"/><path class="cls-19" d="M448 206h4v4h-4z"/><path class="cls-20" d="M452 206h4v4h-4z"/><path class="cls-21" d="M452 202h4v4h-4z"/><path class="cls-18" d="M456 202h4v4h-4z"/><path class="cls-19" d="M456 206h4v4h-4z"/><path class="cls-20" d="M460 206h4v4h-4z"/><path class="cls-21" d="M460 202h4v4h-4z"/><path class="cls-18" d="M464 202h4v4h-4z"/><path class="cls-19" d="M464 206h4v4h-4z"/><path class="cls-20" d="M468 206h4v4h-4z"/><path class="cls-19" d="M424 214h4v4h-4z"/><path class="cls-20" d="M428 214h4v4h-4z"/><path class="cls-18" d="M424 218h4v4h-4z"/><path class="cls-21" d="M428 218h4v4h-4z"/><path class="cls-19" d="M416 214h4v4h-4z"/><path class="cls-20" d="M420 214h4v4h-4z"/><path class="cls-18" d="M416 218h4v4h-4z"/><path class="cls-21" d="M420 218h4v4h-4z"/><path class="cls-19" d="M472 214h4v4h-4z"/><path class="cls-20" d="M476 214h4v4h-4z"/><path class="cls-18" d="M472 218h4v4h-4z"/><path class="cls-21" d="M476 218h4v4h-4z"/><path class="cls-18" d="M432 218h4v4h-4z"/><path class="cls-21" d="M436 218h4v4h-4z"/><path class="cls-18" d="M440 218h4v4h-4z"/><path class="cls-21" d="M444 218h4v4h-4z"/><path class="cls-18" d="M448 218h4v4h-4z"/><path class="cls-21" d="M452 218h4v4h-4z"/><path class="cls-18" d="M456 218h4v4h-4z"/><path class="cls-21" d="M460 218h4v4h-4z"/><path class="cls-18" d="M464 218h4v4h-4z"/><path class="cls-21" d="M468 218h4v4h-4z"/><path class="cls-19" d="M432 214h4v4h-4z"/><path class="cls-20" d="M436 214h4v4h-4z"/><path class="cls-19" d="M440 214h4v4h-4z"/><path class="cls-20" d="M444 214h4v4h-4z"/><path class="cls-19" d="M448 214h4v4h-4z"/><path class="cls-20" d="M452 214h4v4h-4z"/><path class="cls-19" d="M456 214h4v4h-4z"/><path class="cls-20" d="M460 214h4v4h-4z"/><path class="cls-19" d="M464 214h4v4h-4z"/><path class="cls-20" d="M468 214h4v4h-4z"/><path class="cls-19" d="M424 222h4v4h-4z"/><path class="cls-20" d="M428 222h4v4h-4z"/><path class="cls-19" d="M416 222h4v2h-4z"/><path class="cls-20" d="M420 222h4v2h-4z"/><path class="cls-19" d="M472 222h4v2h-4z"/><path class="cls-20" d="M476 222h4v2h-4z"/><path class="cls-19" d="M432 222h4v4h-4z"/><path class="cls-20" d="M436 222h4v4h-4z"/><path class="cls-19" d="M440 222h4v4h-4z"/><path class="cls-20" d="M444 222h4v4h-4z"/><path class="cls-19" d="M448 222h4v4h-4z"/><path class="cls-20" d="M452 222h4v4h-4z"/><path class="cls-19" d="M456 222h4v4h-4z"/><path class="cls-20" d="M460 222h4v4h-4z"/><path class="cls-19" d="M464 222h4v4h-4z"/><path class="cls-20" d="M468 222h4v4h-4z"/><path class="cls-18" d="M424 226h4v4h-4z"/><path class="cls-21" d="M428 226h4v4h-4z"/><path class="cls-18" d="M432 226h4v4h-4z"/><path class="cls-21" d="M436 226h4v4h-4z"/><path class="cls-18" d="M440 226h4v4h-4z"/><path class="cls-21" d="M444 226h4v4h-4z"/><path class="cls-18" d="M448 226h4v4h-4z"/><path class="cls-21" d="M452 226h4v4h-4z"/><path class="cls-18" d="M456 226h4v4h-4z"/><path class="cls-21" d="M460 226h4v4h-4z"/><path class="cls-18" d="M464 226h4v4h-4z"/><path class="cls-21" d="M468 226h4v4h-4z"/><path class="cls-19" d="M424 230h4v2h-4z"/><path class="cls-20" d="M428 230h4v2h-4z"/><path class="cls-19" d="M432 230h4v2h-4z"/><path class="cls-20" d="M436 230h4v2h-4z"/><path class="cls-19" d="M440 230h4v2h-4z"/><path class="cls-20" d="M444 230h4v2h-4z"/><path class="cls-19" d="M448 230h4v2h-4z"/><path class="cls-20" d="M452 230h4v2h-4z"/><path class="cls-19" d="M456 230h4v2h-4z"/><path class="cls-20" d="M460 230h4v2h-4z"/><path class="cls-19" d="M464 230h4v2h-4z"/><path class="cls-20" d="M468 230h4v2h-4z"/><path class="cls-21" d="M468 202h4v4h-4z"/><path class="cls-18" d="M424 458h4v4h-4z"/><path class="cls-19" d="M424 462h4v4h-4z"/><path class="cls-20" d="M428 462h4v4h-4z"/><path class="cls-21" d="M428 458h4v4h-4z"/><path class="cls-18" d="M424 466h4v4h-4z"/><path class="cls-21" d="M428 466h4v4h-4z"/><path class="cls-19" d="M416 462h4v4h-4z"/><path class="cls-20" d="M420 462h4v4h-4z"/><path class="cls-18" d="M416 466h4v4h-4z"/><path class="cls-21" d="M420 466h4v4h-4z"/><path class="cls-19" d="M472 462h4v4h-4z"/><path class="cls-20" d="M476 462h4v4h-4z"/><path class="cls-18" d="M472 466h4v4h-4z"/><path class="cls-21" d="M476 466h4v4h-4z"/><path class="cls-18" d="M432 466h4v4h-4z"/><path class="cls-21" d="M436 466h4v4h-4z"/><path class="cls-18" d="M440 466h4v4h-4z"/><path class="cls-21" d="M444 466h4v4h-4z"/><path class="cls-18" d="M448 466h4v4h-4z"/><path class="cls-21" d="M452 466h4v4h-4z"/><path class="cls-18" d="M456 466h4v4h-4z"/><path class="cls-21" d="M460 466h4v4h-4z"/><path class="cls-18" d="M464 466h4v4h-4z"/><path class="cls-21" d="M468 466h4v4h-4z"/><path class="cls-18" d="M432 458h4v4h-4z"/><path class="cls-19" d="M432 462h4v4h-4z"/><path class="cls-20" d="M436 462h4v4h-4z"/><path class="cls-21" d="M436 458h4v4h-4z"/><path class="cls-18" d="M440 458h4v4h-4z"/><path class="cls-19" d="M440 462h4v4h-4z"/><path class="cls-20" d="M444 462h4v4h-4z"/><path class="cls-21" d="M444 458h4v4h-4z"/><path class="cls-18" d="M448 458h4v4h-4z"/><path class="cls-19" d="M448 462h4v4h-4z"/><path class="cls-20" d="M452 462h4v4h-4z"/><path class="cls-21" d="M452 458h4v4h-4z"/><path class="cls-18" d="M456 458h4v4h-4z"/><path class="cls-19" d="M456 462h4v4h-4z"/><path class="cls-20" d="M460 462h4v4h-4z"/><path class="cls-21" d="M460 458h4v4h-4z"/><path class="cls-18" d="M464 458h4v4h-4z"/><path class="cls-19" d="M464 462h4v4h-4z"/><path class="cls-20" d="M468 462h4v4h-4z"/><path class="cls-19" d="M424 470h4v4h-4z"/><path class="cls-20" d="M428 470h4v4h-4z"/><path class="cls-18" d="M424 474h4v4h-4z"/><path class="cls-21" d="M428 474h4v4h-4z"/><path class="cls-19" d="M416 470h4v4h-4z"/><path class="cls-20" d="M420 470h4v4h-4z"/><path class="cls-18" d="M416 474h4v4h-4z"/><path class="cls-21" d="M420 474h4v4h-4z"/><path class="cls-19" d="M472 470h4v4h-4z"/><path class="cls-20" d="M476 470h4v4h-4z"/><path class="cls-18" d="M472 474h4v4h-4z"/><path class="cls-21" d="M476 474h4v4h-4z"/><path class="cls-18" d="M432 474h4v4h-4z"/><path class="cls-21" d="M436 474h4v4h-4z"/><path class="cls-18" d="M440 474h4v4h-4z"/><path class="cls-21" d="M444 474h4v4h-4z"/><path class="cls-18" d="M448 474h4v4h-4z"/><path class="cls-21" d="M452 474h4v4h-4z"/><path class="cls-18" d="M456 474h4v4h-4z"/><path class="cls-21" d="M460 474h4v4h-4z"/><path class="cls-18" d="M464 474h4v4h-4z"/><path class="cls-21" d="M468 474h4v4h-4z"/><path class="cls-19" d="M432 470h4v4h-4z"/><path class="cls-20" d="M436 470h4v4h-4z"/><path class="cls-19" d="M440 470h4v4h-4z"/><path class="cls-20" d="M444 470h4v4h-4z"/><path class="cls-19" d="M448 470h4v4h-4z"/><path class="cls-20" d="M452 470h4v4h-4z"/><path class="cls-19" d="M456 470h4v4h-4z"/><path class="cls-20" d="M460 470h4v4h-4z"/><path class="cls-19" d="M464 470h4v4h-4z"/><path class="cls-20" d="M468 470h4v4h-4z"/><path class="cls-19" d="M424 478h4v4h-4z"/><path class="cls-20" d="M428 478h4v4h-4z"/><path class="cls-19" d="M416 478h4v2h-4z"/><path class="cls-20" d="M420 478h4v2h-4z"/><path class="cls-19" d="M472 478h4v2h-4z"/><path class="cls-20" d="M476 478h4v2h-4z"/><path class="cls-19" d="M432 478h4v4h-4z"/><path class="cls-20" d="M436 478h4v4h-4z"/><path class="cls-19" d="M440 478h4v4h-4z"/><path class="cls-20" d="M444 478h4v4h-4z"/><path class="cls-19" d="M448 478h4v4h-4z"/><path class="cls-20" d="M452 478h4v4h-4z"/><path class="cls-19" d="M456 478h4v4h-4z"/><path class="cls-20" d="M460 478h4v4h-4z"/><path class="cls-19" d="M464 478h4v4h-4z"/><path class="cls-20" d="M468 478h4v4h-4z"/><path class="cls-18" d="M424 482h4v4h-4z"/><path class="cls-21" d="M428 482h4v4h-4z"/><path class="cls-18" d="M432 482h4v4h-4z"/><path class="cls-21" d="M436 482h4v4h-4z"/><path class="cls-18" d="M440 482h4v4h-4z"/><path class="cls-21" d="M444 482h4v4h-4z"/><path class="cls-18" d="M448 482h4v4h-4z"/><path class="cls-21" d="M452 482h4v4h-4z"/><path class="cls-18" d="M456 482h4v4h-4z"/><path class="cls-21" d="M460 482h4v4h-4z"/><path class="cls-18" d="M464 482h4v4h-4z"/><path class="cls-21" d="M468 482h4v4h-4z"/><path class="cls-19" d="M424 486h4v2h-4z"/><path class="cls-20" d="M428 486h4v2h-4z"/><path class="cls-19" d="M432 486h4v2h-4z"/><path class="cls-20" d="M436 486h4v2h-4z"/><path class="cls-19" d="M440 486h4v2h-4z"/><path class="cls-20" d="M444 486h4v2h-4z"/><path class="cls-19" d="M448 486h4v2h-4z"/><path class="cls-20" d="M452 486h4v2h-4z"/><path class="cls-19" d="M456 486h4v2h-4z"/><path class="cls-20" d="M460 486h4v2h-4z"/><path class="cls-19" d="M464 486h4v2h-4z"/><path class="cls-20" d="M468 486h4v2h-4z"/><path class="cls-21" d="M468 458h4v4h-4z"/><path class="cls-18" d="M424 338h4v4h-4z"/><path class="cls-19" d="M424 342h4v4h-4z"/><path class="cls-20" d="M428 342h4v4h-4z"/><path class="cls-21" d="M428 338h4v4h-4z"/><path class="cls-18" d="M424 346h4v4h-4z"/><path class="cls-19" d="M424 350h4v4h-4z"/><path class="cls-20" d="M428 350h4v4h-4z"/><path class="cls-21" d="M428 346h4v4h-4z"/><path class="cls-19" d="M416 342h4v4h-4z"/><path class="cls-20" d="M420 342h4v4h-4z"/><path class="cls-19" d="M416 350h4v2h-4z"/><path class="cls-20" d="M420 350h4v2h-4z"/><path class="cls-18" d="M416 346h4v4h-4z"/><path class="cls-21" d="M420 346h4v4h-4z"/><path class="cls-18" d="M432 354h4v4h-4z"/><path class="cls-19" d="M432 358h4v2h-4z"/><path class="cls-18" d="M424 354h4v4h-4z"/><path class="cls-19" d="M424 358h4v2h-4z"/><path class="cls-20" d="M428 358h4v2h-4z"/><path class="cls-21" d="M428 354h4v4h-4z"/><path class="cls-18" d="M440 354h4v4h-4z"/><path class="cls-19" d="M440 358h4v2h-4z"/><path class="cls-20" d="M436 358h4v2h-4z"/><path class="cls-21" d="M436 354h4v4h-4z"/><path class="cls-18" d="M448 354h4v4h-4z"/><path class="cls-19" d="M448 358h4v2h-4z"/><path class="cls-20" d="M444 358h4v2h-4z"/><path class="cls-21" d="M444 354h4v4h-4z"/><path class="cls-18" d="M456 354h4v4h-4z"/><path class="cls-19" d="M456 358h4v2h-4z"/><path class="cls-20" d="M452 358h4v2h-4z"/><path class="cls-21" d="M452 354h4v4h-4z"/><path class="cls-18" d="M464 354h4v4h-4z"/><path class="cls-19" d="M464 358h4v2h-4z"/><path class="cls-20" d="M460 358h4v2h-4z"/><path class="cls-21" d="M460 354h4v4h-4z"/><path class="cls-19" d="M472 342h4v4h-4z"/><path class="cls-20" d="M476 342h4v4h-4z"/><path class="cls-19" d="M472 350h4v2h-4z"/><path class="cls-20" d="M476 350h4v2h-4z"/><path class="cls-18" d="M472 346h4v4h-4z"/><path class="cls-21" d="M476 346h4v4h-4z"/><path class="cls-18" d="M432 346h4v4h-4z"/><path class="cls-19" d="M432 350h4v4h-4z"/><path class="cls-20" d="M436 350h4v4h-4z"/><path class="cls-21" d="M436 346h4v4h-4z"/><path class="cls-18" d="M440 346h4v4h-4z"/><path class="cls-19" d="M440 350h4v4h-4z"/><path class="cls-20" d="M444 350h4v4h-4z"/><path class="cls-21" d="M444 346h4v4h-4z"/><path class="cls-18" d="M448 346h4v4h-4z"/><path class="cls-19" d="M448 350h4v4h-4z"/><path class="cls-20" d="M452 350h4v4h-4z"/><path class="cls-21" d="M452 346h4v4h-4z"/><path class="cls-18" d="M456 346h4v4h-4z"/><path class="cls-19" d="M456 350h4v4h-4z"/><path class="cls-20" d="M460 350h4v4h-4z"/><path class="cls-21" d="M460 346h4v4h-4z"/><path class="cls-18" d="M464 346h4v4h-4z"/><path class="cls-19" d="M464 350h4v4h-4z"/><path class="cls-20" d="M468 350h4v2h-4z"/><path class="cls-21" d="M468 346h4v4h-4z"/><path class="cls-18" d="M432 338h4v4h-4z"/><path class="cls-19" d="M432 342h4v4h-4z"/><path class="cls-20" d="M436 342h4v4h-4z"/><path class="cls-21" d="M436 338h4v4h-4z"/><path class="cls-18" d="M440 338h4v4h-4z"/><path class="cls-19" d="M440 342h4v4h-4z"/><path class="cls-20" d="M444 342h4v4h-4z"/><path class="cls-21" d="M444 338h4v4h-4z"/><path class="cls-18" d="M448 338h4v4h-4z"/><path class="cls-19" d="M448 342h4v4h-4z"/><path class="cls-20" d="M452 342h4v4h-4z"/><path class="cls-21" d="M452 338h4v4h-4z"/><path class="cls-18" d="M456 338h4v4h-4z"/><path class="cls-19" d="M456 342h4v4h-4z"/><path class="cls-20" d="M460 342h4v4h-4z"/><path class="cls-21" d="M460 338h4v4h-4z"/><path class="cls-18" d="M464 338h4v4h-4z"/><path class="cls-19" d="M464 342h4v4h-4z"/><path class="cls-20" d="M468 342h4v4h-4z"/><path class="cls-21" d="M468 338h4v4h-4z"/><path class="cls-18" d="M216 202h4v4h-4z"/><path class="cls-19" d="M216 206h4v4h-4z"/><path class="cls-20" d="M220 206h4v4h-4z"/><path class="cls-21" d="M220 202h4v4h-4z"/><path class="cls-18" d="M160 210h4v4h-4z"/><path class="cls-19" d="M160 214h4v4h-4z"/><path class="cls-20" d="M164 214h4v4h-4z"/><path class="cls-21" d="M164 210h4v4h-4z"/><path class="cls-18" d="M160 330h4v4h-4z"/><path class="cls-19" d="M160 334h4v4h-4z"/><path class="cls-20" d="M164 334h4v4h-4z"/><path class="cls-21" d="M164 330h4v4h-4z"/><path class="cls-18" d="M160 338h4v4h-4z"/><path class="cls-19" d="M160 342h4v4h-4z"/><path class="cls-20" d="M164 342h4v4h-4z"/><path class="cls-19" d="M160 350h4v2h-4z"/><path class="cls-20" d="M164 350h4v2h-4z"/><path class="cls-21" d="M164 338h4v4h-4z"/><path class="cls-18" d="M216 338h4v4h-4z"/><path class="cls-21" d="M220 338h4v4h-4z"/><path class="cls-18" d="M160 346h4v4h-4z"/><path class="cls-21" d="M164 346h4v4h-4z"/><path class="cls-19" d="M168 342h4v4h-4z"/><path class="cls-20" d="M172 342h4v4h-4z"/><path class="cls-19" d="M176 342h4v4h-4zM176 350h4v4h-4z"/><path class="cls-20" d="M180 350h4v4h-4z"/><path class="cls-19" d="M184 350h4v4h-4z"/><path class="cls-20" d="M188 350h4v4h-4z"/><path class="cls-19" d="M192 350h4v4h-4z"/><path class="cls-20" d="M196 350h4v4h-4z"/><path class="cls-19" d="M200 350h4v4h-4z"/><path class="cls-20" d="M204 350h4v4h-4zM212 350h4v4h-4z"/><path class="cls-19" d="M208 350h4v4h-4z"/><path class="cls-20" d="M180 342h4v4h-4z"/><path class="cls-19" d="M200 342h4v4h-4z"/><path class="cls-20" d="M204 342h4v4h-4z"/><path class="cls-19" d="M208 342h4v4h-4z"/><path class="cls-20" d="M212 342h4v4h-4z"/><path class="cls-19" d="M216 342h4v4h-4z"/><path class="cls-20" d="M220 342h4v4h-4z"/><path class="cls-19" d="M168 350h4v2h-4z"/><path class="cls-20" d="M172 350h4v4h-4z"/><path class="cls-19" d="M176 358h4v2h-4z"/><path class="cls-20" d="M180 358h4v2h-4z"/><path class="cls-19" d="M184 358h4v2h-4z"/><path class="cls-20" d="M188 358h4v2h-4z"/><path class="cls-19" d="M192 358h4v2h-4z"/><path class="cls-20" d="M196 358h4v2h-4z"/><path class="cls-19" d="M200 358h4v2h-4z"/><path class="cls-20" d="M204 358h4v2h-4zM212 358h4v2h-4z"/><path class="cls-19" d="M208 358h4v2h-4z"/><path class="cls-20" d="M172 358h4v2h-4z"/><path class="cls-18" d="M168 346h4v4h-4z"/><path class="cls-21" d="M172 346h4v4h-4z"/><path class="cls-18" d="M176 346h4v4h-4z"/><path class="cls-21" d="M180 346h4v4h-4z"/><path class="cls-18" d="M176 354h4v4h-4z"/><path class="cls-21" d="M180 354h4v4h-4zM172 354h4v4h-4z"/><path class="cls-18" d="M184 354h4v4h-4z"/><path class="cls-21" d="M188 354h4v4h-4z"/><path class="cls-18" d="M192 354h4v4h-4z"/><path class="cls-21" d="M196 354h4v4h-4z"/><path class="cls-18" d="M200 354h4v4h-4z"/><path class="cls-21" d="M204 354h4v4h-4z"/><path class="cls-18" d="M208 354h4v4h-4z"/><path class="cls-21" d="M212 354h4v4h-4z"/><path class="cls-18" d="M200 346h4v4h-4z"/><path class="cls-21" d="M204 346h4v4h-4z"/><path class="cls-18" d="M208 346h4v4h-4z"/><path class="cls-21" d="M212 346h4v4h-4z"/><path class="cls-18" d="M168 210h4v4h-4z"/><path class="cls-19" d="M168 214h4v4h-4z"/><path class="cls-20" d="M172 214h4v4h-4z"/><path class="cls-21" d="M172 210h4v4h-4z"/><path class="cls-18" d="M176 210h4v4h-4z"/><path class="cls-19" d="M176 214h4v4h-4z"/><path class="cls-20" d="M180 214h4v4h-4z"/><path class="cls-21" d="M180 210h4v4h-4z"/><path class="cls-18" d="M160 218h4v4h-4z"/><path class="cls-19" d="M160 222h4v2h-4z"/><path class="cls-20" d="M164 222h4v2h-4z"/><path class="cls-19" d="M216 222h4v2h-4z"/><path class="cls-20" d="M220 222h4v2h-4z"/><path class="cls-21" d="M164 218h4v4h-4z"/><path class="cls-18" d="M168 218h4v4h-4z"/><path class="cls-19" d="M168 222h4v4h-4z"/><path class="cls-20" d="M172 222h4v4h-4z"/><path class="cls-21" d="M172 218h4v4h-4z"/><path class="cls-18" d="M176 218h4v4h-4z"/><path class="cls-19" d="M176 222h4v4h-4z"/><path class="cls-20" d="M180 222h4v4h-4z"/><path class="cls-21" d="M180 218h4v4h-4z"/><path class="cls-18" d="M184 218h4v4h-4z"/><path class="cls-19" d="M184 222h4v4h-4zM52 216h4v4h-4z"/><path class="cls-20" d="M56 216h4v4h-4z"/><path class="cls-21" d="M56 212h4v4h-4z"/><path class="cls-18" d="M60 212h4v4h-4z"/><path class="cls-19" d="M60 216h4v4h-4z"/><path class="cls-18" d="M68 212h4v4h-4z"/><path class="cls-19" d="M68 216h4v4h-4z"/><path class="cls-20" d="M64 216h4v4h-4zM72 216h4v4h-4z"/><path class="cls-21" d="M64 212h4v4h-4z"/><path class="cls-18" d="M52 220h4v4h-4z"/><path class="cls-19" d="M52 224h4v4h-4z"/><path class="cls-20" d="M56 224h4v4h-4z"/><path class="cls-21" d="M56 220h4v4h-4z"/><path class="cls-18" d="M60 220h4v4h-4z"/><path class="cls-19" d="M60 224h4v4h-4z"/><path class="cls-20" d="M64 224h4v4h-4z"/><path class="cls-21" d="M64 220h4v4h-4z"/><path class="cls-18" d="M68 220h4v4h-4z"/><path class="cls-19" d="M68 224h4v4h-4z"/><path class="cls-20" d="M72 224h4v4h-4z"/><path class="cls-21" d="M72 220h4v4h-4z"/><path class="cls-18" d="M52 228h4v4h-4z"/><path class="cls-21" d="M56 228h4v4h-4z"/><path class="cls-18" d="M60 228h4v4h-4z"/><path class="cls-21" d="M72 228h4v4h-4z"/><path class="cls-19" d="M52 88h4v4h-4z"/><path class="cls-20" d="M56 88h4v4h-4z"/><path class="cls-21" d="M56 84h4v4h-4z"/><path class="cls-18" d="M60 84h4v4h-4z"/><path class="cls-19" d="M60 88h4v4h-4z"/><path class="cls-18" d="M68 84h4v4h-4z"/><path class="cls-19" d="M68 88h4v4h-4z"/><path class="cls-20" d="M64 88h4v4h-4zM72 88h4v4h-4z"/><path class="cls-21" d="M64 84h4v4h-4z"/><path class="cls-18" d="M52 92h4v4h-4z"/><path class="cls-19" d="M52 96h4v4h-4z"/><path class="cls-20" d="M56 96h4v4h-4z"/><path class="cls-21" d="M56 92h4v4h-4z"/><path class="cls-18" d="M60 92h4v4h-4z"/><path class="cls-19" d="M60 96h4v4h-4z"/><path class="cls-20" d="M64 96h4v4h-4z"/><path class="cls-21" d="M64 92h4v4h-4z"/><path class="cls-18" d="M68 92h4v4h-4z"/><path class="cls-19" d="M68 96h4v4h-4z"/><path class="cls-20" d="M72 96h4v4h-4z"/><path class="cls-21" d="M72 92h4v4h-4z"/><path class="cls-18" d="M52 100h4v4h-4z"/><path class="cls-21" d="M56 100h4v4h-4z"/><path class="cls-18" d="M60 100h4v4h-4z"/><path class="cls-19" d="M308 88h4v4h-4z"/><path class="cls-20" d="M312 88h4v4h-4z"/><path class="cls-21" d="M312 84h4v4h-4z"/><path class="cls-18" d="M316 84h4v4h-4z"/><path class="cls-19" d="M316 88h4v4h-4z"/><path class="cls-18" d="M324 84h4v4h-4z"/><path class="cls-19" d="M324 88h4v4h-4z"/><path class="cls-20" d="M320 88h4v4h-4zM328 88h4v4h-4z"/><path class="cls-21" d="M320 84h4v4h-4z"/><path class="cls-18" d="M308 92h4v4h-4z"/><path class="cls-19" d="M308 96h4v4h-4z"/><path class="cls-20" d="M312 96h4v4h-4z"/><path class="cls-21" d="M312 92h4v4h-4z"/><path class="cls-18" d="M316 92h4v4h-4z"/><path class="cls-19" d="M316 96h4v4h-4z"/><path class="cls-20" d="M320 96h4v4h-4z"/><path class="cls-21" d="M320 92h4v4h-4z"/><path class="cls-18" d="M324 92h4v4h-4z"/><path class="cls-19" d="M324 96h4v4h-4z"/><path class="cls-20" d="M328 96h4v4h-4z"/><path class="cls-21" d="M328 92h4v4h-4z"/><path class="cls-18" d="M320 100h4v4h-4z"/><path class="cls-21" d="M324 100h4v4h-4zM316 100h4v4h-4z"/><path class="cls-18" d="M328 100h4v4h-4z"/><path class="cls-19" d="M308 216h4v4h-4z"/><path class="cls-20" d="M312 216h4v4h-4z"/><path class="cls-21" d="M312 212h4v4h-4z"/><path class="cls-18" d="M316 212h4v4h-4z"/><path class="cls-19" d="M316 216h4v4h-4z"/><path class="cls-18" d="M324 212h4v4h-4z"/><path class="cls-19" d="M324 216h4v4h-4z"/><path class="cls-20" d="M320 216h4v4h-4zM328 216h4v4h-4z"/><path class="cls-21" d="M320 212h4v4h-4z"/><path class="cls-18" d="M308 220h4v4h-4z"/><path class="cls-19" d="M308 224h4v4h-4z"/><path class="cls-20" d="M312 224h4v4h-4z"/><path class="cls-21" d="M312 220h4v4h-4z"/><path class="cls-18" d="M316 220h4v4h-4z"/><path class="cls-19" d="M316 224h4v4h-4z"/><path class="cls-20" d="M320 224h4v4h-4z"/><path class="cls-21" d="M320 220h4v4h-4z"/><path class="cls-18" d="M324 220h4v4h-4z"/><path class="cls-19" d="M324 224h4v4h-4z"/><path class="cls-20" d="M328 224h4v4h-4z"/><path class="cls-21" d="M328 220h4v4h-4z"/><path class="cls-18" d="M320 228h4v4h-4z"/><path class="cls-21" d="M324 228h4v4h-4z"/><path class="cls-18" d="M328 228h4v4h-4zM308 228h4v4h-4z"/><path class="cls-19" d="M308 344h4v4h-4z"/><path class="cls-20" d="M312 344h4v4h-4z"/><path class="cls-21" d="M312 340h4v4h-4z"/><path class="cls-18" d="M316 340h4v4h-4z"/><path class="cls-19" d="M316 344h4v4h-4z"/><path class="cls-18" d="M324 340h4v4h-4z"/><path class="cls-19" d="M324 344h4v4h-4z"/><path class="cls-20" d="M320 344h4v4h-4zM328 344h4v4h-4z"/><path class="cls-21" d="M320 340h4v4h-4z"/><path class="cls-18" d="M308 348h4v4h-4z"/><path class="cls-19" d="M308 352h4v4h-4z"/><path class="cls-20" d="M312 352h4v4h-4z"/><path class="cls-21" d="M312 348h4v4h-4z"/><path class="cls-18" d="M316 348h4v4h-4z"/><path class="cls-19" d="M316 352h4v4h-4z"/><path class="cls-20" d="M320 352h4v4h-4z"/><path class="cls-21" d="M320 348h4v4h-4z"/><path class="cls-18" d="M324 348h4v4h-4z"/><path class="cls-19" d="M324 352h4v4h-4z"/><path class="cls-20" d="M328 352h4v4h-4z"/><path class="cls-21" d="M328 348h4v4h-4zM312 356h4v4h-4z"/><path class="cls-18" d="M328 356h4v4h-4zM308 356h4v4h-4zM316 356h4v4h-4z"/><path class="cls-19" d="M308 472h4v4h-4z"/><path class="cls-20" d="M312 472h4v4h-4z"/><path class="cls-21" d="M312 468h4v4h-4z"/><path class="cls-18" d="M316 468h4v4h-4z"/><path class="cls-19" d="M316 472h4v4h-4z"/><path class="cls-18" d="M324 468h4v4h-4z"/><path class="cls-19" d="M324 472h4v4h-4z"/><path class="cls-20" d="M320 472h4v4h-4zM328 472h4v4h-4z"/><path class="cls-21" d="M320 468h4v4h-4z"/><path class="cls-18" d="M308 476h4v4h-4z"/><path class="cls-19" d="M308 480h4v4h-4z"/><path class="cls-20" d="M312 480h4v4h-4z"/><path class="cls-21" d="M312 476h4v4h-4z"/><path class="cls-18" d="M316 476h4v4h-4z"/><path class="cls-19" d="M316 480h4v4h-4z"/><path class="cls-20" d="M320 480h4v4h-4z"/><path class="cls-21" d="M320 476h4v4h-4z"/><path class="cls-18" d="M324 476h4v4h-4z"/><path class="cls-19" d="M324 480h4v4h-4z"/><path class="cls-20" d="M328 480h4v4h-4z"/><path class="cls-21" d="M328 476h4v4h-4zM324 484h4v4h-4z"/><path class="cls-18" d="M328 484h4v4h-4zM308 484h4v4h-4zM320 484h4v4h-4z"/><path class="cls-19" d="M52 344h4v4h-4z"/><path class="cls-20" d="M56 344h4v4h-4z"/><path class="cls-21" d="M56 340h4v4h-4z"/><path class="cls-18" d="M60 340h4v4h-4z"/><path class="cls-19" d="M60 344h4v4h-4z"/><path class="cls-18" d="M68 340h4v4h-4z"/><path class="cls-19" d="M68 344h4v4h-4z"/><path class="cls-20" d="M64 344h4v4h-4zM72 344h4v4h-4z"/><path class="cls-21" d="M64 340h4v4h-4z"/><path class="cls-18" d="M52 348h4v4h-4z"/><path class="cls-19" d="M52 352h4v4h-4z"/><path class="cls-20" d="M56 352h4v4h-4z"/><path class="cls-21" d="M56 348h4v4h-4z"/><path class="cls-18" d="M60 348h4v4h-4z"/><path class="cls-19" d="M60 352h4v4h-4z"/><path class="cls-20" d="M64 352h4v4h-4z"/><path class="cls-21" d="M64 348h4v4h-4z"/><path class="cls-18" d="M68 348h4v4h-4z"/><path class="cls-19" d="M68 352h4v4h-4z"/><path class="cls-20" d="M72 352h4v4h-4z"/><path class="cls-21" d="M72 348h4v4h-4z"/><path class="cls-18" d="M64 356h4v4h-4z"/><path class="cls-21" d="M68 356h4v4h-4zM52 356h4v4h-4z"/><path class="cls-18" d="M72 356h4v4h-4z"/><path class="cls-19" d="M52 472h4v4h-4z"/><path class="cls-20" d="M56 472h4v4h-4z"/><path class="cls-21" d="M56 468h4v4h-4z"/><path class="cls-18" d="M60 468h4v4h-4z"/><path class="cls-19" d="M60 472h4v4h-4z"/><path class="cls-18" d="M68 468h4v4h-4z"/><path class="cls-19" d="M68 472h4v4h-4z"/><path class="cls-20" d="M64 472h4v4h-4zM72 472h4v4h-4z"/><path class="cls-21" d="M64 468h4v4h-4z"/><path class="cls-18" d="M52 476h4v4h-4z"/><path class="cls-19" d="M52 480h4v4h-4z"/><path class="cls-20" d="M56 480h4v4h-4z"/><path class="cls-21" d="M56 476h4v4h-4z"/><path class="cls-18" d="M60 476h4v4h-4z"/><path class="cls-19" d="M60 480h4v4h-4z"/><path class="cls-20" d="M64 480h4v4h-4z"/><path class="cls-21" d="M64 476h4v4h-4z"/><path class="cls-18" d="M68 476h4v4h-4z"/><path class="cls-19" d="M68 480h4v4h-4z"/><path class="cls-20" d="M72 480h4v4h-4z"/><path class="cls-21" d="M72 476h4v4h-4z"/><path class="cls-18" d="M52 484h4v4h-4z"/><path class="cls-21" d="M56 484h4v4h-4z"/><path class="cls-18" d="M60 484h4v4h-4z"/><path class="cls-21" d="M72 484h4v4h-4z"/><path class="cls-20" d="M188 222h4v4h-4z"/><path class="cls-21" d="M188 218h4v4h-4z"/><path class="cls-18" d="M192 218h4v4h-4z"/><path class="cls-19" d="M192 222h4v4h-4z"/><path class="cls-20" d="M196 222h4v4h-4z"/><path class="cls-21" d="M196 218h4v4h-4z"/><path class="cls-18" d="M200 218h4v4h-4z"/><path class="cls-19" d="M200 222h4v4h-4z"/><path class="cls-20" d="M204 222h4v4h-4z"/><path class="cls-21" d="M204 218h4v4h-4z"/><path class="cls-18" d="M208 218h4v4h-4z"/><path class="cls-19" d="M208 222h4v4h-4z"/><path class="cls-20" d="M212 222h4v4h-4z"/><path class="cls-19" d="M168 230h4v2h-4z"/><path class="cls-20" d="M172 230h4v2h-4z"/><path class="cls-19" d="M176 230h4v2h-4z"/><path class="cls-20" d="M180 230h4v2h-4z"/><path class="cls-19" d="M184 230h4v2h-4z"/><path class="cls-20" d="M188 230h4v2h-4z"/><path class="cls-19" d="M192 230h4v2h-4z"/><path class="cls-20" d="M196 230h4v2h-4z"/><path class="cls-19" d="M200 230h4v2h-4z"/><path class="cls-20" d="M204 230h4v2h-4z"/><path class="cls-19" d="M208 230h4v2h-4z"/><path class="cls-20" d="M212 230h4v2h-4z"/><path class="cls-21" d="M212 218h4v4h-4z"/><path class="cls-18" d="M168 226h4v4h-4z"/><path class="cls-21" d="M172 226h4v4h-4z"/><path class="cls-18" d="M176 226h4v4h-4z"/><path class="cls-21" d="M180 226h4v4h-4z"/><path class="cls-18" d="M184 226h4v4h-4z"/><path class="cls-21" d="M188 226h4v4h-4z"/><path class="cls-18" d="M192 226h4v4h-4z"/><path class="cls-21" d="M196 226h4v4h-4z"/><path class="cls-18" d="M200 226h4v4h-4z"/><path class="cls-21" d="M204 226h4v4h-4z"/><path class="cls-18" d="M208 226h4v4h-4z"/><path class="cls-21" d="M212 226h4v4h-4z"/><path class="cls-18" d="M216 218h4v4h-4z"/><path class="cls-21" d="M220 218h4v4h-4z"/><path class="cls-18" d="M200 210h4v4h-4z"/><path class="cls-19" d="M200 214h4v4h-4z"/><path class="cls-20" d="M204 214h4v4h-4z"/><path class="cls-21" d="M204 210h4v4h-4z"/><path class="cls-18" d="M208 210h4v4h-4z"/><path class="cls-19" d="M208 214h4v4h-4z"/><path class="cls-20" d="M212 214h4v4h-4z"/><path class="cls-21" d="M212 210h4v4h-4z"/><path class="cls-18" d="M216 210h4v4h-4z"/><path class="cls-19" d="M216 214h4v4h-4z"/><path class="cls-20" d="M220 214h4v4h-4z"/><path class="cls-21" d="M220 210h4v4h-4z"/><path class="cls-18" d="M160 458h4v4h-4z"/><path class="cls-19" d="M160 462h4v4h-4z"/><path class="cls-20" d="M164 462h4v4h-4z"/><path class="cls-21" d="M164 458h4v4h-4z"/><path class="cls-18" d="M216 458h4v4h-4z"/><path class="cls-19" d="M216 462h4v4h-4z"/><path class="cls-20" d="M220 462h4v4h-4z"/><path class="cls-21" d="M220 458h4v4h-4z"/><path class="cls-18" d="M160 466h4v4h-4z"/><path class="cls-19" d="M160 470h4v4h-4z"/><path class="cls-20" d="M164 470h4v4h-4z"/><path class="cls-21" d="M164 466h4v4h-4z"/><path class="cls-18" d="M168 466h4v4h-4z"/><path class="cls-19" d="M168 470h4v4h-4z"/><path class="cls-20" d="M172 470h4v4h-4z"/><path class="cls-21" d="M172 466h4v4h-4z"/><path class="cls-18" d="M176 466h4v4h-4z"/><path class="cls-19" d="M176 470h4v4h-4z"/><path class="cls-20" d="M180 470h4v4h-4z"/><path class="cls-21" d="M180 466h4v4h-4z"/><path class="cls-18" d="M160 474h4v4h-4z"/><path class="cls-19" d="M160 478h4v2h-4z"/><path class="cls-20" d="M164 478h4v2h-4z"/><path class="cls-19" d="M216 478h4v2h-4z"/><path class="cls-20" d="M220 478h4v2h-4z"/><path class="cls-21" d="M164 474h4v4h-4z"/><path class="cls-18" d="M168 474h4v4h-4z"/><path class="cls-19" d="M168 478h4v4h-4z"/><path class="cls-20" d="M172 478h4v4h-4z"/><path class="cls-21" d="M172 474h4v4h-4z"/><path class="cls-18" d="M176 474h4v4h-4z"/><path class="cls-19" d="M176 478h4v4h-4z"/><path class="cls-20" d="M180 478h4v4h-4z"/><path class="cls-21" d="M180 474h4v4h-4z"/><path class="cls-18" d="M184 474h4v4h-4z"/><path class="cls-19" d="M184 478h4v4h-4z"/><path class="cls-20" d="M188 478h4v4h-4z"/><path class="cls-21" d="M188 474h4v4h-4z"/><path class="cls-18" d="M192 474h4v4h-4z"/><path class="cls-19" d="M192 478h4v4h-4z"/><path class="cls-20" d="M196 478h4v4h-4z"/><path class="cls-21" d="M196 474h4v4h-4z"/><path class="cls-18" d="M200 474h4v4h-4z"/><path class="cls-19" d="M200 478h4v4h-4z"/><path class="cls-20" d="M204 478h4v4h-4z"/><path class="cls-21" d="M204 474h4v4h-4z"/><path class="cls-18" d="M208 474h4v4h-4z"/><path class="cls-19" d="M208 478h4v4h-4z"/><path class="cls-20" d="M212 478h4v4h-4z"/><path class="cls-19" d="M168 486h4v2h-4z"/><path class="cls-20" d="M172 486h4v2h-4z"/><path class="cls-19" d="M176 486h4v2h-4z"/><path class="cls-20" d="M180 486h4v2h-4z"/><path class="cls-19" d="M184 486h4v2h-4z"/><path class="cls-20" d="M188 486h4v2h-4z"/><path class="cls-19" d="M192 486h4v2h-4z"/><path class="cls-20" d="M196 486h4v2h-4z"/><path class="cls-19" d="M200 486h4v2h-4z"/><path class="cls-20" d="M204 486h4v2h-4z"/><path class="cls-19" d="M208 486h4v2h-4z"/><path class="cls-20" d="M212 486h4v2h-4z"/><path class="cls-21" d="M212 474h4v4h-4z"/><path class="cls-18" d="M168 482h4v4h-4z"/><path class="cls-21" d="M172 482h4v4h-4z"/><path class="cls-18" d="M176 482h4v4h-4z"/><path class="cls-21" d="M180 482h4v4h-4z"/><path class="cls-18" d="M184 482h4v4h-4z"/><path class="cls-21" d="M188 482h4v4h-4z"/><path class="cls-18" d="M192 482h4v4h-4z"/><path class="cls-21" d="M196 482h4v4h-4z"/><path class="cls-18" d="M200 482h4v4h-4z"/><path class="cls-21" d="M204 482h4v4h-4z"/><path class="cls-18" d="M208 482h4v4h-4z"/><path class="cls-21" d="M212 482h4v4h-4z"/><path class="cls-18" d="M216 474h4v4h-4z"/><path class="cls-21" d="M220 474h4v4h-4z"/><path class="cls-18" d="M200 466h4v4h-4z"/><path class="cls-19" d="M200 470h4v4h-4z"/><path class="cls-20" d="M204 470h4v4h-4z"/><path class="cls-21" d="M204 466h4v4h-4z"/><path class="cls-18" d="M208 466h4v4h-4z"/><path class="cls-19" d="M208 470h4v4h-4z"/><path class="cls-20" d="M212 470h4v4h-4z"/><path class="cls-21" d="M212 466h4v4h-4z"/><path class="cls-18" d="M216 466h4v4h-4z"/><path class="cls-19" d="M216 470h4v4h-4z"/><path class="cls-20" d="M220 470h4v4h-4z"/><path class="cls-21" d="M220 466h4v4h-4z"/></g></g></svg>