<svg xmlns="http://www.w3.org/2000/svg" width="512" height="512" viewBox="0 0 512 512"><defs><style>.cls-1{fill:#9a4f35}.cls-2{fill:#bfbfbf;opacity:0}.cls-3{fill:#995039}.cls-4{fill:#252525}.cls-5{fill:#258927}.cls-6{fill:#ffcbc9}.cls-7{fill:#fff}.cls-8{fill:#664c22}.cls-9{fill:#ef5125}.cls-10{fill:#95eecd}.cls-11{fill:#683d00}.cls-12{fill:#b7e23c}</style></defs><title>jacob-spritesheet</title><g id="Layer_2" data-name="Layer 2"><g id="ALIGNMENT-LAYER"><path id="shoe" class="cls-1" d="M336 364h8v8l-8 8h-8v-8l8-8z"/><path id="shoe-2" data-name="shoe" class="cls-1" d="M52 364h-8v8l8 8h8v-8l-8-8z"/><path id="BOTTOM-RIGHT-SPACER" class="cls-2" transform="rotate(-180 448 448)" d="M384 384h128v128H384z"/><path id="TOP-LEFT-SPACER" class="cls-2" d="M0 0h128v128H0z"/></g><g id="CHARACTER-LAYER"><path id="shoe-3" data-name="shoe" class="cls-1" d="M336 108h8v8l-8 8h-8v-8l8-8z"/><path id="shoe-4" data-name="shoe" class="cls-1" d="M310 116v8h-8l-8-8v-8h8l8 8z"/><path class="cls-3" d="M168 244h16v8h-16zM200 244h16v8h-16z"/><path class="cls-4" d="M168 232v12h16v-8h16v8h16v-12h-48z"/><path class="cls-5" d="M216 200h-56v24h8v8h48v-8h8v-24h-8z"/><path class="cls-6" d="M160 224h8v8h-8zM216 224h8v8h-8zM208 148v-8h-32v8h-16v52h64v-52h-16zM224 172h10v16h-10zM150 172h10v16h-10z"/><path class="cls-7" d="M168 172h8v8h-8zM208 172h8v8h-8z"/><path class="cls-8" d="M208 188v8h-8v-8h-16v8h-8v-8h-16v16h8v8h8v8h32v-8h8v-8h8v-16h-16z"/><path d="M200 164v8h-16v-8h-24v24h24v-8h16v8h24v-24zm-32 16v-8h8v8zm48 0h-8v-8h8z"/><path class="cls-8" d="M160 148h8v16h-8zM216 148h8v16h-8zM168 140h8v8h-8zM208 140h8v8h-8zM176 132v8h8v8h16v-8h8v-8h-32z"/><path class="cls-3" d="M424 244h16v8h-16zM456 244h16v8h-16z"/><path class="cls-4" d="M424 232v12h16v-8h16v8h16v-12h-48z"/><path class="cls-6" d="M416 224h8v8h-8zM472 224h8v8h-8zM464 148v-8h-32v8h-16v52h64v-52h-16z"/><path class="cls-3" d="M168 500h16v8h-16zM200 500h16v8h-16z"/><path class="cls-4" d="M168 488v12h16v-8h16v8h16v-12h-48z"/><path class="cls-5" d="M216 456h-56v24h8v8h48v-8h8v-24h-8z"/><path class="cls-6" d="M160 480h8v8h-8zM216 480h8v8h-8zM208 404v-8h-32v8h-16v52h64v-52h-16zM224 428h10v16h-10zM150 428h10v16h-10z"/><path class="cls-7" d="M168 428h8v8h-8zM208 428h8v8h-8z"/><path class="cls-8" d="M208 444v8h-8v-8h-16v8h-8v-8h-16v16h8v8h8v8h32v-8h8v-8h8v-16h-16z"/><path d="M200 420v8h-16v-8h-24v24h24v-8h16v8h24v-24zm-32 16v-8h8v8zm48 0h-8v-8h8z"/><path class="cls-8" d="M160 404h8v16h-8zM216 404h8v16h-8zM168 396h8v8h-8zM208 396h8v8h-8zM176 388v8h8v8h16v-8h8v-8h-32z"/><path class="cls-3" d="M168 368h16v4h-16zM200 372h16v8h-16z"/><path class="cls-4" d="M168 360v8h16v-4h16v8h16v-12h-48z"/><path class="cls-5" d="M216 328h-56v24h8v8h48v-8h8v-24h-8z"/><path class="cls-6" d="M160 352h12v12h-12zM216 352h4v4h-4zM208 282v-8h-32v8h-16v52h64v-52h-16zM224 306h10v16h-10zM150 306h10v16h-10z"/><path class="cls-7" d="M168 306h8v8h-8zM208 306h8v8h-8z"/><path class="cls-8" d="M208 322v8h-8v-8h-16v8h-8v-8h-16v16h8v8h8v8h32v-8h8v-8h8v-16h-16z"/><path d="M200 298v8h-16v-8h-24v24h24v-8h16v8h24v-24zm-32 16v-8h8v8zm48 0h-8v-8h8z"/><path class="cls-8" d="M160 282h8v16h-8zM216 282h8v16h-8zM168 274h8v8h-8zM208 274h8v8h-8zM176 266v8h8v8h16v-8h8v-8h-32z"/><path class="cls-3" transform="rotate(-180 208 114)" d="M200 112h16v4h-16z"/><path class="cls-3" transform="rotate(-180 176 120)" d="M168 116h16v8h-16z"/><path class="cls-4" d="M216 104v8h-16v-4h-16v8h-16v-12h48z"/><path class="cls-5" d="M168 72h56v24h-8v8h-48v-8h-8V72h8z"/><path class="cls-6" transform="rotate(-180 218 102)" d="M212 96h12v12h-12z"/><path class="cls-6" transform="rotate(-180 166 98)" d="M164 96h4v4h-4z"/><path class="cls-6" d="M176 26v-8h32v8h16v52h-64V26h16z"/><path class="cls-6" transform="rotate(-180 155 58)" d="M150 50h10v16h-10z"/><path class="cls-6" transform="rotate(-180 229 58)" d="M224 50h10v16h-10z"/><path class="cls-7" transform="rotate(-180 212 54)" d="M208 50h8v8h-8z"/><path class="cls-7" transform="rotate(-180 172 54)" d="M168 50h8v8h-8z"/><path class="cls-8" d="M176 66v8h8v-8h16v8h8v-8h16v16h-8v8h-8v8h-32v-8h-8v-8h-8V66h16z"/><path d="M160 42v24h24v-8h16v8h24V42h-24v8h-16v-8zm48 16v-8h8v8zm-40-8h8v8h-8z"/><path class="cls-8" transform="rotate(-180 220 34)" d="M216 26h8v16h-8z"/><path class="cls-8" transform="rotate(-180 164 34)" d="M160 26h8v16h-8z"/><path class="cls-8" transform="rotate(-180 212 22)" d="M208 18h8v8h-8z"/><path class="cls-8" transform="rotate(-180 172 22)" d="M168 18h8v8h-8z"/><path class="cls-8" d="M208 10v8h-8v8h-16v-8h-8v-8h32z"/><path class="cls-3" d="M308 244h28v8h-28z"/><path class="cls-4" d="M302 232h26v12h-26z"/><path class="cls-5" d="M328 206v-8h-26v34h26v-4h6v-22h-6z"/><path class="cls-6" d="M312 228h8v8h-8zM326 190h16v8h8v-16h-24v8z"/><path d="M350 166v8h-24v8h24v8h8v-24h-8z"/><path class="cls-8" d="M350 190v8h-8v-8h-16v-32h-8v-8h8v-8h16v-8h-32v8h-8v8h-8v8h-8v32h8v8h32v8h8v16h16v-8h8v-24zm-40 0v-16h8v16z"/><path class="cls-8" d="M342 142h8v8h-8z"/><path class="cls-6" d="M342 150v-8h-16v8h-8v8h8v16h24v-24h-8zM310 174h8v16h-8z"/><path class="cls-3" d="M308 500h28v8h-28z"/><path class="cls-4" d="M302 488h26v12h-26z"/><path class="cls-5" d="M328 462v-8h-26v34h26v-4h6v-22h-6z"/><path class="cls-6" d="M312 484h8v8h-8zM326 446h16v8h8v-16h-24v8z"/><path d="M350 422v8h-24v8h24v8h8v-24h-8z"/><path class="cls-8" d="M350 446v8h-8v-8h-16v-32h-8v-8h8v-8h16v-8h-32v8h-8v8h-8v8h-8v32h8v8h32v8h8v16h16v-8h8v-24zm-40 0v-16h8v16z"/><path class="cls-8" d="M342 398h8v8h-8z"/><path class="cls-6" d="M342 406v-8h-16v8h-8v8h8v16h24v-24h-8zM310 430h8v16h-8z"/><path class="cls-4" d="M302 104h26v12h-26z"/><path class="cls-5" d="M328 78v-8h-26v34h26v-4h6V78h-6z"/><path class="cls-6" d="M302 100h8v8h-8zM326 68h16v8h8V60h-24v8z"/><path d="M350 44v8h-24v8h24v8h8V44h-8z"/><path class="cls-8" d="M350 68v8h-8v-8h-16V36h-8v-8h8v-8h16v-8h-32v8h-8v8h-8v8h-8v32h8v8h32v8h8v16h16v-8h8V68zm-40 0V52h8v16z"/><path class="cls-8" d="M342 20h8v8h-8z"/><path class="cls-6" d="M342 28v-8h-16v8h-8v8h8v16h24V28h-8zM310 52h8v16h-8z"/><path id="shoe-5" data-name="shoe" class="cls-1" d="M336 364h8v8l-8 8h-8v-8l8-8z"/><path class="cls-4" d="M302 360h26v12h-26z"/><path class="cls-5" d="M328 334v-8h-26v34h26v-4h6v-22h-6z"/><path class="cls-6" d="M320 356h8v8h-8zM326 324h16v8h8v-16h-24v8z"/><path d="M350 300v8h-24v8h24v8h8v-24h-8z"/><path class="cls-8" d="M350 324v8h-8v-8h-16v-32h-8v-8h8v-8h16v-8h-32v8h-8v8h-8v8h-8v32h8v8h32v8h8v16h16v-8h8v-24zm-40 0v-16h8v16z"/><path class="cls-8" d="M342 276h8v8h-8z"/><path class="cls-6" d="M342 284v-8h-16v8h-8v8h8v16h24v-24h-8zM310 308h8v16h-8z"/><path id="shoe-6" data-name="shoe" class="cls-1" d="M310 372v8h-8l-8-8v-8h8l8 8z"/><path id="shoe-7" data-name="shoe" class="cls-1" d="M52 108h-8v8l8 8h8v-8l-8-8z"/><path id="shoe-8" data-name="shoe" class="cls-1" d="M78 116v8h8l8-8v-8h-8l-8 8z"/><path class="cls-3" transform="rotate(-180 66 248)" d="M52 244h28v8H52z"/><path class="cls-4" transform="rotate(-180 73 238)" d="M60 232h26v12H60z"/><path class="cls-5" d="M60 206v-8h26v34H60v-4h-6v-22h6z"/><path class="cls-6" transform="rotate(-180 72 232)" d="M68 228h8v8h-8z"/><path class="cls-6" d="M62 190H46v8h-8v-16h24v8z"/><path d="M38 166v8h24v8H38v8h-8v-24h8z"/><path class="cls-8" d="M30 190v24h8v8h16v-16h8v-8h32v-8h8v-32h-8v-8h-8v-8h-8v-8H46v8h16v8h8v8h-8v32H46v8h-8v-8zm40 0v-16h8v16z"/><path class="cls-8" d="M38 142h8v8h-8z"/><path class="cls-6" d="M46 150v-8h16v8h8v8h-8v16H38v-24h8z"/><path class="cls-6" transform="rotate(-180 74 182)" d="M70 174h8v16h-8z"/><path class="cls-3" transform="rotate(-180 66 504)" d="M52 500h28v8H52z"/><path class="cls-4" transform="rotate(-180 73 494)" d="M60 488h26v12H60z"/><path class="cls-5" d="M60 462v-8h26v34H60v-4h-6v-22h6z"/><path class="cls-6" transform="rotate(-180 72 488)" d="M68 484h8v8h-8z"/><path class="cls-6" d="M62 446H46v8h-8v-16h24v8z"/><path d="M38 422v8h24v8H38v8h-8v-24h8z"/><path class="cls-8" d="M30 446v24h8v8h16v-16h8v-8h32v-8h8v-32h-8v-8h-8v-8h-8v-8H46v8h16v8h8v8h-8v32H46v8h-8v-8zm40 0v-16h8v16z"/><path class="cls-8" d="M38 398h8v8h-8z"/><path class="cls-6" d="M46 406v-8h16v8h8v8h-8v16H38v-24h8z"/><path class="cls-6" transform="rotate(-180 74 438)" d="M70 430h8v16h-8z"/><path class="cls-4" transform="rotate(-180 73 110)" d="M60 104h26v12H60z"/><path class="cls-5" d="M60 78v-8h26v34H60v-4h-6V78h6z"/><path class="cls-6" transform="rotate(-180 82 104)" d="M78 100h8v8h-8z"/><path class="cls-6" d="M62 68H46v8h-8V60h24v8z"/><path d="M38 44v8h24v8H38v8h-8V44h8z"/><path class="cls-8" d="M30 68v24h8v8h16V84h8v-8h32v-8h8V36h-8v-8h-8v-8h-8v-8H46v8h16v8h8v8h-8v32H46v8h-8v-8zm40 0V52h8v16z"/><path class="cls-8" d="M38 20h8v8h-8z"/><path class="cls-6" d="M46 28v-8h16v8h8v8h-8v16H38V28h8z"/><path class="cls-6" transform="rotate(-180 74 60)" d="M70 52h8v16h-8z"/><path id="shoe-9" data-name="shoe" class="cls-1" d="M52 364h-8v8l8 8h8v-8l-8-8z"/><path class="cls-4" transform="rotate(-180 73 366)" d="M60 360h26v12H60z"/><path class="cls-5" d="M60 334v-8h26v34H60v-4h-6v-22h6z"/><path class="cls-6" transform="rotate(-180 64 360)" d="M60 356h8v8h-8z"/><path class="cls-6" d="M62 324H46v8h-8v-16h24v8z"/><path d="M38 300v8h24v8H38v8h-8v-24h8z"/><path class="cls-8" d="M30 324v24h8v8h16v-16h8v-8h32v-8h8v-32h-8v-8h-8v-8h-8v-8H46v8h16v8h8v8h-8v32H46v8h-8v-8zm40 0v-16h8v16z"/><path class="cls-8" d="M38 276h8v8h-8z"/><path class="cls-6" d="M46 284v-8h16v8h8v8h-8v16H38v-24h8z"/><path class="cls-6" transform="rotate(-180 74 316)" d="M70 308h8v16h-8z"/><path id="shoe-10" data-name="shoe" class="cls-1" d="M78 372v8h8l8-8v-8h-8l-8 8z"/><path class="cls-6" d="M480 172h10v16h-10zM406 172h10v16h-10z"/><path class="cls-8" d="M472 148v-8h-8v-8h-32v8h-8v8h-8v52h8v-4h48v4h8v-52h-8z"/><path class="cls-7" d="M472 200v-4h-48v4h-8v24h8v8h48v-8h8v-24h-8z"/><path class="cls-3" d="M424 500h16v8h-16zM456 500h16v8h-16z"/><path class="cls-4" d="M424 488v12h16v-8h16v8h16v-12h-48z"/><path class="cls-6" d="M416 480h8v8h-8zM472 480h8v8h-8zM464 404v-8h-32v8h-16v52h64v-52h-16zM480 428h10v16h-10zM406 428h10v16h-10z"/><path class="cls-8" d="M472 404v-8h-8v-8h-32v8h-8v8h-8v52h8v-4h48v4h8v-52h-8z"/><path class="cls-7" d="M472 456v-4h-48v4h-8v24h8v8h48v-8h8v-24h-8z"/><path class="cls-3" d="M424 112h16v4h-16zM456 116h16v8h-16z"/><path class="cls-4" d="M424 104v8h16v-4h16v8h16v-12h-48z"/><path class="cls-6" d="M472 86h4v4h-4z"/><path class="cls-7" d="M472 72v-4h-48v4h-8v24h8v8h48V86h8V72h-8z"/><path class="cls-6" d="M480 50h10v16h-10zM406 50h10v16h-10z"/><path class="cls-8" d="M472 26v-8h-8v-8h-32v8h-8v8h-8v52h8v-4h48v4h8V26h-8z"/><path class="cls-6" d="M416 96h12v12h-12z"/><path class="cls-3" transform="rotate(-180 464 370)" d="M456 368h16v4h-16z"/><path class="cls-3" transform="rotate(-180 432 376)" d="M424 372h16v8h-16z"/><path class="cls-4" d="M472 360v8h-16v-4h-16v8h-16v-12h48z"/><path class="cls-6" transform="rotate(-180 422 344)" d="M420 342h4v4h-4z"/><path class="cls-7" d="M424 328v-4h48v4h8v24h-8v8h-48v-18h-8v-14h8z"/><path class="cls-6" transform="rotate(-180 411 314)" d="M406 306h10v16h-10z"/><path class="cls-6" transform="rotate(-180 485 314)" d="M480 306h10v16h-10z"/><path class="cls-8" d="M424 282v-8h8v-8h32v8h8v8h8v52h-8v-4h-48v4h-8v-52h8z"/><path class="cls-6" transform="rotate(-180 474 358)" d="M468 352h12v12h-12z"/></g><g id="PLAID-LAYER"><path class="cls-9" d="M62 76h4v4h-4z"/><path class="cls-10" d="M62 80h4v4h-4z"/><path class="cls-11" d="M66 80h4v4h-4z"/><path class="cls-12" d="M66 76h4v4h-4z"/><path class="cls-9" d="M70 76h4v4h-4z"/><path class="cls-10" d="M70 80h4v4h-4z"/><path class="cls-11" d="M74 80h4v4h-4z"/><path class="cls-12" d="M74 76h4v4h-4z"/><path class="cls-9" d="M78 76h4v4h-4z"/><path class="cls-10" d="M78 80h4v4h-4z"/><path class="cls-11" d="M82 80h4v4h-4z"/><path class="cls-12" d="M82 76h4v4h-4z"/><path class="cls-9" d="M160 82h4v4h-4z"/><path class="cls-10" d="M160 86h4v4h-4z"/><path class="cls-11" d="M164 86h4v4h-4z"/><path class="cls-12" d="M164 82h4v4h-4z"/><path class="cls-9" d="M160 204h4v4h-4z"/><path class="cls-10" d="M160 208h4v4h-4z"/><path class="cls-11" d="M164 208h4v4h-4z"/><path class="cls-12" d="M164 204h4v4h-4z"/><path class="cls-9" d="M216 204h4v4h-4z"/><path class="cls-10" d="M216 208h4v4h-4z"/><path class="cls-11" d="M220 208h4v4h-4z"/><path class="cls-12" d="M220 204h4v4h-4z"/><path class="cls-9" d="M160 212h4v4h-4z"/><path class="cls-10" d="M160 216h4v4h-4z"/><path class="cls-11" d="M164 216h4v4h-4z"/><path class="cls-12" d="M164 212h4v4h-4z"/><path class="cls-9" d="M168 212h4v4h-4z"/><path class="cls-10" d="M168 216h4v4h-4z"/><path class="cls-11" d="M172 216h4v4h-4z"/><path class="cls-12" d="M172 212h4v4h-4z"/><path class="cls-9" d="M168 220h4v4h-4z"/><path class="cls-10" d="M168 224h4v4h-4z"/><path class="cls-11" d="M172 224h4v4h-4z"/><path class="cls-12" d="M172 220h4v4h-4z"/><path class="cls-9" d="M160 220h4v4h-4z"/><path class="cls-12" d="M164 220h4v4h-4z"/><path class="cls-9" d="M176 220h4v4h-4z"/><path class="cls-10" d="M176 224h4v4h-4z"/><path class="cls-11" d="M180 224h4v4h-4z"/><path class="cls-12" d="M180 220h4v4h-4z"/><path class="cls-9" d="M184 220h4v4h-4z"/><path class="cls-10" d="M184 224h4v4h-4z"/><path class="cls-11" d="M188 224h4v4h-4z"/><path class="cls-12" d="M188 220h4v4h-4z"/><path class="cls-9" d="M192 220h4v4h-4z"/><path class="cls-10" d="M192 224h4v4h-4z"/><path class="cls-11" d="M196 224h4v4h-4z"/><path class="cls-12" d="M196 220h4v4h-4z"/><path class="cls-9" d="M200 220h4v4h-4z"/><path class="cls-10" d="M200 224h4v4h-4z"/><path class="cls-11" d="M204 224h4v4h-4z"/><path class="cls-12" d="M204 220h4v4h-4z"/><path class="cls-9" d="M208 220h4v4h-4z"/><path class="cls-10" d="M208 224h4v4h-4z"/><path class="cls-11" d="M212 224h4v4h-4z"/><path class="cls-12" d="M212 220h4v4h-4z"/><path class="cls-9" d="M216 220h4v4h-4z"/><path class="cls-12" d="M220 220h4v4h-4z"/><path class="cls-9" d="M176 228h4v4h-4z"/><path class="cls-12" d="M180 228h4v4h-4z"/><path class="cls-9" d="M168 228h4v4h-4z"/><path class="cls-12" d="M172 228h4v4h-4z"/><path class="cls-9" d="M184 228h4v4h-4z"/><path class="cls-12" d="M188 228h4v4h-4z"/><path class="cls-9" d="M192 228h4v4h-4z"/><path class="cls-12" d="M196 228h4v4h-4z"/><path class="cls-9" d="M200 228h4v4h-4z"/><path class="cls-12" d="M204 228h4v4h-4z"/><path class="cls-9" d="M208 228h4v4h-4z"/><path class="cls-12" d="M212 228h4v4h-4z"/><path class="cls-9" d="M208 212h4v4h-4z"/><path class="cls-10" d="M208 216h4v4h-4z"/><path class="cls-11" d="M212 216h4v4h-4z"/><path class="cls-12" d="M212 212h4v4h-4z"/><path class="cls-9" d="M216 212h4v4h-4z"/><path class="cls-10" d="M216 216h4v4h-4z"/><path class="cls-11" d="M220 216h4v4h-4z"/><path class="cls-12" d="M220 212h4v4h-4z"/><path class="cls-9" d="M160 460h4v4h-4z"/><path class="cls-10" d="M160 464h4v4h-4z"/><path class="cls-11" d="M164 464h4v4h-4z"/><path class="cls-12" d="M164 460h4v4h-4z"/><path class="cls-9" d="M216 460h4v4h-4z"/><path class="cls-10" d="M216 464h4v4h-4z"/><path class="cls-11" d="M220 464h4v4h-4z"/><path class="cls-12" d="M220 460h4v4h-4z"/><path class="cls-9" d="M160 468h4v4h-4z"/><path class="cls-10" d="M160 472h4v4h-4z"/><path class="cls-11" d="M164 472h4v4h-4z"/><path class="cls-12" d="M164 468h4v4h-4z"/><path class="cls-9" d="M168 468h4v4h-4z"/><path class="cls-10" d="M168 472h4v4h-4z"/><path class="cls-11" d="M172 472h4v4h-4z"/><path class="cls-12" d="M172 468h4v4h-4z"/><path class="cls-9" d="M168 476h4v4h-4z"/><path class="cls-10" d="M168 480h4v4h-4z"/><path class="cls-11" d="M172 480h4v4h-4z"/><path class="cls-12" d="M172 476h4v4h-4z"/><path class="cls-9" d="M160 476h4v4h-4z"/><path class="cls-12" d="M164 476h4v4h-4z"/><path class="cls-9" d="M176 476h4v4h-4z"/><path class="cls-10" d="M176 480h4v4h-4z"/><path class="cls-11" d="M180 480h4v4h-4z"/><path class="cls-12" d="M180 476h4v4h-4z"/><path class="cls-9" d="M184 476h4v4h-4z"/><path class="cls-10" d="M184 480h4v4h-4z"/><path class="cls-11" d="M188 480h4v4h-4z"/><path class="cls-12" d="M188 476h4v4h-4z"/><path class="cls-9" d="M192 476h4v4h-4z"/><path class="cls-10" d="M192 480h4v4h-4z"/><path class="cls-11" d="M196 480h4v4h-4z"/><path class="cls-12" d="M196 476h4v4h-4z"/><path class="cls-9" d="M200 476h4v4h-4z"/><path class="cls-10" d="M200 480h4v4h-4z"/><path class="cls-11" d="M204 480h4v4h-4z"/><path class="cls-12" d="M204 476h4v4h-4z"/><path class="cls-9" d="M208 476h4v4h-4z"/><path class="cls-10" d="M208 480h4v4h-4z"/><path class="cls-11" d="M212 480h4v4h-4z"/><path class="cls-12" d="M212 476h4v4h-4z"/><path class="cls-9" d="M216 476h4v4h-4z"/><path class="cls-12" d="M220 476h4v4h-4z"/><path class="cls-9" d="M176 484h4v4h-4z"/><path class="cls-12" d="M180 484h4v4h-4z"/><path class="cls-9" d="M168 484h4v4h-4z"/><path class="cls-12" d="M172 484h4v4h-4z"/><path class="cls-9" d="M184 484h4v4h-4z"/><path class="cls-12" d="M188 484h4v4h-4z"/><path class="cls-9" d="M192 484h4v4h-4z"/><path class="cls-12" d="M196 484h4v4h-4z"/><path class="cls-9" d="M200 484h4v4h-4z"/><path class="cls-12" d="M204 484h4v4h-4z"/><path class="cls-9" d="M208 484h4v4h-4z"/><path class="cls-12" d="M212 484h4v4h-4z"/><path class="cls-9" d="M208 468h4v4h-4z"/><path class="cls-10" d="M208 472h4v4h-4z"/><path class="cls-11" d="M212 472h4v4h-4z"/><path class="cls-12" d="M212 468h4v4h-4z"/><path class="cls-9" d="M216 468h4v4h-4z"/><path class="cls-10" d="M216 472h4v4h-4z"/><path class="cls-11" d="M220 472h4v4h-4z"/><path class="cls-12" d="M220 468h4v4h-4z"/><path class="cls-9" d="M160 90h4v4h-4z"/><path class="cls-10" d="M160 94h4v2h-4z"/><path class="cls-11" d="M164 94h4v2h-4z"/><path class="cls-12" d="M164 90h4v4h-4z"/><path class="cls-9" d="M216 82h4v4h-4z"/><path class="cls-10" d="M216 86h4v4h-4z"/><path class="cls-11" d="M220 86h4v4h-4z"/><path class="cls-12" d="M220 82h4v4h-4z"/><path class="cls-9" d="M424 74h4v4h-4z"/><path class="cls-10" d="M424 78h4v4h-4z"/><path class="cls-11" d="M428 78h4v4h-4z"/><path class="cls-10" d="M416 78h4v4h-4z"/><path class="cls-11" d="M420 78h4v4h-4z"/><path class="cls-10" d="M472 78h4v4h-4z"/><path class="cls-11" d="M476 78h4v4h-4z"/><path class="cls-12" d="M428 74h4v4h-4z"/><path class="cls-9" d="M432 74h4v4h-4z"/><path class="cls-10" d="M432 78h4v4h-4z"/><path class="cls-11" d="M436 78h4v4h-4z"/><path class="cls-12" d="M436 74h4v4h-4z"/><path class="cls-9" d="M440 74h4v4h-4z"/><path class="cls-10" d="M440 78h4v4h-4z"/><path class="cls-11" d="M444 78h4v4h-4z"/><path class="cls-12" d="M444 74h4v4h-4z"/><path class="cls-9" d="M448 74h4v4h-4z"/><path class="cls-10" d="M448 78h4v4h-4z"/><path class="cls-11" d="M452 78h4v4h-4z"/><path class="cls-12" d="M452 74h4v4h-4z"/><path class="cls-9" d="M456 74h4v4h-4z"/><path class="cls-10" d="M456 78h4v4h-4z"/><path class="cls-11" d="M460 78h4v4h-4z"/><path class="cls-12" d="M460 74h4v4h-4z"/><path class="cls-9" d="M464 74h4v4h-4z"/><path class="cls-10" d="M464 78h4v4h-4z"/><path class="cls-11" d="M468 78h4v4h-4z"/><path class="cls-12" d="M468 74h4v4h-4z"/><path class="cls-9" d="M424 196h4v4h-4z"/><path class="cls-10" d="M424 200h4v4h-4z"/><path class="cls-11" d="M428 200h4v4h-4z"/><path class="cls-10" d="M416 200h4v4h-4z"/><path class="cls-11" d="M420 200h4v4h-4z"/><path class="cls-10" d="M472 200h4v4h-4z"/><path class="cls-11" d="M476 200h4v4h-4z"/><path class="cls-12" d="M428 196h4v4h-4z"/><path class="cls-9" d="M432 196h4v4h-4z"/><path class="cls-10" d="M432 200h4v4h-4z"/><path class="cls-11" d="M436 200h4v4h-4z"/><path class="cls-12" d="M436 196h4v4h-4z"/><path class="cls-9" d="M440 196h4v4h-4z"/><path class="cls-10" d="M440 200h4v4h-4z"/><path class="cls-11" d="M444 200h4v4h-4z"/><path class="cls-12" d="M444 196h4v4h-4z"/><path class="cls-9" d="M448 196h4v4h-4z"/><path class="cls-10" d="M448 200h4v4h-4z"/><path class="cls-11" d="M452 200h4v4h-4z"/><path class="cls-12" d="M452 196h4v4h-4z"/><path class="cls-9" d="M456 196h4v4h-4z"/><path class="cls-10" d="M456 200h4v4h-4z"/><path class="cls-11" d="M460 200h4v4h-4z"/><path class="cls-12" d="M460 196h4v4h-4z"/><path class="cls-9" d="M464 196h4v4h-4z"/><path class="cls-10" d="M464 200h4v4h-4z"/><path class="cls-11" d="M468 200h4v4h-4z"/><path class="cls-12" d="M468 196h4v4h-4z"/><path class="cls-9" d="M416 204h4v4h-4z"/><path class="cls-10" d="M416 208h4v4h-4z"/><path class="cls-11" d="M420 208h4v4h-4z"/><path class="cls-12" d="M420 204h4v4h-4z"/><path class="cls-9" d="M424 204h4v4h-4z"/><path class="cls-10" d="M424 208h4v4h-4z"/><path class="cls-11" d="M428 208h4v4h-4z"/><path class="cls-12" d="M428 204h4v4h-4z"/><path class="cls-9" d="M432 204h4v4h-4z"/><path class="cls-10" d="M432 208h4v4h-4z"/><path class="cls-11" d="M436 208h4v4h-4z"/><path class="cls-12" d="M436 204h4v4h-4z"/><path class="cls-9" d="M440 204h4v4h-4z"/><path class="cls-10" d="M440 208h4v4h-4z"/><path class="cls-11" d="M444 208h4v4h-4z"/><path class="cls-12" d="M444 204h4v4h-4z"/><path class="cls-9" d="M448 204h4v4h-4z"/><path class="cls-10" d="M448 208h4v4h-4z"/><path class="cls-11" d="M452 208h4v4h-4z"/><path class="cls-12" d="M452 204h4v4h-4z"/><path class="cls-9" d="M456 204h4v4h-4z"/><path class="cls-10" d="M456 208h4v4h-4z"/><path class="cls-11" d="M460 208h4v4h-4z"/><path class="cls-12" d="M460 204h4v4h-4z"/><path class="cls-9" d="M416 212h4v4h-4z"/><path class="cls-10" d="M416 216h4v4h-4z"/><path class="cls-11" d="M420 216h4v4h-4z"/><path class="cls-12" d="M420 212h4v4h-4z"/><path class="cls-9" d="M424 212h4v4h-4z"/><path class="cls-10" d="M424 216h4v4h-4z"/><path class="cls-11" d="M428 216h4v4h-4z"/><path class="cls-12" d="M428 212h4v4h-4z"/><path class="cls-9" d="M432 212h4v4h-4z"/><path class="cls-10" d="M432 216h4v4h-4z"/><path class="cls-11" d="M436 216h4v4h-4z"/><path class="cls-12" d="M436 212h4v4h-4z"/><path class="cls-9" d="M440 212h4v4h-4z"/><path class="cls-10" d="M440 216h4v4h-4z"/><path class="cls-11" d="M444 216h4v4h-4z"/><path class="cls-12" d="M444 212h4v4h-4z"/><path class="cls-9" d="M448 212h4v4h-4z"/><path class="cls-10" d="M448 216h4v4h-4z"/><path class="cls-11" d="M452 216h4v4h-4z"/><path class="cls-12" d="M452 212h4v4h-4z"/><path class="cls-9" d="M456 212h4v4h-4z"/><path class="cls-10" d="M456 216h4v4h-4z"/><path class="cls-11" d="M460 216h4v4h-4z"/><path class="cls-12" d="M460 212h4v4h-4z"/><path class="cls-9" d="M464 204h4v4h-4z"/><path class="cls-10" d="M464 208h4v4h-4z"/><path class="cls-11" d="M468 208h4v4h-4z"/><path class="cls-12" d="M468 204h4v4h-4z"/><path class="cls-9" d="M472 204h4v4h-4z"/><path class="cls-10" d="M472 208h4v4h-4z"/><path class="cls-11" d="M476 208h4v4h-4z"/><path class="cls-12" d="M476 204h4v4h-4z"/><path class="cls-9" d="M464 212h4v4h-4z"/><path class="cls-10" d="M464 216h4v4h-4z"/><path class="cls-11" d="M468 216h4v4h-4z"/><path class="cls-12" d="M468 212h4v4h-4z"/><path class="cls-9" d="M472 212h4v4h-4z"/><path class="cls-10" d="M472 216h4v4h-4z"/><path class="cls-11" d="M476 216h4v4h-4z"/><path class="cls-12" d="M476 212h4v4h-4z"/><path class="cls-9" d="M416 220h4v4h-4z"/><path class="cls-12" d="M420 220h4v4h-4z"/><path class="cls-9" d="M424 220h4v4h-4z"/><path class="cls-12" d="M428 220h4v4h-4z"/><path class="cls-9" d="M432 220h4v4h-4z"/><path class="cls-12" d="M436 220h4v4h-4z"/><path class="cls-9" d="M440 220h4v4h-4z"/><path class="cls-12" d="M444 220h4v4h-4z"/><path class="cls-9" d="M448 220h4v4h-4z"/><path class="cls-12" d="M452 220h4v4h-4z"/><path class="cls-9" d="M456 220h4v4h-4z"/><path class="cls-12" d="M460 220h4v4h-4z"/><path class="cls-9" d="M464 220h4v4h-4z"/><path class="cls-12" d="M468 220h4v4h-4z"/><path class="cls-10" d="M424 224h4v4h-4z"/><path class="cls-11" d="M428 224h4v4h-4z"/><path class="cls-10" d="M432 224h4v4h-4z"/><path class="cls-11" d="M436 224h4v4h-4z"/><path class="cls-10" d="M440 224h4v4h-4z"/><path class="cls-11" d="M444 224h4v4h-4z"/><path class="cls-10" d="M448 224h4v4h-4z"/><path class="cls-11" d="M452 224h4v4h-4z"/><path class="cls-10" d="M456 224h4v4h-4z"/><path class="cls-11" d="M460 224h4v4h-4z"/><path class="cls-10" d="M464 224h4v4h-4z"/><path class="cls-11" d="M468 224h4v4h-4z"/><path class="cls-9" d="M424 228h4v4h-4z"/><path class="cls-12" d="M428 228h4v4h-4z"/><path class="cls-9" d="M432 228h4v4h-4z"/><path class="cls-12" d="M436 228h4v4h-4z"/><path class="cls-9" d="M440 228h4v4h-4z"/><path class="cls-12" d="M444 228h4v4h-4z"/><path class="cls-9" d="M448 228h4v4h-4z"/><path class="cls-12" d="M452 228h4v4h-4z"/><path class="cls-9" d="M456 228h4v4h-4z"/><path class="cls-12" d="M460 228h4v4h-4z"/><path class="cls-9" d="M464 228h4v4h-4z"/><path class="cls-12" d="M468 228h4v4h-4z"/><path class="cls-9" d="M472 220h4v4h-4z"/><path class="cls-12" d="M476 220h4v4h-4z"/><path class="cls-9" d="M424 452h4v4h-4z"/><path class="cls-10" d="M424 456h4v4h-4z"/><path class="cls-11" d="M428 456h4v4h-4z"/><path class="cls-10" d="M416 456h4v4h-4z"/><path class="cls-11" d="M420 456h4v4h-4z"/><path class="cls-10" d="M472 456h4v4h-4z"/><path class="cls-11" d="M476 456h4v4h-4z"/><path class="cls-12" d="M428 452h4v4h-4z"/><path class="cls-9" d="M432 452h4v4h-4z"/><path class="cls-10" d="M432 456h4v4h-4z"/><path class="cls-11" d="M436 456h4v4h-4z"/><path class="cls-12" d="M436 452h4v4h-4z"/><path class="cls-9" d="M440 452h4v4h-4z"/><path class="cls-10" d="M440 456h4v4h-4z"/><path class="cls-11" d="M444 456h4v4h-4z"/><path class="cls-12" d="M444 452h4v4h-4z"/><path class="cls-9" d="M448 452h4v4h-4z"/><path class="cls-10" d="M448 456h4v4h-4z"/><path class="cls-11" d="M452 456h4v4h-4z"/><path class="cls-12" d="M452 452h4v4h-4z"/><path class="cls-9" d="M456 452h4v4h-4z"/><path class="cls-10" d="M456 456h4v4h-4z"/><path class="cls-11" d="M460 456h4v4h-4z"/><path class="cls-12" d="M460 452h4v4h-4z"/><path class="cls-9" d="M464 452h4v4h-4z"/><path class="cls-10" d="M464 456h4v4h-4z"/><path class="cls-11" d="M468 456h4v4h-4z"/><path class="cls-12" d="M468 452h4v4h-4z"/><path class="cls-9" d="M416 460h4v4h-4z"/><path class="cls-10" d="M416 464h4v4h-4z"/><path class="cls-11" d="M420 464h4v4h-4z"/><path class="cls-12" d="M420 460h4v4h-4z"/><path class="cls-9" d="M424 460h4v4h-4z"/><path class="cls-10" d="M424 464h4v4h-4z"/><path class="cls-11" d="M428 464h4v4h-4z"/><path class="cls-12" d="M428 460h4v4h-4z"/><path class="cls-9" d="M432 460h4v4h-4z"/><path class="cls-10" d="M432 464h4v4h-4z"/><path class="cls-11" d="M436 464h4v4h-4z"/><path class="cls-12" d="M436 460h4v4h-4z"/><path class="cls-9" d="M440 460h4v4h-4z"/><path class="cls-10" d="M440 464h4v4h-4z"/><path class="cls-11" d="M444 464h4v4h-4z"/><path class="cls-12" d="M444 460h4v4h-4z"/><path class="cls-9" d="M448 460h4v4h-4z"/><path class="cls-10" d="M448 464h4v4h-4z"/><path class="cls-11" d="M452 464h4v4h-4z"/><path class="cls-12" d="M452 460h4v4h-4z"/><path class="cls-9" d="M456 460h4v4h-4z"/><path class="cls-10" d="M456 464h4v4h-4z"/><path class="cls-11" d="M460 464h4v4h-4z"/><path class="cls-12" d="M460 460h4v4h-4z"/><path class="cls-9" d="M416 468h4v4h-4z"/><path class="cls-10" d="M416 472h4v4h-4z"/><path class="cls-11" d="M420 472h4v4h-4z"/><path class="cls-12" d="M420 468h4v4h-4z"/><path class="cls-9" d="M424 468h4v4h-4z"/><path class="cls-10" d="M424 472h4v4h-4z"/><path class="cls-11" d="M428 472h4v4h-4z"/><path class="cls-12" d="M428 468h4v4h-4z"/><path class="cls-9" d="M432 468h4v4h-4z"/><path class="cls-10" d="M432 472h4v4h-4z"/><path class="cls-11" d="M436 472h4v4h-4z"/><path class="cls-12" d="M436 468h4v4h-4z"/><path class="cls-9" d="M440 468h4v4h-4z"/><path class="cls-10" d="M440 472h4v4h-4z"/><path class="cls-11" d="M444 472h4v4h-4z"/><path class="cls-12" d="M444 468h4v4h-4z"/><path class="cls-9" d="M448 468h4v4h-4z"/><path class="cls-10" d="M448 472h4v4h-4z"/><path class="cls-11" d="M452 472h4v4h-4z"/><path class="cls-12" d="M452 468h4v4h-4z"/><path class="cls-9" d="M456 468h4v4h-4z"/><path class="cls-10" d="M456 472h4v4h-4z"/><path class="cls-11" d="M460 472h4v4h-4z"/><path class="cls-12" d="M460 468h4v4h-4z"/><path class="cls-9" d="M464 460h4v4h-4z"/><path class="cls-10" d="M464 464h4v4h-4z"/><path class="cls-11" d="M468 464h4v4h-4z"/><path class="cls-12" d="M468 460h4v4h-4z"/><path class="cls-9" d="M472 460h4v4h-4z"/><path class="cls-10" d="M472 464h4v4h-4z"/><path class="cls-11" d="M476 464h4v4h-4z"/><path class="cls-12" d="M476 460h4v4h-4z"/><path class="cls-9" d="M464 468h4v4h-4z"/><path class="cls-10" d="M464 472h4v4h-4z"/><path class="cls-11" d="M468 472h4v4h-4z"/><path class="cls-12" d="M468 468h4v4h-4z"/><path class="cls-9" d="M472 468h4v4h-4z"/><path class="cls-10" d="M472 472h4v4h-4z"/><path class="cls-11" d="M476 472h4v4h-4z"/><path class="cls-12" d="M476 468h4v4h-4z"/><path class="cls-9" d="M416 476h4v4h-4z"/><path class="cls-12" d="M420 476h4v4h-4z"/><path class="cls-9" d="M424 476h4v4h-4z"/><path class="cls-12" d="M428 476h4v4h-4z"/><path class="cls-9" d="M432 476h4v4h-4z"/><path class="cls-12" d="M436 476h4v4h-4z"/><path class="cls-9" d="M440 476h4v4h-4z"/><path class="cls-12" d="M444 476h4v4h-4z"/><path class="cls-9" d="M448 476h4v4h-4z"/><path class="cls-12" d="M452 476h4v4h-4z"/><path class="cls-9" d="M456 476h4v4h-4z"/><path class="cls-12" d="M460 476h4v4h-4z"/><path class="cls-9" d="M464 476h4v4h-4z"/><path class="cls-12" d="M468 476h4v4h-4z"/><path class="cls-10" d="M424 480h4v4h-4z"/><path class="cls-11" d="M428 480h4v4h-4z"/><path class="cls-10" d="M432 480h4v4h-4z"/><path class="cls-11" d="M436 480h4v4h-4z"/><path class="cls-10" d="M440 480h4v4h-4z"/><path class="cls-11" d="M444 480h4v4h-4z"/><path class="cls-10" d="M448 480h4v4h-4z"/><path class="cls-11" d="M452 480h4v4h-4z"/><path class="cls-10" d="M456 480h4v4h-4z"/><path class="cls-11" d="M460 480h4v4h-4z"/><path class="cls-10" d="M464 480h4v4h-4z"/><path class="cls-11" d="M468 480h4v4h-4z"/><path class="cls-9" d="M424 484h4v4h-4z"/><path class="cls-12" d="M428 484h4v4h-4z"/><path class="cls-9" d="M432 484h4v4h-4z"/><path class="cls-12" d="M436 484h4v4h-4z"/><path class="cls-9" d="M440 484h4v4h-4z"/><path class="cls-12" d="M444 484h4v4h-4z"/><path class="cls-9" d="M448 484h4v4h-4z"/><path class="cls-12" d="M452 484h4v4h-4z"/><path class="cls-9" d="M456 484h4v4h-4z"/><path class="cls-12" d="M460 484h4v4h-4z"/><path class="cls-9" d="M464 484h4v4h-4z"/><path class="cls-12" d="M468 484h4v4h-4z"/><path class="cls-9" d="M472 476h4v4h-4z"/><path class="cls-12" d="M476 476h4v4h-4z"/><path class="cls-9" d="M416 82h4v4h-4z"/><path class="cls-10" d="M416 86h4v4h-4z"/><path class="cls-11" d="M420 86h4v4h-4z"/><path class="cls-12" d="M420 82h4v4h-4z"/><path class="cls-9" d="M416 90h4v4h-4z"/><path class="cls-12" d="M420 90h4v4h-4z"/><path class="cls-9" d="M424 82h4v4h-4z"/><path class="cls-10" d="M424 86h4v4h-4zM416 94h4v2h-4z"/><path class="cls-11" d="M420 94h4v2h-4z"/><path class="cls-10" d="M424 94h4v2h-4zM428 102h4v2h-4z"/><path class="cls-11" d="M432 102h4v2h-4zM440 102h4v2h-4z"/><path class="cls-10" d="M436 102h4v2h-4zM444 102h4v2h-4z"/><path class="cls-11" d="M448 102h4v2h-4zM456 102h4v2h-4zM464 102h4v2h-4z"/><path class="cls-10" d="M452 102h4v2h-4zM460 102h4v2h-4zM468 102h4v2h-4z"/><path class="cls-11" d="M428 86h4v4h-4z"/><path class="cls-12" d="M428 82h4v4h-4z"/><path class="cls-9" d="M432 82h4v4h-4z"/><path class="cls-10" d="M432 86h4v4h-4z"/><path class="cls-11" d="M436 86h4v4h-4z"/><path class="cls-12" d="M436 82h4v4h-4z"/><path class="cls-9" d="M440 82h4v4h-4z"/><path class="cls-10" d="M440 86h4v4h-4z"/><path class="cls-11" d="M444 86h4v4h-4z"/><path class="cls-12" d="M444 82h4v4h-4z"/><path class="cls-9" d="M448 82h4v4h-4z"/><path class="cls-10" d="M448 86h4v4h-4z"/><path class="cls-11" d="M452 86h4v4h-4z"/><path class="cls-12" d="M452 82h4v4h-4z"/><path class="cls-9" d="M456 82h4v4h-4z"/><path class="cls-10" d="M456 86h4v4h-4z"/><path class="cls-11" d="M460 86h4v4h-4z"/><path class="cls-12" d="M460 82h4v4h-4z"/><path class="cls-9" d="M464 82h4v4h-4z"/><path class="cls-10" d="M464 86h4v4h-4z"/><path class="cls-11" d="M468 86h4v4h-4z"/><path class="cls-12" d="M468 82h4v4h-4z"/><path class="cls-9" d="M472 82h4v4h-4z"/><path class="cls-12" d="M476 82h4v4h-4z"/><path class="cls-9" d="M424 90h4v4h-4z"/><path class="cls-11" d="M428 94h4v4h-4z"/><path class="cls-12" d="M428 90h4v4h-4z"/><path class="cls-9" d="M432 90h4v4h-4z"/><path class="cls-10" d="M432 94h4v4h-4z"/><path class="cls-11" d="M436 94h4v4h-4z"/><path class="cls-12" d="M436 90h4v4h-4z"/><path class="cls-9" d="M440 90h4v4h-4z"/><path class="cls-10" d="M440 94h4v4h-4z"/><path class="cls-11" d="M444 94h4v4h-4z"/><path class="cls-12" d="M444 90h4v4h-4z"/><path class="cls-9" d="M448 90h4v4h-4z"/><path class="cls-10" d="M448 94h4v4h-4z"/><path class="cls-11" d="M452 94h4v4h-4z"/><path class="cls-12" d="M452 90h4v4h-4z"/><path class="cls-9" d="M456 90h4v4h-4z"/><path class="cls-10" d="M456 94h4v4h-4z"/><path class="cls-11" d="M460 94h4v4h-4z"/><path class="cls-12" d="M460 90h4v4h-4z"/><path class="cls-9" d="M464 90h4v4h-4z"/><path class="cls-10" d="M464 94h4v4h-4z"/><path class="cls-11" d="M468 94h4v4h-4z"/><path class="cls-12" d="M468 90h4v4h-4zM428 98h4v4h-4z"/><path class="cls-9" d="M432 98h4v4h-4z"/><path class="cls-12" d="M436 98h4v4h-4z"/><path class="cls-9" d="M440 98h4v4h-4z"/><path class="cls-12" d="M444 98h4v4h-4z"/><path class="cls-9" d="M448 98h4v4h-4z"/><path class="cls-12" d="M452 98h4v4h-4z"/><path class="cls-9" d="M456 98h4v4h-4z"/><path class="cls-12" d="M460 98h4v4h-4z"/><path class="cls-9" d="M464 98h4v4h-4z"/><path class="cls-12" d="M468 98h4v4h-4z"/><path class="cls-9" d="M424 330h4v4h-4z"/><path class="cls-10" d="M424 334h4v4h-4z"/><path class="cls-11" d="M428 334h4v4h-4z"/><path class="cls-10" d="M416 334h4v4h-4z"/><path class="cls-11" d="M420 334h4v4h-4z"/><path class="cls-10" d="M472 334h4v4h-4z"/><path class="cls-11" d="M476 334h4v4h-4z"/><path class="cls-12" d="M428 330h4v4h-4z"/><path class="cls-9" d="M432 330h4v4h-4z"/><path class="cls-10" d="M432 334h4v4h-4z"/><path class="cls-11" d="M436 334h4v4h-4z"/><path class="cls-12" d="M436 330h4v4h-4z"/><path class="cls-9" d="M440 330h4v4h-4z"/><path class="cls-10" d="M440 334h4v4h-4z"/><path class="cls-11" d="M444 334h4v4h-4z"/><path class="cls-12" d="M444 330h4v4h-4z"/><path class="cls-9" d="M448 330h4v4h-4z"/><path class="cls-10" d="M448 334h4v4h-4z"/><path class="cls-11" d="M452 334h4v4h-4z"/><path class="cls-12" d="M452 330h4v4h-4z"/><path class="cls-9" d="M456 330h4v4h-4z"/><path class="cls-10" d="M456 334h4v4h-4z"/><path class="cls-11" d="M460 334h4v4h-4z"/><path class="cls-12" d="M460 330h4v4h-4z"/><path class="cls-9" d="M464 330h4v4h-4z"/><path class="cls-10" d="M464 334h4v4h-4z"/><path class="cls-11" d="M468 334h4v4h-4z"/><path class="cls-12" d="M468 330h4v4h-4z"/><path class="cls-9" d="M416 338h4v4h-4z"/><path class="cls-12" d="M420 338h4v4h-4z"/><path class="cls-9" d="M424 338h4v4h-4z"/><path class="cls-10" d="M424 342h4v4h-4zM424 350h4v4h-4zM428 358h4v2h-4z"/><path class="cls-11" d="M432 358h4v2h-4zM440 358h4v2h-4z"/><path class="cls-10" d="M436 358h4v2h-4zM444 358h4v2h-4z"/><path class="cls-11" d="M448 358h4v2h-4zM456 358h4v2h-4zM464 358h4v2h-4z"/><path class="cls-10" d="M452 358h4v2h-4zM460 358h4v2h-4z"/><path class="cls-11" d="M428 342h4v4h-4z"/><path class="cls-12" d="M428 338h4v4h-4z"/><path class="cls-9" d="M432 338h4v4h-4z"/><path class="cls-10" d="M432 342h4v4h-4z"/><path class="cls-11" d="M436 342h4v4h-4z"/><path class="cls-12" d="M436 338h4v4h-4z"/><path class="cls-9" d="M440 338h4v4h-4z"/><path class="cls-10" d="M440 342h4v4h-4z"/><path class="cls-11" d="M444 342h4v4h-4z"/><path class="cls-12" d="M444 338h4v4h-4z"/><path class="cls-9" d="M448 338h4v4h-4z"/><path class="cls-10" d="M448 342h4v4h-4z"/><path class="cls-11" d="M452 342h4v4h-4z"/><path class="cls-12" d="M452 338h4v4h-4z"/><path class="cls-9" d="M456 338h4v4h-4z"/><path class="cls-10" d="M456 342h4v4h-4z"/><path class="cls-11" d="M460 342h4v4h-4z"/><path class="cls-12" d="M460 338h4v4h-4z"/><path class="cls-9" d="M464 338h4v4h-4z"/><path class="cls-10" d="M464 342h4v4h-4z"/><path class="cls-11" d="M468 342h4v4h-4z"/><path class="cls-12" d="M468 338h4v4h-4z"/><path class="cls-9" d="M472 338h4v4h-4z"/><path class="cls-12" d="M476 338h4v4h-4z"/><path class="cls-9" d="M424 346h4v4h-4z"/><path class="cls-11" d="M428 350h4v4h-4z"/><path class="cls-12" d="M428 346h4v4h-4z"/><path class="cls-9" d="M432 346h4v4h-4z"/><path class="cls-10" d="M432 350h4v4h-4z"/><path class="cls-11" d="M436 350h4v4h-4z"/><path class="cls-12" d="M436 346h4v4h-4z"/><path class="cls-9" d="M440 346h4v4h-4z"/><path class="cls-10" d="M440 350h4v4h-4z"/><path class="cls-11" d="M444 350h4v4h-4z"/><path class="cls-12" d="M444 346h4v4h-4z"/><path class="cls-9" d="M448 346h4v4h-4z"/><path class="cls-10" d="M448 350h4v4h-4z"/><path class="cls-11" d="M452 350h4v4h-4z"/><path class="cls-12" d="M452 346h4v4h-4z"/><path class="cls-9" d="M456 346h4v4h-4z"/><path class="cls-10" d="M456 350h4v4h-4z"/><path class="cls-11" d="M460 350h4v4h-4z"/><path class="cls-12" d="M460 346h4v4h-4z"/><path class="cls-9" d="M464 346h4v4h-4z"/><path class="cls-10" d="M464 350h4v4h-4z"/><path class="cls-11" d="M468 350h4v2h-4zM476 350h4v2h-4z"/><path class="cls-10" d="M472 350h4v2h-4z"/><path class="cls-12" d="M468 346h4v4h-4z"/><path class="cls-10" d="M472 342h4v4h-4z"/><path class="cls-11" d="M476 342h4v4h-4z"/><path class="cls-9" d="M472 346h4v4h-4z"/><path class="cls-12" d="M476 346h4v4h-4zM428 354h4v4h-4z"/><path class="cls-9" d="M432 354h4v4h-4z"/><path class="cls-11" d="M424 358h4v2h-4z"/><path class="cls-9" d="M424 354h4v4h-4z"/><path class="cls-12" d="M436 354h4v4h-4z"/><path class="cls-9" d="M440 354h4v4h-4z"/><path class="cls-12" d="M444 354h4v4h-4z"/><path class="cls-9" d="M448 354h4v4h-4z"/><path class="cls-12" d="M452 354h4v4h-4z"/><path class="cls-9" d="M456 354h4v4h-4z"/><path class="cls-12" d="M460 354h4v4h-4z"/><path class="cls-9" d="M464 354h4v4h-4zM216 90h4v4h-4z"/><path class="cls-10" d="M216 94h4v2h-4z"/><path class="cls-11" d="M220 94h4v2h-4z"/><path class="cls-10" d="M208 94h4v4h-4z"/><path class="cls-11" d="M212 94h4v2h-4z"/><path class="cls-12" d="M220 90h4v4h-4z"/><path class="cls-9" d="M168 90h4v4h-4z"/><path class="cls-10" d="M168 94h4v4h-4z"/><path class="cls-11" d="M172 94h4v4h-4z"/><path class="cls-12" d="M172 90h4v4h-4z"/><path class="cls-9" d="M208 90h4v4h-4z"/><path class="cls-12" d="M212 90h4v4h-4z"/><path class="cls-9" d="M168 98h4v4h-4z"/><path class="cls-10" d="M168 102h4v2h-4z"/><path class="cls-11" d="M172 102h4v2h-4z"/><path class="cls-12" d="M172 98h4v4h-4z"/><path class="cls-9" d="M176 98h4v4h-4z"/><path class="cls-10" d="M176 102h4v2h-4z"/><path class="cls-11" d="M180 102h4v2h-4z"/><path class="cls-12" d="M180 98h4v4h-4z"/><path class="cls-9" d="M184 98h4v4h-4z"/><path class="cls-10" d="M184 102h4v2h-4z"/><path class="cls-11" d="M188 102h4v2h-4z"/><path class="cls-12" d="M188 98h4v4h-4z"/><path class="cls-9" d="M192 98h4v4h-4z"/><path class="cls-10" d="M192 102h4v2h-4z"/><path class="cls-11" d="M196 102h4v2h-4z"/><path class="cls-12" d="M196 98h4v4h-4z"/><path class="cls-9" d="M200 98h4v4h-4z"/><path class="cls-10" d="M200 102h4v2h-4z"/><path class="cls-11" d="M204 102h4v2h-4z"/><path class="cls-12" d="M204 98h4v4h-4z"/><path class="cls-9" d="M208 98h4v4h-4z"/><path class="cls-10" d="M208 102h4v2h-4z"/><path class="cls-9" d="M160 338h4v4h-4z"/><path class="cls-10" d="M160 342h4v4h-4z"/><path class="cls-11" d="M164 342h4v4h-4z"/><path class="cls-12" d="M164 338h4v4h-4z"/><path class="cls-9" d="M160 346h4v4h-4z"/><path class="cls-10" d="M160 350h4v2h-4z"/><path class="cls-11" d="M164 350h4v2h-4z"/><path class="cls-12" d="M164 346h4v4h-4z"/><path class="cls-9" d="M216 338h4v4h-4z"/><path class="cls-10" d="M216 342h4v4h-4z"/><path class="cls-11" d="M220 342h4v4h-4z"/><path class="cls-12" d="M220 338h4v4h-4z"/><path class="cls-9" d="M216 346h4v4h-4z"/><path class="cls-10" d="M216 350h4v2h-4z"/><path class="cls-11" d="M220 350h4v2h-4z"/><path class="cls-10" d="M208 350h4v4h-4z"/><path class="cls-11" d="M212 350h4v4h-4z"/><path class="cls-12" d="M220 346h4v4h-4z"/><path class="cls-9" d="M168 346h4v4h-4z"/><path class="cls-10" d="M168 350h4v2h-4z"/><path class="cls-11" d="M172 350h4v4h-4z"/><path class="cls-12" d="M172 346h4v4h-4z"/><path class="cls-9" d="M208 346h4v4h-4z"/><path class="cls-12" d="M212 346h4v4h-4z"/><path class="cls-11" d="M172 358h4v2h-4z"/><path class="cls-12" d="M172 354h4v4h-4z"/><path class="cls-9" d="M176 354h4v4h-4z"/><path class="cls-10" d="M176 358h4v2h-4z"/><path class="cls-11" d="M180 358h4v2h-4z"/><path class="cls-12" d="M180 354h4v4h-4z"/><path class="cls-9" d="M184 354h4v4h-4z"/><path class="cls-10" d="M184 358h4v2h-4z"/><path class="cls-11" d="M188 358h4v2h-4z"/><path class="cls-12" d="M188 354h4v4h-4z"/><path class="cls-9" d="M192 354h4v4h-4z"/><path class="cls-10" d="M192 358h4v2h-4z"/><path class="cls-11" d="M196 358h4v2h-4z"/><path class="cls-12" d="M196 354h4v4h-4z"/><path class="cls-9" d="M200 354h4v4h-4z"/><path class="cls-10" d="M200 358h4v2h-4z"/><path class="cls-11" d="M204 358h4v2h-4zM212 358h4v2h-4z"/><path class="cls-12" d="M204 354h4v4h-4zM212 354h4v4h-4z"/><path class="cls-9" d="M208 354h4v4h-4z"/><path class="cls-10" d="M208 358h4v2h-4z"/><path class="cls-9" d="M78 84h4v4h-4z"/><path class="cls-10" d="M78 88h4v4h-4z"/><path class="cls-11" d="M82 88h4v4h-4z"/><path class="cls-12" d="M82 84h4v4h-4z"/><path class="cls-9" d="M78 92h4v4h-4z"/><path class="cls-10" d="M78 96h4v4h-4z"/><path class="cls-11" d="M82 96h4v4h-4z"/><path class="cls-12" d="M82 92h4v4h-4z"/><path class="cls-9" d="M54 84h4v4h-4z"/><path class="cls-10" d="M54 88h4v4h-4z"/><path class="cls-11" d="M58 88h4v4h-4z"/><path class="cls-12" d="M58 84h4v4h-4z"/><path class="cls-9" d="M62 84h4v4h-4z"/><path class="cls-10" d="M62 88h4v4h-4z"/><path class="cls-11" d="M66 88h4v4h-4z"/><path class="cls-12" d="M66 84h4v4h-4z"/><path class="cls-9" d="M70 84h4v4h-4z"/><path class="cls-10" d="M70 88h4v4h-4z"/><path class="cls-11" d="M74 88h4v4h-4z"/><path class="cls-12" d="M74 84h4v4h-4z"/><path class="cls-9" d="M54 92h4v4h-4z"/><path class="cls-10" d="M54 96h4v4h-4z"/><path class="cls-11" d="M58 96h4v4h-4z"/><path class="cls-12" d="M58 92h4v4h-4z"/><path class="cls-9" d="M62 92h4v4h-4z"/><path class="cls-10" d="M62 96h4v4h-4z"/><path class="cls-11" d="M66 96h4v4h-4z"/><path class="cls-12" d="M66 92h4v4h-4z"/><path class="cls-9" d="M60 100h4v4h-4z"/><path class="cls-12" d="M64 100h4v4h-4z"/><path class="cls-9" d="M68 100h4v4h-4zM76 100h2v4h-2z"/><path class="cls-12" d="M72 100h4v4h-4z"/><path class="cls-9" d="M70 92h4v4h-4z"/><path class="cls-10" d="M70 96h4v4h-4z"/><path class="cls-11" d="M74 96h4v4h-4z"/><path class="cls-12" d="M74 92h4v4h-4z"/><path class="cls-9" d="M62 198h4v4h-4z"/><path class="cls-10" d="M62 202h4v4h-4z"/><path class="cls-11" d="M66 202h4v4h-4z"/><path class="cls-12" d="M66 198h4v4h-4z"/><path class="cls-9" d="M70 198h4v4h-4z"/><path class="cls-10" d="M70 202h4v4h-4z"/><path class="cls-11" d="M74 202h4v4h-4z"/><path class="cls-12" d="M74 198h4v4h-4z"/><path class="cls-9" d="M78 198h4v4h-4z"/><path class="cls-10" d="M78 202h4v4h-4z"/><path class="cls-11" d="M82 202h4v4h-4z"/><path class="cls-12" d="M82 198h4v4h-4z"/><path class="cls-9" d="M78 206h4v4h-4z"/><path class="cls-10" d="M78 210h4v4h-4z"/><path class="cls-11" d="M82 210h4v4h-4z"/><path class="cls-12" d="M82 206h4v4h-4z"/><path class="cls-9" d="M78 214h4v4h-4z"/><path class="cls-10" d="M78 218h4v4h-4z"/><path class="cls-11" d="M82 218h4v4h-4z"/><path class="cls-12" d="M82 214h4v4h-4z"/><path class="cls-9" d="M54 206h4v4h-4z"/><path class="cls-10" d="M54 210h4v4h-4z"/><path class="cls-11" d="M58 210h4v4h-4z"/><path class="cls-12" d="M58 206h4v4h-4z"/><path class="cls-9" d="M62 206h4v4h-4z"/><path class="cls-10" d="M62 210h4v4h-4z"/><path class="cls-11" d="M66 210h4v4h-4z"/><path class="cls-12" d="M66 206h4v4h-4z"/><path class="cls-9" d="M70 206h4v4h-4z"/><path class="cls-10" d="M70 210h4v4h-4z"/><path class="cls-11" d="M74 210h4v4h-4z"/><path class="cls-12" d="M74 206h4v4h-4z"/><path class="cls-9" d="M54 214h4v4h-4z"/><path class="cls-10" d="M54 218h4v4h-4z"/><path class="cls-11" d="M58 218h4v4h-4z"/><path class="cls-12" d="M58 214h4v4h-4z"/><path class="cls-9" d="M62 214h4v4h-4z"/><path class="cls-10" d="M62 218h4v4h-4z"/><path class="cls-11" d="M66 218h4v4h-4z"/><path class="cls-12" d="M66 214h4v4h-4z"/><path class="cls-9" d="M70 214h4v4h-4z"/><path class="cls-10" d="M70 218h4v4h-4z"/><path class="cls-11" d="M74 218h4v4h-4z"/><path class="cls-12" d="M74 214h4v4h-4z"/><path class="cls-9" d="M78 222h4v4h-4z"/><path class="cls-10" d="M78 226h4v4h-4z"/><path class="cls-11" d="M82 226h4v4h-4z"/><path class="cls-12" d="M82 222h4v4h-4z"/><path class="cls-9" d="M54 222h4v4h-4z"/><path class="cls-10" d="M54 226h4v2h-4z"/><path class="cls-11" d="M58 226v2h2v2h2v-4h-4z"/><path class="cls-12" d="M58 222h4v4h-4z"/><path class="cls-9" d="M62 222h4v4h-4z"/><path class="cls-10" d="M62 226h4v4h-4z"/><path class="cls-11" d="M66 226v4h2v-2h2v-2h-4z"/><path class="cls-12" d="M66 222h4v4h-4z"/><path class="cls-9" d="M70 222h4v4h-4z"/><path class="cls-10" d="M70 226h4v2h-4z"/><path class="cls-11" d="M74 226v2h2v2h2v-4h-4z"/><path class="cls-12" d="M74 222h4v4h-4z"/><path class="cls-9" d="M78 230h4v2h-4z"/><path class="cls-12" d="M82 230h4v2h-4zM60 230h2v2h-2z"/><path class="cls-9" d="M62 230h4v2h-4z"/><path class="cls-12" d="M66 230h2v2h-2zM76 230h2v2h-2z"/><path class="cls-10" d="M78 482h4v4h-4z"/><path class="cls-11" d="M82 482h4v4h-4z"/><path class="cls-10" d="M54 482h4v2h-4z"/><path class="cls-11" d="M58 482v2h2v2h2v-4h-4z"/><path class="cls-10" d="M62 482h4v4h-4z"/><path class="cls-11" d="M66 482v4h2v-2h2v-2h-4z"/><path class="cls-10" d="M70 482h4v2h-4z"/><path class="cls-11" d="M74 482v2h2v2h2v-4h-4z"/><path class="cls-9" d="M78 486h4v2h-4z"/><path class="cls-12" d="M82 486h4v2h-4zM60 486h2v2h-2z"/><path class="cls-9" d="M62 486h4v2h-4z"/><path class="cls-12" d="M66 486h2v2h-2zM76 486h2v2h-2z"/><path class="cls-9" d="M62 332h4v4h-4z"/><path class="cls-10" d="M62 336h4v4h-4z"/><path class="cls-11" d="M66 336h4v4h-4z"/><path class="cls-12" d="M66 332h4v4h-4z"/><path class="cls-9" d="M70 332h4v4h-4z"/><path class="cls-10" d="M70 336h4v4h-4z"/><path class="cls-11" d="M74 336h4v4h-4z"/><path class="cls-12" d="M74 332h4v4h-4z"/><path class="cls-9" d="M78 332h4v4h-4z"/><path class="cls-10" d="M78 336h4v4h-4z"/><path class="cls-11" d="M82 336h4v4h-4z"/><path class="cls-12" d="M82 332h4v4h-4z"/><path class="cls-9" d="M78 340h4v4h-4z"/><path class="cls-10" d="M78 344h4v4h-4z"/><path class="cls-11" d="M82 344h4v4h-4z"/><path class="cls-12" d="M82 340h4v4h-4z"/><path class="cls-9" d="M78 348h4v4h-4z"/><path class="cls-10" d="M78 352h4v4h-4z"/><path class="cls-11" d="M82 352h4v4h-4z"/><path class="cls-12" d="M82 348h4v4h-4z"/><path class="cls-9" d="M54 340h4v4h-4z"/><path class="cls-10" d="M54 344h4v4h-4z"/><path class="cls-11" d="M58 344h4v4h-4z"/><path class="cls-12" d="M58 340h4v4h-4z"/><path class="cls-9" d="M62 340h4v4h-4z"/><path class="cls-10" d="M62 344h4v4h-4z"/><path class="cls-11" d="M66 344h4v4h-4z"/><path class="cls-12" d="M66 340h4v4h-4z"/><path class="cls-9" d="M70 340h4v4h-4z"/><path class="cls-10" d="M70 344h4v4h-4z"/><path class="cls-11" d="M74 344h4v4h-4z"/><path class="cls-12" d="M74 340h4v4h-4z"/><path class="cls-9" d="M54 348h4v4h-4z"/><path class="cls-10" d="M54 352h4v4h-4z"/><path class="cls-11" d="M58 352h4v4h-4z"/><path class="cls-12" d="M58 348h4v4h-4z"/><path class="cls-9" d="M62 348h4v4h-4z"/><path class="cls-10" d="M62 352h4v4h-4z"/><path class="cls-11" d="M66 352h4v4h-4z"/><path class="cls-12" d="M66 348h4v4h-4zM68 356h2v4h-2z"/><path class="cls-9" d="M70 348h4v4h-4z"/><path class="cls-10" d="M70 352h4v4h-4z"/><path class="cls-11" d="M74 352h4v4h-4z"/><path class="cls-12" d="M74 348h4v4h-4z"/><path class="cls-9" d="M78 356h4v4h-4z"/><path class="cls-12" d="M82 356h4v4h-4z"/><path class="cls-9" d="M70 356h4v4h-4z"/><path class="cls-12" d="M74 356h4v4h-4z"/><path class="cls-9" d="M62 454h4v4h-4z"/><path class="cls-10" d="M62 458h4v4h-4z"/><path class="cls-11" d="M66 458h4v4h-4z"/><path class="cls-12" d="M66 454h4v4h-4z"/><path class="cls-9" d="M70 454h4v4h-4z"/><path class="cls-10" d="M70 458h4v4h-4z"/><path class="cls-11" d="M74 458h4v4h-4z"/><path class="cls-12" d="M74 454h4v4h-4z"/><path class="cls-9" d="M78 454h4v4h-4z"/><path class="cls-10" d="M78 458h4v4h-4z"/><path class="cls-11" d="M82 458h4v4h-4z"/><path class="cls-12" d="M82 454h4v4h-4z"/><path class="cls-9" d="M78 462h4v4h-4z"/><path class="cls-10" d="M78 466h4v4h-4z"/><path class="cls-11" d="M82 466h4v4h-4z"/><path class="cls-12" d="M82 462h4v4h-4z"/><path class="cls-9" d="M78 470h4v4h-4z"/><path class="cls-10" d="M78 474h4v4h-4z"/><path class="cls-11" d="M82 474h4v4h-4z"/><path class="cls-12" d="M82 470h4v4h-4z"/><path class="cls-9" d="M54 462h4v4h-4z"/><path class="cls-10" d="M54 466h4v4h-4z"/><path class="cls-11" d="M58 466h4v4h-4z"/><path class="cls-12" d="M58 462h4v4h-4z"/><path class="cls-9" d="M62 462h4v4h-4z"/><path class="cls-10" d="M62 466h4v4h-4z"/><path class="cls-11" d="M66 466h4v4h-4z"/><path class="cls-12" d="M66 462h4v4h-4z"/><path class="cls-9" d="M70 462h4v4h-4z"/><path class="cls-10" d="M70 466h4v4h-4z"/><path class="cls-11" d="M74 466h4v4h-4z"/><path class="cls-12" d="M74 462h4v4h-4z"/><path class="cls-9" d="M54 470h4v4h-4z"/><path class="cls-10" d="M54 474h4v4h-4z"/><path class="cls-11" d="M58 474h4v4h-4z"/><path class="cls-12" d="M58 470h4v4h-4z"/><path class="cls-9" d="M62 470h4v4h-4z"/><path class="cls-10" d="M62 474h4v4h-4z"/><path class="cls-11" d="M66 474h4v4h-4z"/><path class="cls-12" d="M66 470h4v4h-4z"/><path class="cls-9" d="M70 470h4v4h-4z"/><path class="cls-10" d="M70 474h4v4h-4z"/><path class="cls-11" d="M74 474h4v4h-4z"/><path class="cls-12" d="M74 470h4v4h-4z"/><path class="cls-9" d="M78 478h4v4h-4z"/><path class="cls-12" d="M82 478h4v4h-4z"/><path class="cls-9" d="M54 478h4v4h-4z"/><path class="cls-12" d="M58 478h4v4h-4z"/><path class="cls-9" d="M62 478h4v4h-4z"/><path class="cls-12" d="M66 478h4v4h-4z"/><path class="cls-9" d="M70 478h4v4h-4z"/><path class="cls-12" d="M74 478h4v4h-4z"/><path class="cls-9" transform="rotate(-180 324 78)" d="M322 76h4v4h-4z"/><path class="cls-10" transform="rotate(-180 324 82)" d="M322 80h4v4h-4z"/><path class="cls-11" transform="rotate(-180 320 82)" d="M318 80h4v4h-4z"/><path class="cls-12" transform="rotate(-180 320 78)" d="M318 76h4v4h-4z"/><path class="cls-9" transform="rotate(-180 316 78)" d="M314 76h4v4h-4z"/><path class="cls-10" transform="rotate(-180 316 82)" d="M314 80h4v4h-4z"/><path class="cls-11" transform="rotate(-180 312 82)" d="M310 80h4v4h-4z"/><path class="cls-12" transform="rotate(-180 312 78)" d="M310 76h4v4h-4z"/><path class="cls-9" transform="rotate(-180 308 78)" d="M306 76h4v4h-4z"/><path class="cls-10" transform="rotate(-180 308 82)" d="M306 80h4v4h-4z"/><path class="cls-11" transform="rotate(-180 304 82)" d="M302 80h4v4h-4z"/><path class="cls-12" transform="rotate(-180 304 78)" d="M302 76h4v4h-4z"/><path class="cls-9" transform="rotate(-180 308 86)" d="M306 84h4v4h-4z"/><path class="cls-10" transform="rotate(-180 308 90)" d="M306 88h4v4h-4z"/><path class="cls-11" transform="rotate(-180 304 90)" d="M302 88h4v4h-4z"/><path class="cls-12" transform="rotate(-180 304 86)" d="M302 84h4v4h-4z"/><path class="cls-9" transform="rotate(-180 308 94)" d="M306 92h4v4h-4z"/><path class="cls-10" transform="rotate(-180 308 98)" d="M306 96h4v4h-4z"/><path class="cls-11" transform="rotate(-180 304 98)" d="M302 96h4v4h-4z"/><path class="cls-12" transform="rotate(-180 304 94)" d="M302 92h4v4h-4z"/><path class="cls-9" transform="rotate(-180 332 86)" d="M330 84h4v4h-4z"/><path class="cls-10" transform="rotate(-180 332 90)" d="M330 88h4v4h-4z"/><path class="cls-11" transform="rotate(-180 328 90)" d="M326 88h4v4h-4z"/><path class="cls-12" transform="rotate(-180 328 86)" d="M326 84h4v4h-4z"/><path class="cls-9" transform="rotate(-180 324 86)" d="M322 84h4v4h-4z"/><path class="cls-10" transform="rotate(-180 324 90)" d="M322 88h4v4h-4z"/><path class="cls-11" transform="rotate(-180 320 90)" d="M318 88h4v4h-4z"/><path class="cls-12" transform="rotate(-180 320 86)" d="M318 84h4v4h-4z"/><path class="cls-9" transform="rotate(-180 316 86)" d="M314 84h4v4h-4z"/><path class="cls-10" transform="rotate(-180 316 90)" d="M314 88h4v4h-4z"/><path class="cls-11" transform="rotate(-180 312 90)" d="M310 88h4v4h-4z"/><path class="cls-12" transform="rotate(-180 312 86)" d="M310 84h4v4h-4z"/><path class="cls-9" transform="rotate(-180 332 94)" d="M330 92h4v4h-4z"/><path class="cls-10" transform="rotate(-180 332 98)" d="M330 96h4v4h-4z"/><path class="cls-11" transform="rotate(-180 328 98)" d="M326 96h4v4h-4z"/><path class="cls-12" transform="rotate(-180 328 94)" d="M326 92h4v4h-4z"/><path class="cls-9" transform="rotate(-180 324 94)" d="M322 92h4v4h-4z"/><path class="cls-10" transform="rotate(-180 324 98)" d="M322 96h4v4h-4z"/><path class="cls-11" transform="rotate(-180 320 98)" d="M318 96h4v4h-4z"/><path class="cls-12" transform="rotate(-180 320 94)" d="M318 92h4v4h-4z"/><path class="cls-9" transform="rotate(-180 326 102)" d="M324 100h4v4h-4z"/><path class="cls-12" transform="rotate(-180 322 102)" d="M320 100h4v4h-4z"/><path class="cls-9" transform="rotate(-180 318 102)" d="M316 100h4v4h-4z"/><path class="cls-9" transform="rotate(-180 311 102)" d="M310 100h2v4h-2z"/><path class="cls-12" transform="rotate(-180 314 102)" d="M312 100h4v4h-4z"/><path class="cls-9" transform="rotate(-180 316 94)" d="M314 92h4v4h-4z"/><path class="cls-10" transform="rotate(-180 316 98)" d="M314 96h4v4h-4z"/><path class="cls-11" transform="rotate(-180 312 98)" d="M310 96h4v4h-4z"/><path class="cls-12" transform="rotate(-180 312 94)" d="M310 92h4v4h-4z"/><path class="cls-9" transform="rotate(-180 324 200)" d="M322 198h4v4h-4z"/><path class="cls-10" transform="rotate(-180 324 204)" d="M322 202h4v4h-4z"/><path class="cls-11" transform="rotate(-180 320 204)" d="M318 202h4v4h-4z"/><path class="cls-12" transform="rotate(-180 320 200)" d="M318 198h4v4h-4z"/><path class="cls-9" transform="rotate(-180 316 200)" d="M314 198h4v4h-4z"/><path class="cls-10" transform="rotate(-180 316 204)" d="M314 202h4v4h-4z"/><path class="cls-11" transform="rotate(-180 312 204)" d="M310 202h4v4h-4z"/><path class="cls-12" transform="rotate(-180 312 200)" d="M310 198h4v4h-4z"/><path class="cls-9" transform="rotate(-180 308 200)" d="M306 198h4v4h-4z"/><path class="cls-10" transform="rotate(-180 308 204)" d="M306 202h4v4h-4z"/><path class="cls-11" transform="rotate(-180 304 204)" d="M302 202h4v4h-4z"/><path class="cls-12" transform="rotate(-180 304 200)" d="M302 198h4v4h-4z"/><path class="cls-9" transform="rotate(-180 308 208)" d="M306 206h4v4h-4z"/><path class="cls-10" transform="rotate(-180 308 212)" d="M306 210h4v4h-4z"/><path class="cls-11" transform="rotate(-180 304 212)" d="M302 210h4v4h-4z"/><path class="cls-12" transform="rotate(-180 304 208)" d="M302 206h4v4h-4z"/><path class="cls-9" transform="rotate(-180 308 216)" d="M306 214h4v4h-4z"/><path class="cls-10" transform="rotate(-180 308 220)" d="M306 218h4v4h-4z"/><path class="cls-11" transform="rotate(-180 304 220)" d="M302 218h4v4h-4z"/><path class="cls-12" transform="rotate(-180 304 216)" d="M302 214h4v4h-4z"/><path class="cls-9" transform="rotate(-180 332 208)" d="M330 206h4v4h-4z"/><path class="cls-10" transform="rotate(-180 332 212)" d="M330 210h4v4h-4z"/><path class="cls-11" transform="rotate(-180 328 212)" d="M326 210h4v4h-4z"/><path class="cls-12" transform="rotate(-180 328 208)" d="M326 206h4v4h-4z"/><path class="cls-9" transform="rotate(-180 324 208)" d="M322 206h4v4h-4z"/><path class="cls-10" transform="rotate(-180 324 212)" d="M322 210h4v4h-4z"/><path class="cls-11" transform="rotate(-180 320 212)" d="M318 210h4v4h-4z"/><path class="cls-12" transform="rotate(-180 320 208)" d="M318 206h4v4h-4z"/><path class="cls-9" transform="rotate(-180 316 208)" d="M314 206h4v4h-4z"/><path class="cls-10" transform="rotate(-180 316 212)" d="M314 210h4v4h-4z"/><path class="cls-11" transform="rotate(-180 312 212)" d="M310 210h4v4h-4z"/><path class="cls-12" transform="rotate(-180 312 208)" d="M310 206h4v4h-4z"/><path class="cls-9" transform="rotate(-180 332 216)" d="M330 214h4v4h-4z"/><path class="cls-10" transform="rotate(-180 332 220)" d="M330 218h4v4h-4z"/><path class="cls-11" transform="rotate(-180 328 220)" d="M326 218h4v4h-4z"/><path class="cls-12" transform="rotate(-180 328 216)" d="M326 214h4v4h-4z"/><path class="cls-9" transform="rotate(-180 324 216)" d="M322 214h4v4h-4z"/><path class="cls-10" transform="rotate(-180 324 220)" d="M322 218h4v4h-4z"/><path class="cls-11" transform="rotate(-180 320 220)" d="M318 218h4v4h-4z"/><path class="cls-12" transform="rotate(-180 320 216)" d="M318 214h4v4h-4z"/><path class="cls-9" transform="rotate(-180 316 216)" d="M314 214h4v4h-4z"/><path class="cls-10" transform="rotate(-180 316 220)" d="M314 218h4v4h-4z"/><path class="cls-11" transform="rotate(-180 312 220)" d="M310 218h4v4h-4z"/><path class="cls-12" transform="rotate(-180 312 216)" d="M310 214h4v4h-4z"/><path class="cls-9" transform="rotate(-180 308 224)" d="M306 222h4v4h-4z"/><path class="cls-10" transform="rotate(-180 308 228)" d="M306 226h4v4h-4z"/><path class="cls-11" transform="rotate(-180 304 228)" d="M302 226h4v4h-4z"/><path class="cls-12" transform="rotate(-180 304 224)" d="M302 222h4v4h-4z"/><path class="cls-9" transform="rotate(-180 332 224)" d="M330 222h4v4h-4z"/><path class="cls-10" transform="rotate(-180 332 227)" d="M330 226h4v2h-4z"/><path class="cls-11" d="M330 226v2h-2v2h-2v-4h4z"/><path class="cls-12" transform="rotate(-180 328 224)" d="M326 222h4v4h-4z"/><path class="cls-9" transform="rotate(-180 324 224)" d="M322 222h4v4h-4z"/><path class="cls-10" transform="rotate(-180 324 228)" d="M322 226h4v4h-4z"/><path class="cls-11" d="M322 226v4h-2v-2h-2v-2h4z"/><path class="cls-12" transform="rotate(-180 320 224)" d="M318 222h4v4h-4z"/><path class="cls-9" transform="rotate(-180 316 224)" d="M314 222h4v4h-4z"/><path class="cls-10" transform="rotate(-180 316 227)" d="M314 226h4v2h-4z"/><path class="cls-11" d="M314 226v2h-2v2h-2v-4h4z"/><path class="cls-12" transform="rotate(-180 312 224)" d="M310 222h4v4h-4z"/><path class="cls-9" transform="rotate(-180 308 231)" d="M306 230h4v2h-4z"/><path class="cls-12" transform="rotate(-180 304 231)" d="M302 230h4v2h-4z"/><path class="cls-12" transform="rotate(-180 327 231)" d="M326 230h2v2h-2z"/><path class="cls-9" transform="rotate(-180 324 231)" d="M322 230h4v2h-4z"/><path class="cls-12" transform="rotate(-180 321 231)" d="M320 230h2v2h-2z"/><path class="cls-12" transform="rotate(-180 311 231)" d="M310 230h2v2h-2z"/><path class="cls-10" transform="rotate(-180 308 484)" d="M306 482h4v4h-4z"/><path class="cls-11" transform="rotate(-180 304 484)" d="M302 482h4v4h-4z"/><path class="cls-10" transform="rotate(-180 332 483)" d="M330 482h4v2h-4z"/><path class="cls-11" d="M330 482v2h-2v2h-2v-4h4z"/><path class="cls-10" transform="rotate(-180 324 484)" d="M322 482h4v4h-4z"/><path class="cls-11" d="M322 482v4h-2v-2h-2v-2h4z"/><path class="cls-10" transform="rotate(-180 316 483)" d="M314 482h4v2h-4z"/><path class="cls-11" d="M314 482v2h-2v2h-2v-4h4z"/><path class="cls-9" transform="rotate(-180 308 487)" d="M306 486h4v2h-4z"/><path class="cls-12" transform="rotate(-180 304 487)" d="M302 486h4v2h-4z"/><path class="cls-12" transform="rotate(-180 327 487)" d="M326 486h2v2h-2z"/><path class="cls-9" transform="rotate(-180 324 487)" d="M322 486h4v2h-4z"/><path class="cls-12" transform="rotate(-180 321 487)" d="M320 486h2v2h-2z"/><path class="cls-12" transform="rotate(-180 311 487)" d="M310 486h2v2h-2z"/><path class="cls-9" transform="rotate(-180 324 334)" d="M322 332h4v4h-4z"/><path class="cls-10" transform="rotate(-180 324 338)" d="M322 336h4v4h-4z"/><path class="cls-11" transform="rotate(-180 320 338)" d="M318 336h4v4h-4z"/><path class="cls-12" transform="rotate(-180 320 334)" d="M318 332h4v4h-4z"/><path class="cls-9" transform="rotate(-180 316 334)" d="M314 332h4v4h-4z"/><path class="cls-10" transform="rotate(-180 316 338)" d="M314 336h4v4h-4z"/><path class="cls-11" transform="rotate(-180 312 338)" d="M310 336h4v4h-4z"/><path class="cls-12" transform="rotate(-180 312 334)" d="M310 332h4v4h-4z"/><path class="cls-9" transform="rotate(-180 308 334)" d="M306 332h4v4h-4z"/><path class="cls-10" transform="rotate(-180 308 338)" d="M306 336h4v4h-4z"/><path class="cls-11" transform="rotate(-180 304 338)" d="M302 336h4v4h-4z"/><path class="cls-12" transform="rotate(-180 304 334)" d="M302 332h4v4h-4z"/><path class="cls-9" transform="rotate(-180 308 342)" d="M306 340h4v4h-4z"/><path class="cls-10" transform="rotate(-180 308 346)" d="M306 344h4v4h-4z"/><path class="cls-11" transform="rotate(-180 304 346)" d="M302 344h4v4h-4z"/><path class="cls-12" transform="rotate(-180 304 342)" d="M302 340h4v4h-4z"/><path class="cls-9" transform="rotate(-180 308 350)" d="M306 348h4v4h-4z"/><path class="cls-10" transform="rotate(-180 308 354)" d="M306 352h4v4h-4z"/><path class="cls-11" transform="rotate(-180 304 354)" d="M302 352h4v4h-4z"/><path class="cls-12" transform="rotate(-180 304 350)" d="M302 348h4v4h-4z"/><path class="cls-9" transform="rotate(-180 332 342)" d="M330 340h4v4h-4z"/><path class="cls-10" transform="rotate(-180 332 346)" d="M330 344h4v4h-4z"/><path class="cls-11" transform="rotate(-180 328 346)" d="M326 344h4v4h-4z"/><path class="cls-12" transform="rotate(-180 328 342)" d="M326 340h4v4h-4z"/><path class="cls-9" transform="rotate(-180 324 342)" d="M322 340h4v4h-4z"/><path class="cls-10" transform="rotate(-180 324 346)" d="M322 344h4v4h-4z"/><path class="cls-11" transform="rotate(-180 320 346)" d="M318 344h4v4h-4z"/><path class="cls-12" transform="rotate(-180 320 342)" d="M318 340h4v4h-4z"/><path class="cls-9" transform="rotate(-180 316 342)" d="M314 340h4v4h-4z"/><path class="cls-10" transform="rotate(-180 316 346)" d="M314 344h4v4h-4z"/><path class="cls-11" transform="rotate(-180 312 346)" d="M310 344h4v4h-4z"/><path class="cls-12" transform="rotate(-180 312 342)" d="M310 340h4v4h-4z"/><path class="cls-9" transform="rotate(-180 332 350)" d="M330 348h4v4h-4z"/><path class="cls-10" transform="rotate(-180 332 354)" d="M330 352h4v4h-4z"/><path class="cls-11" transform="rotate(-180 328 354)" d="M326 352h4v4h-4z"/><path class="cls-12" transform="rotate(-180 328 350)" d="M326 348h4v4h-4z"/><path class="cls-9" transform="rotate(-180 324 350)" d="M322 348h4v4h-4z"/><path class="cls-10" transform="rotate(-180 324 354)" d="M322 352h4v4h-4z"/><path class="cls-11" transform="rotate(-180 320 354)" d="M318 352h4v4h-4z"/><path class="cls-12" transform="rotate(-180 320 350)" d="M318 348h4v4h-4z"/><path class="cls-12" transform="rotate(-180 319 358)" d="M318 356h2v4h-2z"/><path class="cls-9" transform="rotate(-180 316 350)" d="M314 348h4v4h-4z"/><path class="cls-10" transform="rotate(-180 316 354)" d="M314 352h4v4h-4z"/><path class="cls-11" transform="rotate(-180 312 354)" d="M310 352h4v4h-4z"/><path class="cls-12" transform="rotate(-180 312 350)" d="M310 348h4v4h-4z"/><path class="cls-9" transform="rotate(-180 308 358)" d="M306 356h4v4h-4z"/><path class="cls-12" transform="rotate(-180 304 358)" d="M302 356h4v4h-4z"/><path class="cls-9" transform="rotate(-180 316 358)" d="M314 356h4v4h-4z"/><path class="cls-12" transform="rotate(-180 312 358)" d="M310 356h4v4h-4z"/><path class="cls-9" transform="rotate(-180 324 456)" d="M322 454h4v4h-4z"/><path class="cls-10" transform="rotate(-180 324 460)" d="M322 458h4v4h-4z"/><path class="cls-11" transform="rotate(-180 320 460)" d="M318 458h4v4h-4z"/><path class="cls-12" transform="rotate(-180 320 456)" d="M318 454h4v4h-4z"/><path class="cls-9" transform="rotate(-180 316 456)" d="M314 454h4v4h-4z"/><path class="cls-10" transform="rotate(-180 316 460)" d="M314 458h4v4h-4z"/><path class="cls-11" transform="rotate(-180 312 460)" d="M310 458h4v4h-4z"/><path class="cls-12" transform="rotate(-180 312 456)" d="M310 454h4v4h-4z"/><path class="cls-9" transform="rotate(-180 308 456)" d="M306 454h4v4h-4z"/><path class="cls-10" transform="rotate(-180 308 460)" d="M306 458h4v4h-4z"/><path class="cls-11" transform="rotate(-180 304 460)" d="M302 458h4v4h-4z"/><path class="cls-12" transform="rotate(-180 304 456)" d="M302 454h4v4h-4z"/><path class="cls-9" transform="rotate(-180 308 464)" d="M306 462h4v4h-4z"/><path class="cls-10" transform="rotate(-180 308 468)" d="M306 466h4v4h-4z"/><path class="cls-11" transform="rotate(-180 304 468)" d="M302 466h4v4h-4z"/><path class="cls-12" transform="rotate(-180 304 464)" d="M302 462h4v4h-4z"/><path class="cls-9" transform="rotate(-180 308 472)" d="M306 470h4v4h-4z"/><path class="cls-10" transform="rotate(-180 308 476)" d="M306 474h4v4h-4z"/><path class="cls-11" transform="rotate(-180 304 476)" d="M302 474h4v4h-4z"/><path class="cls-12" transform="rotate(-180 304 472)" d="M302 470h4v4h-4z"/><path class="cls-9" transform="rotate(-180 332 464)" d="M330 462h4v4h-4z"/><path class="cls-10" transform="rotate(-180 332 468)" d="M330 466h4v4h-4z"/><path class="cls-11" transform="rotate(-180 328 468)" d="M326 466h4v4h-4z"/><path class="cls-12" transform="rotate(-180 328 464)" d="M326 462h4v4h-4z"/><path class="cls-9" transform="rotate(-180 324 464)" d="M322 462h4v4h-4z"/><path class="cls-10" transform="rotate(-180 324 468)" d="M322 466h4v4h-4z"/><path class="cls-11" transform="rotate(-180 320 468)" d="M318 466h4v4h-4z"/><path class="cls-12" transform="rotate(-180 320 464)" d="M318 462h4v4h-4z"/><path class="cls-9" transform="rotate(-180 316 464)" d="M314 462h4v4h-4z"/><path class="cls-10" transform="rotate(-180 316 468)" d="M314 466h4v4h-4z"/><path class="cls-11" transform="rotate(-180 312 468)" d="M310 466h4v4h-4z"/><path class="cls-12" transform="rotate(-180 312 464)" d="M310 462h4v4h-4z"/><path class="cls-9" transform="rotate(-180 332 472)" d="M330 470h4v4h-4z"/><path class="cls-10" transform="rotate(-180 332 476)" d="M330 474h4v4h-4z"/><path class="cls-11" transform="rotate(-180 328 476)" d="M326 474h4v4h-4z"/><path class="cls-12" transform="rotate(-180 328 472)" d="M326 470h4v4h-4z"/><path class="cls-9" transform="rotate(-180 324 472)" d="M322 470h4v4h-4z"/><path class="cls-10" transform="rotate(-180 324 476)" d="M322 474h4v4h-4z"/><path class="cls-11" transform="rotate(-180 320 476)" d="M318 474h4v4h-4z"/><path class="cls-12" transform="rotate(-180 320 472)" d="M318 470h4v4h-4z"/><path class="cls-9" transform="rotate(-180 316 472)" d="M314 470h4v4h-4z"/><path class="cls-10" transform="rotate(-180 316 476)" d="M314 474h4v4h-4z"/><path class="cls-11" transform="rotate(-180 312 476)" d="M310 474h4v4h-4z"/><path class="cls-12" transform="rotate(-180 312 472)" d="M310 470h4v4h-4z"/><path class="cls-9" transform="rotate(-180 308 480)" d="M306 478h4v4h-4z"/><path class="cls-12" transform="rotate(-180 304 480)" d="M302 478h4v4h-4z"/><path class="cls-9" transform="rotate(-180 332 480)" d="M330 478h4v4h-4z"/><path class="cls-12" transform="rotate(-180 328 480)" d="M326 478h4v4h-4z"/><path class="cls-9" transform="rotate(-180 324 480)" d="M322 478h4v4h-4z"/><path class="cls-12" transform="rotate(-180 320 480)" d="M318 478h4v4h-4z"/><path class="cls-9" transform="rotate(-180 316 480)" d="M314 478h4v4h-4z"/><path class="cls-12" transform="rotate(-180 312 480)" d="M310 478h4v4h-4z"/></g></g></svg>