<svg xmlns="http://www.w3.org/2000/svg" width="512" height="512" viewBox="0 0 512 512"><defs><style>.cls-1{fill:#bfbfbf;opacity:0;}.cls-2{fill:#9a523a;}.cls-3{fill:#22505d;}.cls-4{fill:#ffcdcb;}.cls-5{fill:#2cdee3;}.cls-6{fill:#20505e;}.cls-7{fill:#ffccca;}.cls-8{fill:#fff;}.cls-9{fill:#ff7e7d;}.cls-10{fill:#eee089;}.cls-11{fill:#9a4f35;}</style></defs><title>Asset 7</title><g id="Layer_2" data-name="Layer 2"><g id="char-2-2_copy_5" data-name="char-2-2 copy 5"><rect id="back" class="cls-1" x="384" y="384" width="128" height="128"/><rect id="shoe" class="cls-2" x="436" y="500" width="8" height="8"/><rect id="shoe-2" data-name="shoe" class="cls-2" x="452" y="500" width="8" height="8"/><polygon id="legs" class="cls-3" points="436 488 436 492 436 500 444 500 444 492 452 492 452 500 460 500 460 492 460 488 436 488"/><rect id="hand-on-left" class="cls-4" x="432" y="488" width="4" height="4"/><rect id="hand-on-right" class="cls-4" x="460" y="488" width="4" height="4"/><polygon id="shirt" class="cls-5" points="456 472 456 468 440 468 440 472 432 476 432 488 464 488 464 476 456 472"/></g><g id="char-1-2_copy_3" data-name="char-1-2 copy 3"><rect id="pants" class="cls-6" x="308" y="488" width="20" height="12" transform="translate(636 988) rotate(-180)"/><rect class="cls-2" x="312" y="500" width="20" height="8" transform="translate(644 1008) rotate(-180)"/><polygon class="cls-5" points="312 472 312 468 324 468 324 472 328 472 328 488 308 488 308 472 312 472"/><rect id="hand" class="cls-7" x="314" y="484" width="8" height="8" transform="translate(636 976) rotate(-180)"/></g><g id="char-2-2_copy_6" data-name="char-2-2 copy 6"><rect id="shoe-3" data-name="shoe" class="cls-2" x="180" y="500" width="8" height="8"/><rect id="shoe-4" data-name="shoe" class="cls-2" x="196" y="500" width="8" height="8"/><polygon id="legs-2" data-name="legs" class="cls-3" points="180 488 180 492 180 500 188 500 188 492 196 492 196 500 204 500 204 492 204 488 180 488"/><g id="arms"><polygon class="cls-5" points="176 488 184 488 184 472 176 476 176 488"/><polygon class="cls-5" points="200 472 200 488 208 488 208 476 200 472"/></g><rect id="zip" class="cls-5" x="184" y="468" width="2" height="20"/><rect id="zip-2" data-name="zip" class="cls-5" x="198" y="468" width="2" height="20"/><rect id="shirt-2" data-name="shirt" class="cls-8" x="186" y="472" width="12" height="16"/><rect id="hand-on-left-2" data-name="hand-on-left" class="cls-4" x="176" y="488" width="4" height="4"/><rect id="hand-on-right-2" data-name="hand-on-right" class="cls-4" x="204" y="488" width="4" height="4"/><polygon class="cls-4" points="216 432 216 408 168 408 168 432 160 432 160 448 168 448 168 464 186 464 186 472 198 472 198 464 216 464 216 448 224 448 224 432 216 432"/><polygon id="mouth" class="cls-9" points="192 448 184 448 186 454 192 454 198 454 200 448 192 448"/><rect id="eye" x="172" y="432" width="8" height="8"/><rect id="eye-2" data-name="eye" x="204" y="432" width="8" height="8"/><rect class="cls-10" x="160" y="408" width="8" height="24"/><polygon class="cls-10" points="216 408 216 400 168 400 168 408 216 436 224 436 224 408 216 408"/><polygon class="cls-10" points="168 448 160 448 160 464 164 464 164 468 186 468 186 464 168 464 168 448"/><polygon class="cls-10" points="216 464 198 464 198 468 220 470 220 464 224 464 224 448 216 448 216 464"/><path class="cls-9" d="M146,388"/></g><g id="char-1-2_copy_2" data-name="char-1-2 copy 2"><rect id="pants-2" data-name="pants" class="cls-6" x="56" y="488" width="20" height="12"/><rect class="cls-2" x="52" y="500" width="20" height="8"/><polygon class="cls-5" points="72 472 72 468 60 468 60 472 56 472 56 488 76 488 76 472 72 472"/><rect id="hand-2" data-name="hand" class="cls-7" x="62" y="484" width="8" height="8"/></g><g id="char-1-1_copy" data-name="char-1-1 copy"><rect id="shirt-3" data-name="shirt" class="cls-5" x="308" y="88" width="20" height="16" transform="translate(636 192) rotate(-180)"/><polygon id="shoe-5" data-name="shoe" class="cls-11" points="336 108 344 108 344 116 336 124 328 124 328 116 336 108"/><polygon id="shoe-6" data-name="shoe" class="cls-11" points="316 116 316 124 308 124 300 116 300 108 308 108 316 116"/><rect id="pants-3" data-name="pants" class="cls-6" x="308" y="104" width="20" height="12" transform="translate(636 220) rotate(-180)"/><rect id="hand-3" data-name="hand" class="cls-7" x="308" y="100" width="8" height="8" transform="translate(624 208) rotate(-180)"/></g><g id="char-2-1_copy_2" data-name="char-2-1 copy 2"><rect id="shoe-7" data-name="shoe" class="cls-2" x="180" y="116" width="8" height="8"/><polygon id="legs-3" data-name="legs" class="cls-3" points="180 104 180 108 180 116 188 116 188 108 196 108 196 116 204 116 204 108 204 104 180 104"/><rect id="shoe-8" data-name="shoe" class="cls-2" x="196" y="112" width="8" height="4"/><polygon class="cls-4" points="216 52 216 28 168 28 168 52 160 52 160 68 168 68 168 84 186 84 186 92 198 92 198 84 216 84 216 68 224 68 224 52 216 52"/><polygon id="mouth-2" data-name="mouth" class="cls-9" points="192 68 184 68 186 74 192 74 198 74 200 68 192 68"/><rect id="eye-3" data-name="eye" x="172" y="52" width="8" height="8"/><rect id="eye-4" data-name="eye" x="204" y="52" width="8" height="8"/><rect class="cls-10" x="160" y="28" width="8" height="24"/><polygon class="cls-10" points="216 28 216 20 168 20 168 28 216 56 224 56 224 28 216 28"/><polygon class="cls-10" points="168 68 160 68 160 84 164 84 164 88 186 88 186 84 168 84 168 68"/><polygon class="cls-10" points="216 84 198 84 198 88 220 90 220 84 224 84 224 68 216 68 216 84"/><polygon class="cls-4" points="216 308 216 284 168 284 168 308 160 308 160 324 168 324 168 340 186 340 186 348 198 348 198 340 216 340 216 324 224 324 224 308 216 308"/><polygon id="mouth-3" data-name="mouth" class="cls-9" points="192 324 184 324 186 330 192 330 198 330 200 324 192 324"/><rect id="eye-5" data-name="eye" x="172" y="308" width="8" height="8"/><rect id="eye-6" data-name="eye" x="204" y="308" width="8" height="8"/><rect class="cls-10" x="160" y="284" width="8" height="24"/><polygon class="cls-10" points="216 284 216 276 168 276 168 284 216 312 224 312 224 284 216 284"/><polygon class="cls-10" points="168 324 160 324 160 340 164 340 164 344 186 344 186 340 168 340 168 324"/><polygon class="cls-10" points="216 340 198 340 198 344 220 346 220 340 224 340 224 324 216 324 216 340"/><rect id="shirt-4" data-name="shirt" class="cls-8" x="186" y="88" width="12" height="16"/><polygon class="cls-5" points="184 84 184 88 176 88 176 104 184 104 186 104 186 84 184 84"/><rect class="cls-5" x="200" y="88" width="8" height="16"/><polygon class="cls-5" points="200 84 198 84 198 104 200 104 200 88 200 84"/><rect id="hand-on-left-3" data-name="hand-on-left" class="cls-4" x="176" y="100" width="4" height="4"/><rect id="hand-on-right-3" data-name="hand-on-right" class="cls-4" x="200" y="100" width="8" height="8"/></g><g id="char-2-1_copy" data-name="char-2-1 copy"><rect id="shoe-9" data-name="shoe" class="cls-2" x="196" y="372" width="8" height="8"/><polygon id="legs-4" data-name="legs" class="cls-3" points="180 360 180 364 180 372 188 372 188 364 196 364 196 372 204 372 204 364 204 360 180 360"/><rect id="shoe-10" data-name="shoe" class="cls-2" x="180" y="368" width="8" height="4"/><g id="arms-2" data-name="arms"><rect class="cls-5" x="176" y="344" width="8" height="16"/><rect class="cls-5" x="200" y="344" width="8" height="16"/></g><rect id="zip-3" data-name="zip" class="cls-5" x="184" y="340" width="2" height="20"/><rect id="zip-4" data-name="zip" class="cls-5" x="198" y="340" width="2" height="20"/><rect id="hand-on-left-4" data-name="hand-on-left" class="cls-4" x="204" y="356" width="4" height="4"/><rect id="hand-on-right-4" data-name="hand-on-right" class="cls-4" x="176" y="356" width="8" height="8"/><rect id="shirt-5" data-name="shirt" class="cls-8" x="186" y="344" width="12" height="16"/></g><g id="char-2-2_copy_3" data-name="char-2-2 copy 3"><rect id="shoe-11" data-name="shoe" class="cls-2" x="436" y="372" width="8" height="8"/><polygon id="legs-5" data-name="legs" class="cls-3" points="436 360 436 364 436 372 444 372 444 364 452 364 452 372 460 372 460 364 460 360 436 360"/><rect id="shoe-12" data-name="shoe" class="cls-2" x="452" y="368" width="8" height="4"/><polygon id="shirt-6" data-name="shirt" class="cls-5" points="454 344 454 340 442 340 442 344 432 348 432 360 464 360 464 348 454 344"/><rect id="hand-on-right-5" data-name="hand-on-right" class="cls-4" x="432" y="356" width="8" height="8"/><rect id="hand-on-left-5" data-name="hand-on-left" class="cls-4" x="460" y="356" width="4" height="4"/></g><g id="char-2-2_copy" data-name="char-2-2 copy"><rect id="shoe-13" data-name="shoe" class="cls-2" x="436" y="244" width="8" height="8"/><rect id="shoe-14" data-name="shoe" class="cls-2" x="452" y="244" width="8" height="8"/><polygon id="legs-6" data-name="legs" class="cls-3" points="436 232 436 236 436 244 444 244 444 236 452 236 452 244 460 244 460 236 460 232 436 232"/><rect id="hand-on-left-6" data-name="hand-on-left" class="cls-4" x="432" y="232" width="4" height="4"/><rect id="hand-on-right-6" data-name="hand-on-right" class="cls-4" x="460" y="232" width="4" height="4"/><polygon id="shirt-7" data-name="shirt" class="cls-5" points="456 216 456 212 440 212 440 216 432 220 432 232 464 232 464 220 456 216"/></g><g id="char-2-2_copy_2" data-name="char-2-2 copy 2"><rect id="shoe-15" data-name="shoe" class="cls-2" x="452" y="116" width="8" height="8"/><polygon id="legs-7" data-name="legs" class="cls-3" points="436 104 436 108 436 116 444 116 444 108 452 108 452 116 460 116 460 108 460 104 436 104"/><rect id="shoe-16" data-name="shoe" class="cls-2" x="436" y="112" width="8" height="4"/><polygon id="shirt-8" data-name="shirt" class="cls-5" points="454 88 454 84 442 84 442 88 432 92 432 104 464 104 464 92 454 88"/><rect id="hand-on-right-7" data-name="hand-on-right" class="cls-4" x="456" y="100" width="8" height="8"/><rect id="hand-on-left-7" data-name="hand-on-left" class="cls-4" x="432" y="100" width="4" height="4"/></g><g id="char-2-2"><rect id="shoe-17" data-name="shoe" class="cls-2" x="180" y="244" width="8" height="8"/><rect id="shoe-18" data-name="shoe" class="cls-2" x="196" y="244" width="8" height="8"/><polygon id="legs-8" data-name="legs" class="cls-3" points="180 232 180 236 180 244 188 244 188 236 196 236 196 244 204 244 204 236 204 232 180 232"/><g id="arms-3" data-name="arms"><polygon class="cls-5" points="176 232 184 232 184 216 176 220 176 232"/><polygon class="cls-5" points="200 216 200 232 208 232 208 220 200 216"/></g><rect id="zip-5" data-name="zip" class="cls-5" x="184" y="212" width="2" height="20"/><rect id="zip-6" data-name="zip" class="cls-5" x="198" y="212" width="2" height="20"/><rect id="shirt-9" data-name="shirt" class="cls-8" x="186" y="216" width="12" height="16"/><rect id="hand-on-left-8" data-name="hand-on-left" class="cls-4" x="176" y="232" width="4" height="4"/><rect id="hand-on-right-8" data-name="hand-on-right" class="cls-4" x="204" y="232" width="4" height="4"/><rect class="cls-10" x="160" y="152" width="16" height="24"/><polygon class="cls-4" points="216 176 216 152 168 152 168 176 160 176 160 192 168 192 168 208 186 208 186 216 198 216 198 208 216 208 216 192 224 192 224 176 216 176"/><polygon id="mouth-4" data-name="mouth" class="cls-9" points="192 192 184 192 186 198 192 198 198 198 200 192 192 192"/><rect id="eye-7" data-name="eye" x="172" y="176" width="8" height="8"/><rect id="eye-8" data-name="eye" x="204" y="176" width="8" height="8"/><polygon class="cls-10" points="216 152 216 144 168 144 168 152 216 180 224 180 224 152 216 152"/><polygon class="cls-10" points="168 192 160 192 160 208 164 208 164 212 186 212 186 208 168 208 168 192"/><polygon class="cls-10" points="216 208 198 208 198 212 220 214 220 208 224 208 224 192 216 192 216 208"/><path class="cls-9" d="M146,132"/></g><g id="char-1-3_copy" data-name="char-1-3 copy"><rect id="shirt-10" data-name="shirt" class="cls-5" x="308" y="344" width="20" height="16" transform="translate(636 704) rotate(-180)"/><polygon id="shoe-19" data-name="shoe" class="cls-11" points="336 364 344 364 344 372 336 380 328 380 328 372 336 364"/><rect id="pants-4" data-name="pants" class="cls-6" x="308" y="360" width="20" height="12" transform="translate(636 732) rotate(-180)"/><polygon id="shoe-20" data-name="shoe" class="cls-11" points="316 372 316 380 308 380 300 372 300 364 308 364 316 372"/><rect id="hand-4" data-name="hand" class="cls-7" x="320" y="356" width="8" height="8" transform="translate(648 720) rotate(-180)"/></g><g id="char-1-3"><rect id="shirt-11" data-name="shirt" class="cls-5" x="56" y="344" width="20" height="16"/><polygon id="shoe-21" data-name="shoe" class="cls-11" points="48 364 40 364 40 372 48 380 56 380 56 372 48 364"/><rect id="pants-5" data-name="pants" class="cls-6" x="56" y="360" width="20" height="12"/><polygon id="shoe-22" data-name="shoe" class="cls-11" points="68 372 68 380 76 380 84 372 84 364 76 364 68 372"/><rect id="hand-5" data-name="hand" class="cls-7" x="56" y="356" width="8" height="8"/></g><g id="char-1-2_copy" data-name="char-1-2 copy"><rect id="pants-6" data-name="pants" class="cls-6" x="308" y="232" width="20" height="12" transform="translate(636 476) rotate(-180)"/><rect class="cls-2" x="312" y="244" width="20" height="8" transform="translate(644 496) rotate(-180)"/><polygon class="cls-5" points="312 216 312 212 324 212 324 216 328 216 328 232 308 232 308 216 312 216"/><rect id="hand-6" data-name="hand" class="cls-7" x="314" y="228" width="8" height="8" transform="translate(636 464) rotate(-180)"/></g><g id="char-1-2"><rect id="pants-7" data-name="pants" class="cls-6" x="56" y="232" width="20" height="12"/><rect class="cls-2" x="52" y="244" width="20" height="8"/><polygon class="cls-5" points="72 216 72 212 60 212 60 216 56 216 56 232 76 232 76 216 72 216"/><rect id="hand-7" data-name="hand" class="cls-7" x="62" y="228" width="8" height="8"/></g><g id="char-1-1"><rect id="back-2" data-name="back" class="cls-1" width="128" height="128"/><rect id="eye-9" data-name="eye" x="40" y="52" width="8" height="8"/><path class="cls-7" d="M68,52V36H56V28H32V76h8v8H60v4H72V52ZM48,60H40V52h8Z"/><rect id="shirt-12" data-name="shirt" class="cls-5" x="56" y="88" width="20" height="16"/><polygon id="shoe-23" data-name="shoe" class="cls-11" points="48 108 40 108 40 116 48 124 56 124 56 116 48 108"/><polygon id="shoe-24" data-name="shoe" class="cls-11" points="68 116 68 124 76 124 84 116 84 108 76 108 68 116"/><rect id="pants-8" data-name="pants" class="cls-6" x="56" y="104" width="20" height="12"/><rect id="hand-8" data-name="hand" class="cls-7" x="68" y="100" width="8" height="8"/><polygon class="cls-10" points="76 28 76 20 30 20 30 26 30 28 30 46 50 30.61 50 38 62 38 62 52 58 52 65 63 58 74 72 74 72 86 84 74 84 28 76 28"/><rect id="eye-10" data-name="eye" x="40" y="176" width="8" height="8"/><path class="cls-7" d="M68,176V160H56v-8H32v48h8v8H60v4H72V176Zm-20,8H40v-8h8Z"/><polygon class="cls-10" points="76 152 76 144 30 144 30 150 30 152 30 170 50 154.62 50 162 62 162 62 176 58 176 65 187 58 198 72 198 72 210 84 198 84 152 76 152"/><rect id="eye-11" data-name="eye" x="40" y="308" width="8" height="8"/><path class="cls-7" d="M68,308V292H56v-8H32v48h8v8H60v4H72V308Zm-20,8H40v-8h8Z"/><polygon class="cls-10" points="76 284 76 276 30 276 30 282 30 284 30 302 50 286.62 50 294 62 294 62 308 58 308 65 319 58 330 72 330 72 342 84 330 84 284 76 284"/><rect id="eye-12" data-name="eye" x="40" y="432" width="8" height="8"/><path class="cls-7" d="M68,432V416H56v-8H32v48h8v8H60v4H72V432Zm-20,8H40v-8h8Z"/><polygon class="cls-10" points="76 408 76 400 30 400 30 406 30 408 30 426 50 410.62 50 418 62 418 62 432 58 432 65 443 58 454 72 454 72 466 84 454 84 408 76 408"/><rect id="eye-13" data-name="eye" x="336" y="432" width="8" height="8" transform="translate(680 872) rotate(-180)"/><path class="cls-7" d="M312,432v36h12v-4h20v-8h8V408H328v8H316v16Zm24,0h8v8h-8Z"/><polygon class="cls-10" points="308 408 308 400 354 400 354 406 354 408 354 426 334 410.62 334 418 322 418 322 432 326 432 319 443 326 454 312 454 312 466 300 454 300 408 308 408"/><rect id="eye-14" data-name="eye" x="336" y="308" width="8" height="8" transform="translate(680 624) rotate(-180)"/><path class="cls-7" d="M312,308v36h12v-4h20v-8h8V284H328v8H316v16Zm24,0h8v8h-8Z"/><polygon class="cls-10" points="308 284 308 276 354 276 354 282 354 284 354 302 334 286.62 334 294 322 294 322 308 326 308 319 319 326 330 312 330 312 342 300 330 300 284 308 284"/><rect id="eye-15" data-name="eye" x="336" y="176" width="8" height="8" transform="translate(680 360) rotate(-180)"/><path class="cls-7" d="M312,176v36h12v-4h20v-8h8V152H328v8H316v16Zm24,0h8v8h-8Z"/><polygon class="cls-10" points="308 152 308 144 354 144 354 150 354 152 354 170 334 154.62 334 162 322 162 322 176 326 176 319 187 326 198 312 198 312 210 300 198 300 152 308 152"/><rect id="eye-16" data-name="eye" x="336" y="52" width="8" height="8" transform="translate(680 112) rotate(-180)"/><path class="cls-7" d="M312,52V88h12V84h20V76h8V28H328v8H316V52Zm24,0h8v8h-8Z"/><polygon class="cls-10" points="308 28 308 20 354 20 354 26 354 28 354 46 334 30.61 334 38 322 38 322 52 326 52 319 63 326 74 312 74 312 86 300 74 300 28 308 28"/><polygon class="cls-10" points="472 152 472 144 424 144 424 152 416 152 416 208 420 208 420 212 476 212 476 208 480 208 480 152 472 152"/><polygon class="cls-10" points="472 408 472 400 424 400 424 408 416 408 416 464 420 464 420 468 476 468 476 464 480 464 480 408 472 408"/><polygon class="cls-10" points="472 28 472 20 424 20 424 28 416 28 416 84 420 84 420 88 476 88 476 84 480 84 480 28 472 28"/><polygon class="cls-10" points="472 284 472 276 424 276 424 284 416 284 416 340 420 340 420 344 476 344 476 340 480 340 480 284 472 284"/></g></g></svg>