<svg xmlns="http://www.w3.org/2000/svg" width="512" height="512" viewBox="0 0 512 512"><defs><style>.cls-1{fill:#bfbfbf;opacity:0}.cls-2{fill:#1bf2f8}.cls-3{fill:#22505d}.cls-4{fill:#af7555}.cls-5{fill:#6d1a7d}.cls-6{fill:#896297}.cls-7{fill:#5b5b56}.cls-8{fill:#ff7e7d}.cls-9{fill:#ffccca}.cls-10{fill:#fff}</style></defs><title>leslie-spritesheet</title><g id="Layer_2" data-name="Layer 2"><g id="char-2-2_copy_5" data-name="char-2-2 copy 5"><path id="back" class="cls-1" d="M384 384h128v128H384z"/><path id="shoe" class="cls-2" d="M436 500h8v8h-8z"/><path id="shoe-2" data-name="shoe" class="cls-2" d="M452 500h8v8h-8z"/><path id="legs" class="cls-3" d="M436 488v12h8v-8h8v8h8v-12h-24z"/><path id="hand-on-left" class="cls-4" d="M432 488h4v4h-4z"/><path id="hand-on-right" class="cls-4" d="M460 488h4v4h-4z"/><path id="shirt" class="cls-5" d="M456 472v-4h-16v4l-8 4v12h32v-12l-8-4z"/></g><g id="char-1-2_copy_3" data-name="char-1-2 copy 3"><path id="pants" class="cls-3" transform="rotate(-180 318 494)" d="M308 488h20v12h-20z"/><path class="cls-2" transform="rotate(-180 322 504)" d="M312 500h20v8h-20z"/><path class="cls-5" d="M312 472v-4h12v4h4v16h-20v-16h4z"/><path id="hand" class="cls-4" transform="rotate(-180 318 488)" d="M314 484h8v8h-8z"/></g><g id="char-2-2_copy_6" data-name="char-2-2 copy 6"><path id="shoe-3" data-name="shoe" class="cls-2" d="M180 500h8v8h-8z"/><path id="shoe-4" data-name="shoe" class="cls-2" d="M196 500h8v8h-8z"/><path id="legs-2" data-name="legs" class="cls-3" d="M180 488v12h8v-8h8v8h8v-12h-24z"/><path class="cls-5" d="M184 468v4l-8 4v12h10v-20h-2zM200 472v-4h-2v20h10v-12l-8-4z"/><path id="shirt-2" data-name="shirt" class="cls-6" d="M186 472h12v16h-12z"/><path id="hand-on-left-2" data-name="hand-on-left" class="cls-4" d="M176 488h4v4h-4z"/><path id="hand-on-right-2" data-name="hand-on-right" class="cls-4" d="M204 488h4v4h-4z"/><path class="cls-4" d="M216 432v-24h-48v24h-8v16h8v16h18v8h12v-8h18v-16h8v-16h-8z"/><path id="eye" d="M172 432h8v8h-8z"/><path id="eye-2" data-name="eye" d="M204 432h8v8h-8z"/><path class="cls-7" d="M160 408h8v24h-8zM216 408v-8h-48v8l48 28h8v-28h-8zM168 448h-8v16h4v4h22v-4h-18v-16zM216 464h-18v4l22 2v-6h4v-16h-8v16z"/><path id="mouth" class="cls-9" d="M190 450h-8l2 6h16l2-6h-12z"/></g><g id="char-1-2_copy_2" data-name="char-1-2 copy 2"><path id="pants-2" data-name="pants" class="cls-3" d="M56 488h20v12H56z"/><path class="cls-2" d="M52 500h20v8H52z"/><path class="cls-5" d="M72 472v-4H60v4h-4v16h20v-16h-4z"/><path id="hand-2" data-name="hand" class="cls-4" d="M62 484h8v8h-8z"/></g><g id="char-1-1_copy" data-name="char-1-1 copy"><path id="shirt-3" data-name="shirt" class="cls-5" transform="rotate(-180 318 96)" d="M308 88h20v16h-20z"/><path id="shoe-5" data-name="shoe" class="cls-2" d="M336 108h8v8l-8 8h-8v-8l8-8z"/><path id="shoe-6" data-name="shoe" class="cls-2" d="M316 116v8h-8l-8-8v-8h8l8 8z"/><path id="pants-3" data-name="pants" class="cls-3" transform="rotate(-180 318 110)" d="M308 104h20v12h-20z"/><path id="hand-3" data-name="hand" class="cls-4" transform="rotate(-180 312 104)" d="M308 100h8v8h-8z"/></g><g id="char-2-1_copy_2" data-name="char-2-1 copy 2"><path id="shoe-7" data-name="shoe" class="cls-2" d="M180 116h8v8h-8z"/><path id="legs-3" data-name="legs" class="cls-3" d="M180 104v12h8v-8h8v8h8v-12h-24z"/><path id="shoe-8" data-name="shoe" class="cls-2" d="M196 112h8v4h-8z"/><path class="cls-4" d="M216 52V28h-48v24h-8v16h8v16h18v8h12v-8h18V68h8V52h-8z"/><path id="mouth-2" data-name="mouth" class="cls-9" d="M190 70h-8l2 6h16l2-6h-12z"/><path class="cls-7" d="M160 28h8v24h-8zM216 28v-8h-48v8l48 28h8V28h-8zM168 68h-8v16h4v4h22v-4h-18V68zM216 84h-18v4l22 2v-6h4V68h-8v16z"/><path class="cls-4" d="M216 308v-24h-48v24h-8v16h8v16h18v8h12v-8h18v-16h8v-16h-8z"/><path id="eye-3" data-name="eye" d="M172 308h8v8h-8z"/><path id="eye-4" data-name="eye" d="M204 308h8v8h-8z"/><path class="cls-7" d="M160 284h8v24h-8zM216 284v-8h-48v8l48 28h8v-28h-8zM168 324h-8v16h4v4h22v-4h-18v-16zM216 340h-18v4l22 2v-6h4v-16h-8v16z"/><path id="shirt-4" data-name="shirt" class="cls-6" d="M186 88h12v16h-12z"/><path class="cls-5" d="M184 84v4h-8v16h10V84h-2zM200 88v-4h-2v20h10V88h-8z"/><path id="hand-on-left-3" data-name="hand-on-left" class="cls-4" d="M176 100h4v4h-4z"/><path id="hand-on-right-3" data-name="hand-on-right" class="cls-4" d="M200 100h8v8h-8z"/><path id="mouth-3" data-name="mouth" class="cls-9" d="M190 326h-8l2 6h16l2-6h-12z"/></g><g id="char-2-1_copy" data-name="char-2-1 copy"><path id="shoe-9" data-name="shoe" class="cls-2" d="M196 372h8v8h-8z"/><path id="legs-4" data-name="legs" class="cls-3" d="M180 360v12h8v-8h8v8h8v-12h-24z"/><path id="shoe-10" data-name="shoe" class="cls-2" d="M180 368h8v4h-8z"/><path class="cls-5" d="M184 340v4h-8v16h10v-20h-2zM200 344v-4h-2v20h10v-16h-8z"/><path id="hand-on-left-4" data-name="hand-on-left" class="cls-4" d="M204 356h4v4h-4z"/><path id="hand-on-right-4" data-name="hand-on-right" class="cls-4" d="M176 356h8v8h-8z"/><path id="shirt-5" data-name="shirt" class="cls-6" d="M186 344h12v16h-12z"/></g><g id="char-2-2_copy_3" data-name="char-2-2 copy 3"><path id="shoe-11" data-name="shoe" class="cls-2" d="M436 372h8v8h-8z"/><path id="legs-5" data-name="legs" class="cls-3" d="M436 360v12h8v-8h8v8h8v-12h-24z"/><path id="shoe-12" data-name="shoe" class="cls-2" d="M452 368h8v4h-8z"/><path id="shirt-6" data-name="shirt" class="cls-5" d="M454 344v-4h-12v4l-10 4v12h32v-12l-10-4z"/><path id="hand-on-right-5" data-name="hand-on-right" class="cls-4" d="M432 356h8v8h-8z"/><path id="hand-on-left-5" data-name="hand-on-left" class="cls-4" d="M460 356h4v4h-4z"/></g><g id="char-2-2_copy" data-name="char-2-2 copy"><path id="shoe-13" data-name="shoe" class="cls-2" d="M436 244h8v8h-8z"/><path id="shoe-14" data-name="shoe" class="cls-2" d="M452 244h8v8h-8z"/><path id="legs-6" data-name="legs" class="cls-3" d="M436 232v12h8v-8h8v8h8v-12h-24z"/><path id="hand-on-left-6" data-name="hand-on-left" class="cls-4" d="M432 232h4v4h-4z"/><path id="hand-on-right-6" data-name="hand-on-right" class="cls-4" d="M460 232h4v4h-4z"/><path id="shirt-7" data-name="shirt" class="cls-5" d="M456 216v-4h-16v4l-8 4v12h32v-12l-8-4z"/></g><g id="char-2-2_copy_2" data-name="char-2-2 copy 2"><path id="shoe-15" data-name="shoe" class="cls-2" d="M452 116h8v8h-8z"/><path id="legs-7" data-name="legs" class="cls-3" d="M436 104v12h8v-8h8v8h8v-12h-24z"/><path id="shoe-16" data-name="shoe" class="cls-2" d="M436 112h8v4h-8z"/><path id="shirt-8" data-name="shirt" class="cls-5" d="M454 88v-4h-12v4l-10 4v12h32V92l-10-4z"/><path id="hand-on-right-7" data-name="hand-on-right" class="cls-4" d="M456 100h8v8h-8z"/><path id="hand-on-left-7" data-name="hand-on-left" class="cls-4" d="M432 100h4v4h-4z"/></g><g id="char-2-2"><path id="shoe-17" data-name="shoe" class="cls-2" d="M180 244h8v8h-8z"/><path id="shoe-18" data-name="shoe" class="cls-2" d="M196 244h8v8h-8z"/><path id="legs-8" data-name="legs" class="cls-3" d="M180 232v12h8v-8h8v8h8v-12h-24z"/><path class="cls-5" d="M184 212v4l-8 4v12h10v-20h-2zM200 216v-4h-2v20h10v-12l-8-4z"/><path id="shirt-9" data-name="shirt" class="cls-6" d="M186 216h12v16h-12z"/><path id="hand-on-left-8" data-name="hand-on-left" class="cls-4" d="M176 232h4v4h-4z"/><path id="hand-on-right-8" data-name="hand-on-right" class="cls-4" d="M204 232h4v4h-4z"/><path class="cls-7" d="M160 152h16v24h-16z"/><path class="cls-4" d="M216 176v-24h-48v24h-8v16h8v16h18v8h12v-8h18v-16h8v-16h-8z"/><path id="eye-5" data-name="eye" d="M172 176h8v8h-8z"/><path id="eye-6" data-name="eye" d="M204 176h8v8h-8z"/><path class="cls-7" d="M216 152v-8h-48v8l48 28h8v-28h-8zM168 192h-8v16h4v4h22v-4h-18v-16zM216 208h-18v4l22 2v-6h4v-16h-8v16z"/><path id="mouth-4" data-name="mouth" class="cls-9" d="M190 194h-8l2 6h16l2-6h-12z"/></g><g id="char-1-3_copy" data-name="char-1-3 copy"><path id="shirt-10" data-name="shirt" class="cls-5" transform="rotate(-180 318 352)" d="M308 344h20v16h-20z"/><path id="shoe-19" data-name="shoe" class="cls-2" d="M336 364h8v8l-8 8h-8v-8l8-8z"/><path id="pants-4" data-name="pants" class="cls-3" transform="rotate(-180 318 366)" d="M308 360h20v12h-20z"/><path id="shoe-20" data-name="shoe" class="cls-2" d="M316 372v8h-8l-8-8v-8h8l8 8z"/><path id="hand-4" data-name="hand" class="cls-4" transform="rotate(-180 324 360)" d="M320 356h8v8h-8z"/></g><g id="char-1-3"><path id="shirt-11" data-name="shirt" class="cls-5" d="M56 344h20v16H56z"/><path id="shoe-21" data-name="shoe" class="cls-2" d="M48 364h-8v8l8 8h8v-8l-8-8z"/><path id="pants-5" data-name="pants" class="cls-3" d="M56 360h20v12H56z"/><path id="shoe-22" data-name="shoe" class="cls-2" d="M68 372v8h8l8-8v-8h-8l-8 8z"/><path id="hand-5" data-name="hand" class="cls-4" d="M56 356h8v8h-8z"/></g><g id="char-1-2_copy" data-name="char-1-2 copy"><path id="pants-6" data-name="pants" class="cls-3" transform="rotate(-180 318 238)" d="M308 232h20v12h-20z"/><path class="cls-2" transform="rotate(-180 322 248)" d="M312 244h20v8h-20z"/><path class="cls-5" d="M312 216v-4h12v4h4v16h-20v-16h4z"/><path id="hand-6" data-name="hand" class="cls-4" transform="rotate(-180 318 232)" d="M314 228h8v8h-8z"/></g><g id="char-1-2"><path id="pants-7" data-name="pants" class="cls-3" d="M56 232h20v12H56z"/><path class="cls-2" d="M52 244h20v8H52z"/><path class="cls-5" d="M72 216v-4H60v4h-4v16h20v-16h-4z"/><path id="hand-7" data-name="hand" class="cls-4" d="M62 228h8v8h-8z"/></g><g id="char-1-1"><path id="back-2" data-name="back" class="cls-1" d="M0 0h128v128H0z"/><path id="eye-7" data-name="eye" d="M40 52h8v8h-8z"/><path class="cls-4" d="M68 52V36H56v-8H32v48h8v8h20v4h12V52zm-20 8h-8v-8h8z"/><path id="shirt-12" data-name="shirt" class="cls-5" d="M56 88h20v16H56z"/><path id="shoe-23" data-name="shoe" class="cls-2" d="M48 108h-8v8l8 8h8v-8l-8-8z"/><path id="shoe-24" data-name="shoe" class="cls-2" d="M68 116v8h8l8-8v-8h-8l-8 8z"/><path id="pants-8" data-name="pants" class="cls-3" d="M56 104h20v12H56z"/><path id="hand-8" data-name="hand" class="cls-4" d="M68 100h8v8h-8z"/><path class="cls-7" d="M76 28v-8H30v26l20-15.39V38h12v14h-4l7 11-7 11h14v12l12-12V28h-8z"/><path id="eye-8" data-name="eye" d="M40 176h8v8h-8z"/><path class="cls-4" d="M68 176v-16H56v-8H32v48h8v8h20v4h12v-36zm-20 8h-8v-8h8z"/><path class="cls-7" d="M76 152v-8H30v26l20-15.38V162h12v14h-4l7 11-7 11h14v12l12-12v-46h-8z"/><path id="eye-9" data-name="eye" d="M40 308h8v8h-8z"/><path class="cls-4" d="M68 308v-16H56v-8H32v48h8v8h20v4h12v-36zm-20 8h-8v-8h8z"/><path class="cls-7" d="M76 284v-8H30v26l20-15.38V294h12v14h-4l7 11-7 11h14v12l12-12v-46h-8z"/><path id="eye-10" data-name="eye" d="M40 432h8v8h-8z"/><path class="cls-4" d="M68 432v-16H56v-8H32v48h8v8h20v4h12v-36zm-20 8h-8v-8h8z"/><path class="cls-7" d="M76 408v-8H30v26l20-15.38V418h12v14h-4l7 11-7 11h14v12l12-12v-46h-8z"/><path id="eye-11" data-name="eye" transform="rotate(-180 340 436)" d="M336 432h8v8h-8z"/><path class="cls-4" d="M312 432v36h12v-4h20v-8h8v-48h-24v8h-12v16zm24 0h8v8h-8z"/><path class="cls-7" d="M308 408v-8h46v26l-20-15.38V418h-12v14h4l-7 11 7 11h-14v12l-12-12v-46h8z"/><path id="eye-12" data-name="eye" transform="rotate(-180 340 312)" d="M336 308h8v8h-8z"/><path class="cls-4" d="M312 308v36h12v-4h20v-8h8v-48h-24v8h-12v16zm24 0h8v8h-8z"/><path class="cls-7" d="M308 284v-8h46v26l-20-15.38V294h-12v14h4l-7 11 7 11h-14v12l-12-12v-46h8z"/><path id="eye-13" data-name="eye" transform="rotate(-180 340 180)" d="M336 176h8v8h-8z"/><path class="cls-4" d="M312 176v36h12v-4h20v-8h8v-48h-24v8h-12v16zm24 0h8v8h-8z"/><path class="cls-7" d="M308 152v-8h46v26l-20-15.38V162h-12v14h4l-7 11 7 11h-14v12l-12-12v-46h8z"/><path id="eye-14" data-name="eye" transform="rotate(-180 340 56)" d="M336 52h8v8h-8z"/><path class="cls-4" d="M312 52v36h12v-4h20v-8h8V28h-24v8h-12v16zm24 0h8v8h-8z"/><path class="cls-7" d="M308 28v-8h46v26l-20-15.39V38h-12v14h4l-7 11 7 11h-14v12l-12-12V28h8zM472 152v-8h-48v8h-8v56h4v4h56v-4h4v-56h-8zM472 408v-8h-48v8h-8v56h4v4h56v-4h4v-56h-8zM472 28v-8h-48v8h-8v56h4v4h56v-4h4V28h-8zM472 284v-8h-48v8h-8v56h4v4h56v-4h4v-56h-8z"/></g><g id="adds"><path d="M32 52v-6h-8v20h8v-6h22v-8H32zM32 176v-6h-8v20h8v-6h22v-8H32zM32 308v-6h-8v20h8v-6h22v-8H32zM32 432v-6h-8v20h8v-6h22v-8H32zM352 432v-6h8v20h-8v-6h-22v-8h22zM352 308v-6h8v20h-8v-6h-22v-8h22zM352 176v-6h8v20h-8v-6h-22v-8h22zM352 52v-6h8v20h-8v-6h-22v-8h22zM212 44h-16v8h-8v-8h-24v24h24v-8h8v8h24V44zm-32 16h-8v-8h8zm32 0h-8v-8h8z"/><path class="cls-10" d="M172 52h8v8h-8zM204 52h8v8h-8z"/><path d="M212 168h-16v8h-8v-8h-24v24h24v-8h8v8h24v-24zm-32 16h-8v-8h8zm32 0h-8v-8h8z"/><path class="cls-10" d="M172 176h8v8h-8zM204 176h8v8h-8z"/><path d="M212 300h-16v8h-8v-8h-24v24h24v-8h8v8h24v-24zm-32 16h-8v-8h8zm32 0h-8v-8h8z"/><path class="cls-10" d="M172 308h8v8h-8zM204 308h8v8h-8z"/><path d="M212 424h-16v8h-8v-8h-24v24h24v-8h8v8h24v-24zm-32 16h-8v-8h8zm32 0h-8v-8h8z"/><path class="cls-10" d="M172 432h8v8h-8zM204 432h8v8h-8z"/></g></g></svg>