<svg xmlns="http://www.w3.org/2000/svg" width="512" height="512" viewBox="0 0 512 512"><defs><style>.cls-1{fill:#9a4f35}.cls-2{fill:#bfbfbf;opacity:0}.cls-3{fill:#ffcbc9}.cls-4{fill:#664c22}.cls-5{fill:#758aa2}.cls-6{fill:#bf8b31}.cls-7{opacity:.15}.cls-8{fill:#252525}.cls-9{fill:#258927}.cls-10{fill:#2f3533}.cls-11{fill:#ff7e7d}.cls-12{fill:#7f92b1}.cls-13{fill:#899ec1}.cls-14{fill:#ffcdcb}</style></defs><title>mark-spritesheet</title><g id="Layer_2" data-name="Layer 2"><g id="ALIGNMENT-LAYER"><path id="shoe" class="cls-1" d="M336 364h8v8l-8 8h-8v-8l8-8z"/><path id="shoe-2" data-name="shoe" class="cls-1" d="M336 108h8v8l-8 8h-8v-8l8-8z"/><path id="shoe-3" data-name="shoe" class="cls-1" d="M52 364h-8v8l8 8h8v-8l-8-8z"/><path id="shoe-4" data-name="shoe" class="cls-1" d="M52 108h-8v8l8 8h8v-8l-8-8z"/><path id="shoe-5" data-name="shoe" class="cls-1" d="M52 364h-8v8l8 8h8v-8l-8-8z"/><path id="BOTTOM-RIGHT-SPACER" class="cls-2" transform="rotate(-180 448 448)" d="M384 384h128v128H384z"/><path id="TOP-LEFT-SPACER" class="cls-2" d="M0 0h128v128H0z"/></g><g id="CHARACTER-LAYER"><path class="cls-3" d="M480 302h6v16h-6zM410 302h6v16h-6zM464 278v-8h-32v8h-16v54h22v4h22v-4h20v-54h-16z"/><path class="cls-4" d="M472 278v-8h-8v-8h-32v8h-8v8h-8v50h64v-50h-8z"/><path class="cls-5" d="M328 468v-6h-4v-4h-20v28h28v-18h-4z"/><path id="shoe-6" data-name="shoe" class="cls-6" d="M310 116v8h-8l-8-8v-8h8l8 8z"/><path class="cls-3" d="M342 282v-8h-22v8h-4v24h-4v8h-2v8h-6v8h4v4h14v-4h24v-8h4v-40h-8z"/><path d="M334 300h8v8h-8z"/><path class="cls-7" d="M316 282h2v20h-2zM312 306h2v6h-2z"/><path class="cls-4" d="M342 274v-8h-6v-2h-28v2h-4v8h-8v8h-4v24h2v12h6v4h10v-8h2v-8h4v-24h4v-4h22v4h8v-8h-8z"/><path class="cls-3" d="M480 46h6v16h-6zM410 46h6v16h-6zM464 22v-8h-32v8h-16v54h22v4h22v-4h20V22h-16z"/><path class="cls-4" d="M472 22v-8h-8V6h-32v8h-8v8h-8v50h64V22h-8z"/><path class="cls-3" d="M208 402v-8h-32v8h-16v54h22v4h22v-4h20v-54h-16zM208 146v-8h-32v8h-16v54h22v4h22v-4h20v-54h-16z"/><path class="cls-5" d="M210 82v-4h-4v-4h-26v4h-6v4h-4v16h44V82h-4z"/><path class="cls-3" d="M208 22v-8h-32v8h-16v54h64V22h-16z"/><path class="cls-6" d="M176 244h12v8h-12z"/><path class="cls-3" d="M224 170h6v16h-6zM154 170h6v16h-6z"/><path d="M174 170h8v8h-8zM202 170h8v8h-8z"/><path class="cls-4" d="M160 146h8v16h-8zM216 146h8v16h-8zM168 138h8v8h-8zM208 138h8v8h-8zM176 130v8h8v8h16v-8h8v-8h-32z"/><path class="cls-6" d="M308 244h24v8h-24z"/><path class="cls-3" d="M312 484h8v8h-8z"/><path id="shoe-7" data-name="shoe" class="cls-6" d="M336 364h8v8l-8 8h-8v-8l8-8z"/><path class="cls-8" d="M304 360h26v12h-26z"/><path id="shoe-8" data-name="shoe" class="cls-6" d="M310 372v8h-8l-8-8v-8h8l8 8z"/><path id="shoe-9" data-name="shoe" class="cls-1" d="M52 108h-8v8l8 8h8v-8l-8-8z"/><path id="shoe-10" data-name="shoe" class="cls-1" d="M78 116v8h8l8-8v-8h-8l-8 8z"/><path class="cls-8" d="M60 244h26"/><path class="cls-4" d="M38 142h8"/><path class="cls-3" d="M46 142h16"/><path class="cls-9" d="M86 104H60"/><path id="shoe-11" data-name="shoe" class="cls-1" d="M52 364h-8v8l8 8h8v-8l-8-8z"/><path class="cls-8" d="M60 360v12M86 372v-12"/><path id="shoe-12" data-name="shoe" class="cls-1" d="M78 372v8h8l8-8v-8h-8l-8 8z"/><path class="cls-6" d="M196 244h12v8h-12z"/><path class="cls-10" d="M170 232v2h6v10h12v-10h8v10h12v-10h6v-2h-44z"/><path class="cls-5" d="M210 212v-4h-4v-4h-26v4h-6v4h-4v20h44v-20h-4z"/><path class="cls-3" d="M210 226h8v8h-8zM166 226h8v8h-8z"/><path class="cls-11" d="M184 190h16v4h-16z"/><path class="cls-7" d="M160 166h2v24h-2zM222 166h2v24h-2z"/><path class="cls-12" d="M206 216v-6h-28v6h-4v16h36v-16h-4z"/><path class="cls-13" d="M182 218h20v14h-20z"/><path class="cls-6" d="M432 244h12v8h-12zM452 244h12v8h-12z"/><path class="cls-10" d="M426 232v2h6v10h12v-10h8v10h12v-10h6v-2h-44z"/><path class="cls-5" d="M466 212v-4h-4v-4h-26v4h-6v4h-4v20h44v-20h-4z"/><path class="cls-3" d="M470 226h4v8h-4zM422 226h4v8h-4z"/><path class="cls-6" d="M176 116h12v8h-12z"/><path class="cls-3" d="M224 46h6v16h-6zM154 46h6v16h-6z"/><path d="M174 46h8v8h-8zM202 46h8v8h-8z"/><path class="cls-4" d="M160 22h8v16h-8zM216 22h8v16h-8zM168 14h8v8h-8zM208 14h8v8h-8zM176 6v8h8v8h16v-8h8V6h-32z"/><path class="cls-6" d="M196 110h12v4h-12z"/><path class="cls-10" d="M174 104v2h2v10h12v-10h8v4h12v-6h-34z"/><path class="cls-3" d="M182 72h22v4h-22zM170 94h4v4h-4z"/><path class="cls-11" d="M184 66h16v4h-16z"/><path class="cls-7" d="M160 42h2v24h-2zM222 42h2v24h-2z"/><path class="cls-12" d="M206 88v-6h-28v6h-4v16h36V88h-4z"/><path class="cls-13" d="M182 90h20v14h-20z"/><path class="cls-6" d="M176 500h12v8h-12z"/><path class="cls-3" d="M224 426h6v16h-6zM154 426h6v16h-6z"/><path d="M174 426h8v8h-8zM202 426h8v8h-8z"/><path class="cls-4" d="M160 402h8v16h-8zM216 402h8v16h-8zM168 394h8v8h-8zM208 394h8v8h-8zM176 386v8h8v8h16v-8h8v-8h-32z"/><path class="cls-6" d="M196 500h12v8h-12z"/><path class="cls-10" d="M170 488v2h6v10h12v-10h8v10h12v-10h6v-2h-44z"/><path class="cls-5" d="M210 468v-4h-4v-4h-26v4h-6v4h-4v20h44v-20h-4z"/><path class="cls-3" d="M210 482h8v8h-8zM166 482h8v8h-8z"/><path class="cls-11" d="M184 446h16v4h-16z"/><path class="cls-7" d="M160 422h2v24h-2zM222 422h2v24h-2z"/><path class="cls-12" d="M206 472v-6h-28v6h-4v16h36v-16h-4z"/><path class="cls-13" d="M182 474h20v14h-20z"/><path class="cls-3" d="M204 94h12v12h-12z"/><path class="cls-5" d="M210 338v-4h-4v-4h-26v4h-6v4h-4v16h44v-16h-4z"/><path class="cls-3" d="M208 278v-8h-32v8h-16v54h64v-54h-16z"/><path class="cls-6" d="M196 372h12v8h-12z"/><path class="cls-3" d="M224 302h6v16h-6zM154 302h6v16h-6z"/><path d="M174 302h8v8h-8zM202 302h8v8h-8z"/><path class="cls-4" d="M160 278h8v16h-8zM216 278h8v16h-8zM168 270h8v8h-8zM208 270h8v8h-8zM176 262v8h8v8h16v-8h8v-8h-32z"/><path class="cls-6" d="M176 366h12v4h-12z"/><path class="cls-10" d="M174 360v2h2v4h12v-4h8v10h12v-12h-34z"/><path class="cls-3" d="M182 328h22v4h-22zM210 350h4v4h-4z"/><path class="cls-11" d="M184 322h16v4h-16z"/><path class="cls-7" d="M160 298h2v24h-2zM222 298h2v24h-2z"/><path class="cls-12" d="M206 344v-6h-28v6h-4v16h36v-16h-4z"/><path class="cls-13" d="M182 346h20v14h-20z"/><path class="cls-3" d="M168 350h12v12h-12zM480 170h6v16h-6zM410 170h6v16h-6zM464 146v-8h-32v8h-16v54h22v4h22v-4h20v-54h-16z"/><path class="cls-4" d="M472 146v-8h-8v-8h-32v8h-8v8h-8v50h64v-50h-8z"/><path class="cls-6" d="M432 116h12v8h-12zM452 112h12v4h-12z"/><path class="cls-10" d="M426 104v2h6v10h12v-10h8v6h12v-6h4v-2h-42z"/><path class="cls-6" d="M432 500h12v8h-12z"/><path class="cls-3" d="M480 426h6v16h-6zM410 426h6v16h-6z"/><path class="cls-6" d="M452 500h12v8h-12z"/><path class="cls-10" d="M426 488v2h6v10h12v-10h8v10h12v-10h6v-2h-44z"/><path class="cls-5" d="M466 468v-4h-4v-4h-26v4h-6v4h-4v20h44v-20h-4z"/><path class="cls-3" d="M464 402v-8h-32v8h-16v54h22v4h22v-4h20v-54h-16zM470 482h4v8h-4zM422 482h4v8h-4z"/><path class="cls-4" d="M472 402v-8h-8v-8h-32v8h-8v8h-8v50h64v-50h-8z"/><path class="cls-6" transform="rotate(-180 438 370)" d="M432 368h12v4h-12z"/><path class="cls-6" d="M452 372h12v8h-12z"/><path class="cls-10" d="M428 360v2h4v6h12v-6h8v10h12v-10h6v-2h-42z"/><path class="cls-6" d="M308 500h24v8h-24z"/><path class="cls-3" d="M342 406v-8h-22v8h-4v24h-4v8h-2v8h-6v8h4v4h14v-4h24v-8h4v-40h-8z"/><path class="cls-8" d="M320 486v2h-8v-2h-8v14h24v-14h-8z"/><path d="M334 424h8v8h-8z"/><path class="cls-7" d="M316 406h2v20h-2zM312 430h2v6h-2z"/><path class="cls-4" d="M342 398v-8h-6v-2h-28v2h-4v8h-8v8h-4v24h2v12h6v4h10v-8h2v-8h4v-24h4v-4h22v4h8v-8h-8z"/><path class="cls-5" d="M312 472h6v4h-6z"/><path id="shoe-13" data-name="shoe" class="cls-6" d="M336 108h8v8l-8 8h-8v-8l8-8z"/><path class="cls-3" d="M306 98h8v8h-8z"/><path class="cls-12" d="M308 462h20v24h-20z"/><path class="cls-3" d="M312 482h8v8h-8z"/><path class="cls-14" d="M312 476h6v6h-6z"/><path class="cls-5" d="M328 212v-6h-4v-4h-20v28h28v-18h-4z"/><path class="cls-3" d="M312 228h8v8h-8zM342 150v-8h-22v8h-4v24h-4v8h-2v8h-6v8h4v4h14v-4h24v-8h4v-40h-8z"/><path class="cls-8" d="M320 230v2h-8v-2h-8v14h24v-14h-8z"/><path d="M334 168h8v8h-8z"/><path class="cls-7" d="M316 150h2v20h-2zM312 174h2v6h-2z"/><path class="cls-4" d="M342 142v-8h-6v-2h-28v2h-4v8h-8v8h-4v24h2v12h6v4h10v-8h2v-8h4v-24h4v-4h22v4h8v-8h-8z"/><path class="cls-5" d="M312 216h6v4h-6z"/><path class="cls-12" d="M308 206h20v24h-20z"/><path class="cls-3" d="M312 226h8v8h-8z"/><path class="cls-14" d="M312 220h6v6h-6z"/><path class="cls-5" d="M328 342v-6h-4v-4h-20v28h28v-18h-4z"/><path class="cls-5" d="M312 346h6v4h-6z"/><path class="cls-12" d="M308 336h20v24h-20z"/><path class="cls-3" d="M316 356h8v8h-8z"/><path class="cls-14" d="M312 350h6v6h-6z"/><path class="cls-3" d="M342 26v-8h-22v8h-4v24h-4v8h-2v8h-6v8h4v4h14v-4h24v-8h4V26h-8z"/><path d="M334 44h8v8h-8z"/><path class="cls-7" d="M316 26h2v20h-2zM312 50h2v6h-2z"/><path class="cls-4" d="M342 18v-8h-6V8h-28v2h-4v8h-8v8h-4v24h2v12h6v4h10v-8h2v-8h4V26h4v-4h22v4h8v-8h-8z"/><path class="cls-8" d="M304 104h26v12h-26z"/><path class="cls-5" d="M328 86v-6h-4v-4h-20v28h28V86h-4z"/><path class="cls-5" d="M312 90h6v4h-6z"/><path class="cls-12" d="M308 80h20v24h-20z"/><path class="cls-3" d="M306 100h8v8h-8z"/><path class="cls-14" d="M312 94h6v6h-6z"/><path class="cls-5" d="M60 468v-6h4v-4h20v28H56v-18h4z"/><path id="shoe-14" data-name="shoe" class="cls-6" d="M78 116v8h8l8-8v-8h-8l-8 8z"/><path class="cls-3" d="M46 282v-8h22v8h4v24h4v8h2v8h6v8h-4v4H66v-4H42v-8h-4v-40h8z"/><path transform="rotate(-180 50 304)" d="M46 300h8v8h-8z"/><path class="cls-7" transform="rotate(-180 71 292)" d="M70 282h2v20h-2z"/><path class="cls-7" transform="rotate(-180 75 309)" d="M74 306h2v6h-2z"/><path class="cls-4" d="M46 274v-8h6v-2h28v2h4v8h8v8h4v24h-2v12h-6v4H78v-8h-2v-8h-4v-24h-4v-4H46v4h-8v-8h8z"/><path class="cls-6" transform="rotate(-180 68 248)" d="M56 244h24v8H56z"/><path class="cls-3" transform="rotate(-180 72 488)" d="M68 484h8v8h-8z"/><path id="shoe-15" data-name="shoe" class="cls-6" d="M52 364h-8v8l8 8h8v-8l-8-8z"/><path class="cls-8" transform="rotate(-180 71 366)" d="M58 360h26v12H58z"/><path id="shoe-16" data-name="shoe" class="cls-6" d="M78 372v8h8l8-8v-8h-8l-8 8z"/><path class="cls-6" transform="rotate(-180 68 504)" d="M56 500h24v8H56z"/><path class="cls-3" d="M46 406v-8h22v8h4v24h4v8h2v8h6v8h-4v4H66v-4H42v-8h-4v-40h8z"/><path class="cls-8" d="M68 486v2h8v-2h8v14H60v-14h8z"/><path transform="rotate(-180 50 428)" d="M46 424h8v8h-8z"/><path class="cls-7" transform="rotate(-180 71 416)" d="M70 406h2v20h-2z"/><path class="cls-7" transform="rotate(-180 75 433)" d="M74 430h2v6h-2z"/><path class="cls-4" d="M46 398v-8h6v-2h28v2h4v8h8v8h4v24h-2v12h-6v4H78v-8h-2v-8h-4v-24h-4v-4H46v4h-8v-8h8z"/><path class="cls-5" transform="rotate(-180 73 474)" d="M70 472h6v4h-6z"/><path id="shoe-17" data-name="shoe" class="cls-6" d="M52 108h-8v8l8 8h8v-8l-8-8z"/><path class="cls-3" transform="rotate(-180 78 102)" d="M74 98h8v8h-8z"/><path class="cls-12" transform="rotate(-180 70 474)" d="M60 462h20v24H60z"/><path class="cls-3" transform="rotate(-180 72 486)" d="M68 482h8v8h-8z"/><path class="cls-14" transform="rotate(-180 73 479)" d="M70 476h6v6h-6z"/><path class="cls-5" d="M60 212v-6h4v-4h20v28H56v-18h4z"/><path class="cls-3" transform="rotate(-180 72 232)" d="M68 228h8v8h-8z"/><path class="cls-3" d="M46 150v-8h22v8h4v24h4v8h2v8h6v8h-4v4H66v-4H42v-8h-4v-40h8z"/><path class="cls-8" d="M68 230v2h8v-2h8v14H60v-14h8z"/><path transform="rotate(-180 50 172)" d="M46 168h8v8h-8z"/><path class="cls-7" transform="rotate(-180 71 160)" d="M70 150h2v20h-2z"/><path class="cls-7" transform="rotate(-180 75 177)" d="M74 174h2v6h-2z"/><path class="cls-4" d="M46 142v-8h6v-2h28v2h4v8h8v8h4v24h-2v12h-6v4H78v-8h-2v-8h-4v-24h-4v-4H46v4h-8v-8h8z"/><path class="cls-5" transform="rotate(-180 73 218)" d="M70 216h6v4h-6z"/><path class="cls-12" transform="rotate(-180 70 218)" d="M60 206h20v24H60z"/><path class="cls-3" transform="rotate(-180 72 230)" d="M68 226h8v8h-8z"/><path class="cls-14" transform="rotate(-180 73 223)" d="M70 220h6v6h-6z"/><path class="cls-5" d="M60 342v-6h4v-4h20v28H56v-18h4z"/><path class="cls-5" transform="rotate(-180 73 348)" d="M70 346h6v4h-6z"/><path class="cls-12" transform="rotate(-180 70 348)" d="M60 336h20v24H60z"/><path class="cls-3" transform="rotate(-180 68 360)" d="M64 356h8v8h-8z"/><path class="cls-14" transform="rotate(-180 73 353)" d="M70 350h6v6h-6z"/><path class="cls-3" d="M46 26v-8h22v8h4v24h4v8h2v8h6v8h-4v4H66v-4H42v-8h-4V26h8z"/><path transform="rotate(-180 50 48)" d="M46 44h8v8h-8z"/><path class="cls-7" transform="rotate(-180 71 36)" d="M70 26h2v20h-2z"/><path class="cls-7" transform="rotate(-180 75 53)" d="M74 50h2v6h-2z"/><path class="cls-4" d="M46 18v-8h6V8h28v2h4v8h8v8h4v24h-2v12h-6v4H78v-8h-2v-8h-4V26h-4v-4H46v4h-8v-8h8z"/><path class="cls-8" transform="rotate(-180 71 110)" d="M58 104h26v12H58z"/><path class="cls-5" d="M60 86v-6h4v-4h20v28H56V86h4z"/><path class="cls-5" transform="rotate(-180 73 92)" d="M70 90h6v4h-6z"/><path class="cls-12" transform="rotate(-180 70 92)" d="M60 80h20v24H60z"/><path class="cls-3" transform="rotate(-180 78 104)" d="M74 100h8v8h-8z"/><path class="cls-14" transform="rotate(-180 73 97)" d="M70 94h6v6h-6z"/><path class="cls-3" d="M468 90h2v2h-2z"/><path class="cls-5" d="M468 84h-2v-4h-4v-4h-26v4h-6v4h-4v20h42V90h4v-6h-4z"/><path class="cls-3" d="M426 346h2v2h-2z"/><path class="cls-5" d="M466 340v-4h-4v-4h-26v4h-6v4h-6v6h4v14h42v-20h-4z"/><path class="cls-3" d="M424 96h12v12h-12zM460 352h12v12h-12z"/></g></g></svg>