<svg xmlns="http://www.w3.org/2000/svg" width="512" height="512" viewBox="0 0 510 512"><defs><style>.cls-1{fill:#bfbfbf;opacity:0}.cls-2{fill:#9a523a}.cls-3{fill:#868752}.cls-4{fill:#ffcdcb}.cls-5{fill:#2cdee3}.cls-6{fill:#ffccca}.cls-7{fill:#ff7e7d}.cls-8{fill:#9a4f35}.cls-9{fill:#fff}.cls-10{fill:#5ecebc}.cls-11{fill:#dbe03b}.cls-12{fill:#603d09}.cls-13{fill:#e348a1}.cls-14{fill:#7e6026}</style></defs><title>zani-spritesheet</title><g id="Layer_2" data-name="Layer 2"><g id="char-2-2_copy_5" data-name="char-2-2 copy 5"><path id="back" class="cls-1" d="M382 384h128v128H382z"/><path id="shoe" class="cls-2" d="M436 500h8v8h-8z"/><path id="shoe-2" data-name="shoe" class="cls-2" d="M452 500h8v8h-8z"/><path id="legs" class="cls-3" d="M436 488v12h8v-8h8v8h8v-12h-24z"/><path id="hand-on-left" class="cls-4" d="M432 488h4v4h-4z"/><path id="hand-on-right" class="cls-4" d="M460 488h4v4h-4z"/><path id="shirt" class="cls-5" d="M456 472v-4h-16v4l-8 4v12h32v-12l-8-4z"/></g><g id="char-1-2_copy_3" data-name="char-1-2 copy 3"><path id="pants" class="cls-3" transform="rotate(-180 318 494)" d="M308 488h20v12h-20z"/><path class="cls-2" transform="rotate(-180 322 504)" d="M312 500h20v8h-20z"/><path class="cls-5" d="M312 472v-4h12v4h4v16h-20v-16h4z"/><path id="hand" class="cls-6" transform="rotate(-180 318 488)" d="M314 484h8v8h-8z"/></g><g id="char-2-2_copy_6" data-name="char-2-2 copy 6"><path id="shoe-3" data-name="shoe" class="cls-2" d="M180 500h8v8h-8z"/><path id="shoe-4" data-name="shoe" class="cls-2" d="M196 500h8v8h-8z"/><path id="legs-2" data-name="legs" class="cls-3" d="M180 488v12h8v-8h8v8h8v-12h-24z"/><path id="hand-on-left-2" data-name="hand-on-left" class="cls-4" d="M176 488h4v4h-4z"/><path id="hand-on-right-2" data-name="hand-on-right" class="cls-4" d="M204 488h4v4h-4z"/></g><g id="char-1-2_copy_2" data-name="char-1-2 copy 2"><path id="pants-2" data-name="pants" class="cls-3" d="M56 488h20v12H56z"/><path class="cls-2" d="M52 500h20v8H52z"/><path class="cls-5" d="M72 472v-4H60v4h-4v16h20v-16h-4z"/><path id="hand-2" data-name="hand" class="cls-6" d="M62 484h8v8h-8z"/></g><g id="char-1-1_copy" data-name="char-1-1 copy"><path id="shirt-2" data-name="shirt" class="cls-5" transform="rotate(-180 318 96)" d="M308 88h20v16h-20z"/><path id="shoe-5" data-name="shoe" class="cls-8" d="M336 108h8v8l-8 8h-8v-8l8-8z"/><path id="shoe-6" data-name="shoe" class="cls-8" d="M316 116v8h-8l-8-8v-8h8l8 8z"/><path id="pants-3" data-name="pants" class="cls-3" transform="rotate(-180 318 110)" d="M308 104h20v12h-20z"/><path id="hand-3" data-name="hand" class="cls-6" transform="rotate(-180 312 104)" d="M308 100h8v8h-8z"/></g><g id="char-2-1_copy_2" data-name="char-2-1 copy 2"><path id="shoe-7" data-name="shoe" class="cls-2" d="M180 116h8v8h-8z"/><path id="legs-3" data-name="legs" class="cls-3" d="M180 104v12h8v-8h8v8h8v-12h-24z"/><path id="shoe-8" data-name="shoe" class="cls-2" d="M196 112h8v4h-8z"/><path id="shirt-3" data-name="shirt" class="cls-9" d="M186 88h12v16h-12z"/><path class="cls-5" d="M184 84v4h-8v16h10V84h-2zM200 88h8v16h-8zM200 84h-2v20h2V84z"/><path id="hand-on-left-3" data-name="hand-on-left" class="cls-4" d="M176 100h4v4h-4z"/><path id="hand-on-right-3" data-name="hand-on-right" class="cls-4" d="M200 100h8v8h-8z"/></g><g id="char-2-1_copy" data-name="char-2-1 copy"><path id="shoe-9" data-name="shoe" class="cls-2" d="M196 372h8v8h-8z"/><path id="legs-4" data-name="legs" class="cls-3" d="M180 360v12h8v-8h8v8h8v-12h-24z"/><path id="shoe-10" data-name="shoe" class="cls-2" d="M180 368h8v4h-8z"/><g id="arms"><path class="cls-5" d="M176 344h8v16h-8zM200 344h8v16h-8z"/></g><path id="zip" class="cls-5" d="M184 340h2v20h-2z"/><path id="zip-2" data-name="zip" class="cls-5" d="M198 340h2v20h-2z"/><path id="hand-on-left-4" data-name="hand-on-left" class="cls-4" d="M204 356h4v4h-4z"/><path id="hand-on-right-4" data-name="hand-on-right" class="cls-4" d="M176 356h8v8h-8z"/><path id="shirt-4" data-name="shirt" class="cls-9" d="M186 344h12v16h-12z"/></g><g id="char-2-2_copy_3" data-name="char-2-2 copy 3"><path id="shoe-11" data-name="shoe" class="cls-2" d="M436 372h8v8h-8z"/><path id="legs-5" data-name="legs" class="cls-3" d="M436 360v12h8v-8h8v8h8v-12h-24z"/><path id="shoe-12" data-name="shoe" class="cls-2" d="M452 368h8v4h-8z"/><path id="shirt-5" data-name="shirt" class="cls-5" d="M454 344v-4h-12v4l-10 4v12h32v-12l-10-4z"/><path id="hand-on-right-5" data-name="hand-on-right" class="cls-4" d="M432 356h8v8h-8z"/><path id="hand-on-left-5" data-name="hand-on-left" class="cls-4" d="M460 356h4v4h-4z"/></g><g id="char-2-2_copy" data-name="char-2-2 copy"><path id="shoe-13" data-name="shoe" class="cls-2" d="M436 244h8v8h-8z"/><path id="shoe-14" data-name="shoe" class="cls-2" d="M452 244h8v8h-8z"/><path id="legs-6" data-name="legs" class="cls-3" d="M436 232v12h8v-8h8v8h8v-12h-24z"/><path id="hand-on-left-6" data-name="hand-on-left" class="cls-4" d="M432 232h4v4h-4z"/><path id="hand-on-right-6" data-name="hand-on-right" class="cls-4" d="M460 232h4v4h-4z"/><path id="shirt-6" data-name="shirt" class="cls-5" d="M456 216v-4h-16v4l-8 4v12h32v-12l-8-4z"/></g><g id="char-2-2_copy_2" data-name="char-2-2 copy 2"><path id="shoe-15" data-name="shoe" class="cls-2" d="M452 116h8v8h-8z"/><path id="legs-7" data-name="legs" class="cls-3" d="M436 104v12h8v-8h8v8h8v-12h-24z"/><path id="shoe-16" data-name="shoe" class="cls-2" d="M436 112h8v4h-8z"/><path id="shirt-7" data-name="shirt" class="cls-5" d="M454 88v-4h-12v4l-10 4v12h32V92l-10-4z"/><path id="hand-on-right-7" data-name="hand-on-right" class="cls-4" d="M456 100h8v8h-8z"/><path id="hand-on-left-7" data-name="hand-on-left" class="cls-4" d="M432 100h4v4h-4z"/></g><g id="char-2-2"><path id="shoe-17" data-name="shoe" class="cls-2" d="M180 244h8v8h-8z"/><path id="shoe-18" data-name="shoe" class="cls-2" d="M196 244h8v8h-8z"/><path id="legs-8" data-name="legs" class="cls-3" d="M180 232v12h8v-8h8v8h8v-12h-24z"/><g id="arms-2" data-name="arms"><path class="cls-5" d="M176 216h8v16h-8zM200 216h8v16h-8z"/></g><path id="zip-3" data-name="zip" class="cls-5" d="M184 216h2v16h-2z"/><path id="zip-4" data-name="zip" class="cls-5" d="M198 216h2v16h-2z"/><path id="shirt-8" data-name="shirt" class="cls-9" d="M186 216h12v16h-12z"/><path id="hand-on-left-8" data-name="hand-on-left" class="cls-4" d="M176 232h4v4h-4z"/><path id="hand-on-right-8" data-name="hand-on-right" class="cls-4" d="M204 232h4v4h-4z"/><path class="cls-10" d="M184 212h2v4h-2zM198 212h2v4h-2z"/><path class="cls-11" d="M176 216h2v2h-2z"/><path class="cls-12" d="M176 218h2v2h-2z"/><path class="cls-13" d="M178 218h2v2h-2z"/><path class="cls-12" d="M180 218h2v2h-2z"/><path class="cls-13" d="M182 218h2v2h-2z"/><path class="cls-12" d="M184 218h2v2h-2z"/><path class="cls-13" d="M186 218h2v2h-2z"/><path class="cls-12" d="M188 218h2v2h-2z"/><path class="cls-13" d="M190 218h2v2h-2z"/><path class="cls-12" d="M192 218h2v2h-2z"/><path class="cls-13" d="M194 218h2v2h-2z"/><path class="cls-12" d="M196 218h2v2h-2z"/><path class="cls-13" d="M198 218h2v2h-2z"/><path class="cls-12" d="M200 218h2v2h-2z"/><path class="cls-13" d="M202 218h2v2h-2z"/><path class="cls-12" d="M204 218h2v2h-2z"/><path class="cls-13" d="M206 218h2v2h-2z"/><path class="cls-11" d="M180 216h2v2h-2zM184 216h2v2h-2zM188 216h2v2h-2zM192 216h2v2h-2zM196 216h2v2h-2zM200 216h2v2h-2zM204 216h2v2h-2z"/><path class="cls-10" d="M206 216h2v2h-2zM202 216h2v2h-2zM198 216h2v2h-2zM194 216h2v2h-2zM190 216h2v2h-2zM186 216h2v2h-2zM182 216h2v2h-2zM178 216h2v2h-2z"/><path class="cls-11" d="M176 92h2v2h-2z"/><path class="cls-12" d="M176 94h2v2h-2z"/><path class="cls-13" d="M178 94h2v2h-2z"/><path class="cls-12" d="M180 94h2v2h-2z"/><path class="cls-13" d="M182 94h2v2h-2z"/><path class="cls-12" d="M184 94h2v2h-2z"/><path class="cls-13" d="M186 94h2v2h-2z"/><path class="cls-12" d="M188 94h2v2h-2z"/><path class="cls-13" d="M190 94h2v2h-2z"/><path class="cls-12" d="M192 94h2v2h-2z"/><path class="cls-13" d="M194 94h2v2h-2z"/><path class="cls-12" d="M196 94h2v2h-2z"/><path class="cls-13" d="M198 94h2v2h-2z"/><path class="cls-12" d="M200 94h2v2h-2z"/><path class="cls-13" d="M202 94h2v2h-2z"/><path class="cls-12" d="M204 94h2v2h-2z"/><path class="cls-13" d="M206 94h2v2h-2z"/><path class="cls-11" d="M180 92h2v2h-2zM184 92h2v2h-2zM188 92h2v2h-2zM192 92h2v2h-2zM196 92h2v2h-2zM200 92h2v2h-2zM204 92h2v2h-2z"/><path class="cls-10" d="M206 92h2v2h-2zM202 92h2v2h-2zM198 92h2v2h-2zM194 92h2v2h-2zM190 92h2v2h-2zM186 92h2v2h-2zM182 92h2v2h-2zM178 92h2v2h-2z"/><path class="cls-11" d="M432 92h2v2h-2z"/><path class="cls-12" d="M432 94h2v2h-2z"/><path class="cls-13" d="M434 94h2v2h-2z"/><path class="cls-12" d="M436 94h2v2h-2z"/><path class="cls-13" d="M438 94h2v2h-2z"/><path class="cls-12" d="M440 94h2v2h-2z"/><path class="cls-13" d="M442 94h2v2h-2z"/><path class="cls-12" d="M444 94h2v2h-2z"/><path class="cls-13" d="M446 94h2v2h-2z"/><path class="cls-12" d="M448 94h2v2h-2z"/><path class="cls-13" d="M450 94h2v2h-2z"/><path class="cls-12" d="M452 94h2v2h-2z"/><path class="cls-13" d="M454 94h2v2h-2z"/><path class="cls-12" d="M456 94h2v2h-2z"/><path class="cls-13" d="M458 94h2v2h-2z"/><path class="cls-12" d="M460 94h2v2h-2z"/><path class="cls-13" d="M462 94h2v2h-2z"/><path class="cls-11" d="M436 92h2v2h-2zM440 92h2v2h-2zM444 92h2v2h-2zM448 92h2v2h-2zM452 92h2v2h-2zM456 92h2v2h-2zM460 92h2v2h-2z"/><path class="cls-10" d="M462 92h2v2h-2zM458 92h2v2h-2zM454 92h2v2h-2zM450 92h2v2h-2zM446 92h2v2h-2zM442 92h2v2h-2zM438 92h2v2h-2zM434 92h2v2h-2z"/><path class="cls-11" d="M432 88h2v2h-2z"/><path class="cls-12" d="M432 90h2v2h-2z"/><path class="cls-13" d="M434 90h2v2h-2z"/><path class="cls-12" d="M436 90h2v2h-2z"/><path class="cls-13" d="M438 90h2v2h-2z"/><path class="cls-12" d="M440 90h2v2h-2z"/><path class="cls-13" d="M442 90h2v2h-2z"/><path class="cls-12" d="M444 90h2v2h-2z"/><path class="cls-13" d="M446 90h2v2h-2z"/><path class="cls-12" d="M448 90h2v2h-2z"/><path class="cls-13" d="M450 90h2v2h-2z"/><path class="cls-12" d="M452 90h2v2h-2z"/><path class="cls-13" d="M454 90h2v2h-2z"/><path class="cls-12" d="M456 90h2v2h-2z"/><path class="cls-13" d="M458 90h2v2h-2z"/><path class="cls-12" d="M460 90h2v2h-2z"/><path class="cls-13" d="M462 90h2v2h-2z"/><path class="cls-11" d="M436 88h2v2h-2zM440 88h2v2h-2zM444 88h2v2h-2zM448 88h2v2h-2zM452 88h2v2h-2zM456 88h2v2h-2zM460 88h2v2h-2z"/><path class="cls-10" d="M462 88h2v2h-2zM458 88h2v2h-2zM454 88h2v2h-2zM450 88h2v2h-2zM446 88h2v2h-2zM442 88h2v2h-2zM438 88h2v2h-2zM434 88h2v2h-2z"/><path class="cls-11" d="M432 220h2v2h-2z"/><path class="cls-12" d="M432 222h2v2h-2z"/><path class="cls-13" d="M434 222h2v2h-2z"/><path class="cls-12" d="M436 222h2v2h-2z"/><path class="cls-13" d="M438 222h2v2h-2z"/><path class="cls-12" d="M440 222h2v2h-2z"/><path class="cls-13" d="M442 222h2v2h-2z"/><path class="cls-12" d="M444 222h2v2h-2z"/><path class="cls-13" d="M446 222h2v2h-2z"/><path class="cls-12" d="M448 222h2v2h-2z"/><path class="cls-13" d="M450 222h2v2h-2z"/><path class="cls-12" d="M452 222h2v2h-2z"/><path class="cls-13" d="M454 222h2v2h-2z"/><path class="cls-12" d="M456 222h2v2h-2z"/><path class="cls-13" d="M458 222h2v2h-2z"/><path class="cls-12" d="M460 222h2v2h-2z"/><path class="cls-13" d="M462 222h2v2h-2z"/><path class="cls-11" d="M436 220h2v2h-2zM440 220h2v2h-2zM444 220h2v2h-2zM448 220h2v2h-2zM452 220h2v2h-2zM456 220h2v2h-2zM460 220h2v2h-2z"/><path class="cls-10" d="M462 220h2v2h-2zM458 220h2v2h-2zM454 220h2v2h-2zM450 220h2v2h-2zM446 220h2v2h-2zM442 220h2v2h-2zM438 220h2v2h-2zM434 220h2v2h-2z"/><path class="cls-11" d="M432 224h2v2h-2z"/><path class="cls-12" d="M432 226h2v2h-2z"/><path class="cls-13" d="M434 226h2v2h-2z"/><path class="cls-12" d="M436 226h2v2h-2z"/><path class="cls-13" d="M438 226h2v2h-2z"/><path class="cls-12" d="M440 226h2v2h-2z"/><path class="cls-13" d="M442 226h2v2h-2z"/><path class="cls-12" d="M444 226h2v2h-2z"/><path class="cls-13" d="M446 226h2v2h-2z"/><path class="cls-12" d="M448 226h2v2h-2z"/><path class="cls-13" d="M450 226h2v2h-2z"/><path class="cls-12" d="M452 226h2v2h-2z"/><path class="cls-13" d="M454 226h2v2h-2z"/><path class="cls-12" d="M456 226h2v2h-2z"/><path class="cls-13" d="M458 226h2v2h-2z"/><path class="cls-12" d="M460 226h2v2h-2z"/><path class="cls-13" d="M462 226h2v2h-2z"/><path class="cls-11" d="M436 224h2v2h-2zM440 224h2v2h-2zM444 224h2v2h-2zM448 224h2v2h-2zM452 224h2v2h-2zM456 224h2v2h-2zM460 224h2v2h-2z"/><path class="cls-10" d="M462 224h2v2h-2zM458 224h2v2h-2zM454 224h2v2h-2zM450 224h2v2h-2zM446 224h2v2h-2zM442 224h2v2h-2zM438 224h2v2h-2zM434 224h2v2h-2z"/><path class="cls-11" d="M432 228h2v2h-2z"/><path class="cls-12" d="M432 230h2v2h-2z"/><path class="cls-13" d="M434 230h2v2h-2z"/><path class="cls-12" d="M436 230h2v2h-2z"/><path class="cls-13" d="M438 230h2v2h-2z"/><path class="cls-12" d="M440 230h2v2h-2z"/><path class="cls-13" d="M442 230h2v2h-2z"/><path class="cls-12" d="M444 230h2v2h-2z"/><path class="cls-13" d="M446 230h2v2h-2z"/><path class="cls-12" d="M448 230h2v2h-2z"/><path class="cls-13" d="M450 230h2v2h-2z"/><path class="cls-12" d="M452 230h2v2h-2z"/><path class="cls-13" d="M454 230h2v2h-2z"/><path class="cls-12" d="M456 230h2v2h-2z"/><path class="cls-13" d="M458 230h2v2h-2z"/><path class="cls-12" d="M460 230h2v2h-2z"/><path class="cls-13" d="M462 230h2v2h-2z"/><path class="cls-11" d="M436 228h2v2h-2zM440 228h2v2h-2zM444 228h2v2h-2zM448 228h2v2h-2zM452 228h2v2h-2zM456 228h2v2h-2zM460 228h2v2h-2z"/><path class="cls-10" d="M462 228h2v2h-2zM458 228h2v2h-2zM454 228h2v2h-2zM450 228h2v2h-2zM446 228h2v2h-2zM442 228h2v2h-2zM438 228h2v2h-2zM434 228h2v2h-2z"/><path class="cls-11" d="M432 216h2v2h-2z"/><path class="cls-12" d="M432 218h2v2h-2z"/><path class="cls-13" d="M434 218h2v2h-2z"/><path class="cls-12" d="M436 218h2v2h-2z"/><path class="cls-13" d="M438 218h2v2h-2z"/><path class="cls-12" d="M440 218h2v2h-2z"/><path class="cls-13" d="M442 218h2v2h-2z"/><path class="cls-12" d="M444 218h2v2h-2z"/><path class="cls-13" d="M446 218h2v2h-2z"/><path class="cls-12" d="M448 218h2v2h-2z"/><path class="cls-13" d="M450 218h2v2h-2z"/><path class="cls-12" d="M452 218h2v2h-2z"/><path class="cls-13" d="M454 218h2v2h-2z"/><path class="cls-12" d="M456 218h2v2h-2z"/><path class="cls-13" d="M458 218h2v2h-2z"/><path class="cls-12" d="M460 218h2v2h-2z"/><path class="cls-13" d="M462 218h2v2h-2z"/><path class="cls-11" d="M436 216h2v2h-2zM440 216h2v2h-2zM444 216h2v2h-2zM448 216h2v2h-2zM452 216h2v2h-2zM456 216h2v2h-2zM460 216h2v2h-2z"/><path class="cls-10" d="M462 216h2v2h-2zM458 216h2v2h-2zM454 216h2v2h-2zM450 216h2v2h-2zM446 216h2v2h-2zM442 216h2v2h-2zM438 216h2v2h-2zM434 216h2v2h-2z"/><path class="cls-11" d="M432 344h2v2h-2z"/><path class="cls-12" d="M432 346h2v2h-2z"/><path class="cls-13" d="M434 346h2v2h-2z"/><path class="cls-12" d="M436 346h2v2h-2z"/><path class="cls-13" d="M438 346h2v2h-2z"/><path class="cls-12" d="M440 346h2v2h-2z"/><path class="cls-13" d="M442 346h2v2h-2z"/><path class="cls-12" d="M444 346h2v2h-2z"/><path class="cls-13" d="M446 346h2v2h-2z"/><path class="cls-12" d="M448 346h2v2h-2z"/><path class="cls-13" d="M450 346h2v2h-2z"/><path class="cls-12" d="M452 346h2v2h-2z"/><path class="cls-13" d="M454 346h2v2h-2z"/><path class="cls-12" d="M456 346h2v2h-2z"/><path class="cls-13" d="M458 346h2v2h-2z"/><path class="cls-12" d="M460 346h2v2h-2z"/><path class="cls-13" d="M462 346h2v2h-2z"/><path class="cls-11" d="M436 344h2v2h-2zM440 344h2v2h-2zM444 344h2v2h-2zM448 344h2v2h-2zM452 344h2v2h-2zM456 344h2v2h-2zM460 344h2v2h-2z"/><path class="cls-10" d="M462 344h2v2h-2zM458 344h2v2h-2zM454 344h2v2h-2zM450 344h2v2h-2zM446 344h2v2h-2zM442 344h2v2h-2zM438 344h2v2h-2zM434 344h2v2h-2z"/><path class="cls-11" d="M432 348h2v2h-2z"/><path class="cls-12" d="M432 350h2v2h-2z"/><path class="cls-13" d="M434 350h2v2h-2z"/><path class="cls-12" d="M436 350h2v2h-2z"/><path class="cls-13" d="M438 350h2v2h-2z"/><path class="cls-12" d="M440 350h2v2h-2z"/><path class="cls-13" d="M442 350h2v2h-2z"/><path class="cls-12" d="M444 350h2v2h-2z"/><path class="cls-13" d="M446 350h2v2h-2z"/><path class="cls-12" d="M448 350h2v2h-2z"/><path class="cls-13" d="M450 350h2v2h-2z"/><path class="cls-12" d="M452 350h2v2h-2z"/><path class="cls-13" d="M454 350h2v2h-2z"/><path class="cls-12" d="M456 350h2v2h-2z"/><path class="cls-13" d="M458 350h2v2h-2z"/><path class="cls-12" d="M460 350h2v2h-2z"/><path class="cls-13" d="M462 350h2v2h-2z"/><path class="cls-11" d="M436 348h2v2h-2zM440 348h2v2h-2zM444 348h2v2h-2zM448 348h2v2h-2zM452 348h2v2h-2zM456 348h2v2h-2zM460 348h2v2h-2z"/><path class="cls-10" d="M462 348h2v2h-2zM458 348h2v2h-2zM454 348h2v2h-2zM450 348h2v2h-2zM446 348h2v2h-2zM442 348h2v2h-2zM438 348h2v2h-2zM434 348h2v2h-2z"/><path class="cls-11" d="M432 472h2v2h-2z"/><path class="cls-12" d="M432 474h2v2h-2z"/><path class="cls-13" d="M434 474h2v2h-2z"/><path class="cls-12" d="M436 474h2v2h-2z"/><path class="cls-13" d="M438 474h2v2h-2z"/><path class="cls-12" d="M440 474h2v2h-2z"/><path class="cls-13" d="M442 474h2v2h-2z"/><path class="cls-12" d="M444 474h2v2h-2z"/><path class="cls-13" d="M446 474h2v2h-2z"/><path class="cls-12" d="M448 474h2v2h-2z"/><path class="cls-13" d="M450 474h2v2h-2z"/><path class="cls-12" d="M452 474h2v2h-2z"/><path class="cls-13" d="M454 474h2v2h-2z"/><path class="cls-12" d="M456 474h2v2h-2z"/><path class="cls-13" d="M458 474h2v2h-2z"/><path class="cls-12" d="M460 474h2v2h-2z"/><path class="cls-13" d="M462 474h2v2h-2z"/><path class="cls-11" d="M436 472h2v2h-2zM440 472h2v2h-2zM444 472h2v2h-2zM448 472h2v2h-2zM452 472h2v2h-2zM456 472h2v2h-2zM460 472h2v2h-2z"/><path class="cls-10" d="M462 472h2v2h-2zM458 472h2v2h-2zM454 472h2v2h-2zM450 472h2v2h-2zM446 472h2v2h-2zM442 472h2v2h-2zM438 472h2v2h-2zM434 472h2v2h-2z"/><path class="cls-12" d="M440 470h2v2h-2z"/><path class="cls-13" d="M442 470h2v2h-2z"/><path class="cls-12" d="M444 470h2v2h-2z"/><path class="cls-13" d="M446 470h2v2h-2z"/><path class="cls-12" d="M448 470h2v2h-2z"/><path class="cls-13" d="M450 470h2v2h-2z"/><path class="cls-12" d="M452 470h2v2h-2z"/><path class="cls-13" d="M454 470h2v2h-2zM460 470v2"/><path class="cls-11" d="M440 468h2v2h-2zM444 468h2v2h-2zM448 468h2v2h-2zM452 468h2v2h-2z"/><path class="cls-10" d="M454 468h2v2h-2zM450 468h2v2h-2zM446 468h2v2h-2zM442 468h2v2h-2z"/><path class="cls-11" d="M432 476h2v2h-2z"/><path class="cls-12" d="M432 478h2v2h-2z"/><path class="cls-13" d="M434 478h2v2h-2z"/><path class="cls-12" d="M436 478h2v2h-2z"/><path class="cls-13" d="M438 478h2v2h-2z"/><path class="cls-12" d="M440 478h2v2h-2z"/><path class="cls-13" d="M442 478h2v2h-2z"/><path class="cls-12" d="M444 478h2v2h-2z"/><path class="cls-13" d="M446 478h2v2h-2z"/><path class="cls-12" d="M448 478h2v2h-2z"/><path class="cls-13" d="M450 478h2v2h-2z"/><path class="cls-12" d="M452 478h2v2h-2z"/><path class="cls-13" d="M454 478h2v2h-2z"/><path class="cls-12" d="M456 478h2v2h-2z"/><path class="cls-13" d="M458 478h2v2h-2z"/><path class="cls-12" d="M460 478h2v2h-2z"/><path class="cls-13" d="M462 478h2v2h-2z"/><path class="cls-11" d="M436 476h2v2h-2zM440 476h2v2h-2zM444 476h2v2h-2zM448 476h2v2h-2zM452 476h2v2h-2zM456 476h2v2h-2zM460 476h2v2h-2z"/><path class="cls-10" d="M462 476h2v2h-2zM458 476h2v2h-2zM454 476h2v2h-2zM450 476h2v2h-2zM446 476h2v2h-2zM442 476h2v2h-2zM438 476h2v2h-2zM434 476h2v2h-2z"/><path class="cls-11" d="M432 480h2v2h-2z"/><path class="cls-12" d="M432 482h2v2h-2z"/><path class="cls-13" d="M434 482h2v2h-2z"/><path class="cls-12" d="M436 482h2v2h-2z"/><path class="cls-13" d="M438 482h2v2h-2z"/><path class="cls-12" d="M440 482h2v2h-2z"/><path class="cls-13" d="M442 482h2v2h-2z"/><path class="cls-12" d="M444 482h2v2h-2z"/><path class="cls-13" d="M446 482h2v2h-2z"/><path class="cls-12" d="M448 482h2v2h-2z"/><path class="cls-13" d="M450 482h2v2h-2z"/><path class="cls-12" d="M452 482h2v2h-2z"/><path class="cls-13" d="M454 482h2v2h-2z"/><path class="cls-12" d="M456 482h2v2h-2z"/><path class="cls-13" d="M458 482h2v2h-2z"/><path class="cls-12" d="M460 482h2v2h-2z"/><path class="cls-13" d="M462 482h2v2h-2z"/><path class="cls-11" d="M436 480h2v2h-2zM440 480h2v2h-2zM444 480h2v2h-2zM448 480h2v2h-2zM452 480h2v2h-2zM456 480h2v2h-2zM460 480h2v2h-2z"/><path class="cls-10" d="M462 480h2v2h-2zM458 480h2v2h-2zM454 480h2v2h-2zM450 480h2v2h-2zM446 480h2v2h-2zM442 480h2v2h-2zM438 480h2v2h-2zM434 480h2v2h-2z"/><path class="cls-11" d="M432 484h2v2h-2z"/><path class="cls-12" d="M432 486h2v2h-2z"/><path class="cls-13" d="M434 486h2v2h-2z"/><path class="cls-12" d="M436 486h2v2h-2z"/><path class="cls-13" d="M438 486h2v2h-2z"/><path class="cls-12" d="M440 486h2v2h-2z"/><path class="cls-13" d="M442 486h2v2h-2z"/><path class="cls-12" d="M444 486h2v2h-2z"/><path class="cls-13" d="M446 486h2v2h-2z"/><path class="cls-12" d="M448 486h2v2h-2z"/><path class="cls-13" d="M450 486h2v2h-2z"/><path class="cls-12" d="M452 486h2v2h-2z"/><path class="cls-13" d="M454 486h2v2h-2z"/><path class="cls-12" d="M456 486h2v2h-2z"/><path class="cls-13" d="M458 486h2v2h-2z"/><path class="cls-12" d="M460 486h2v2h-2z"/><path class="cls-13" d="M462 486h2v2h-2z"/><path class="cls-11" d="M436 484h2v2h-2zM440 484h2v2h-2zM444 484h2v2h-2zM448 484h2v2h-2zM452 484h2v2h-2zM456 484h2v2h-2zM460 484h2v2h-2z"/><path class="cls-10" d="M462 484h2v2h-2zM458 484h2v2h-2zM454 484h2v2h-2zM450 484h2v2h-2zM446 484h2v2h-2zM442 484h2v2h-2zM438 484h2v2h-2zM434 484h2v2h-2z"/><path class="cls-11" d="M432 352h2v2h-2z"/><path class="cls-12" d="M432 354h2v2h-2z"/><path class="cls-13" d="M434 354h2v2h-2z"/><path class="cls-12" d="M436 354h2v2h-2z"/><path class="cls-13" d="M438 354h2v2h-2z"/><path class="cls-12" d="M440 354h2v2h-2z"/><path class="cls-13" d="M442 354h2v2h-2z"/><path class="cls-12" d="M444 354h2v2h-2z"/><path class="cls-13" d="M446 354h2v2h-2z"/><path class="cls-12" d="M448 354h2v2h-2z"/><path class="cls-13" d="M450 354h2v2h-2z"/><path class="cls-12" d="M452 354h2v2h-2z"/><path class="cls-13" d="M454 354h2v2h-2z"/><path class="cls-12" d="M456 354h2v2h-2z"/><path class="cls-13" d="M458 354h2v2h-2z"/><path class="cls-12" d="M460 354h2v2h-2z"/><path class="cls-13" d="M462 354h2v2h-2z"/><path class="cls-11" d="M436 352h2v2h-2zM440 352h2v2h-2zM444 352h2v2h-2zM448 352h2v2h-2zM452 352h2v2h-2zM456 352h2v2h-2zM460 352h2v2h-2z"/><path class="cls-10" d="M462 352h2v2h-2zM458 352h2v2h-2zM454 352h2v2h-2zM450 352h2v2h-2zM446 352h2v2h-2zM442 352h2v2h-2zM438 352h2v2h-2zM434 352h2v2h-2z"/><path class="cls-12" d="M440 358h2v2h-2z"/><path class="cls-13" d="M442 358h2v2h-2z"/><path class="cls-12" d="M444 358h2v2h-2z"/><path class="cls-13" d="M446 358h2v2h-2z"/><path class="cls-12" d="M448 358h2v2h-2z"/><path class="cls-13" d="M450 358h2v2h-2z"/><path class="cls-12" d="M452 358h2v2h-2z"/><path class="cls-13" d="M454 358h2v2h-2z"/><path class="cls-12" d="M456 358h2v2h-2z"/><path class="cls-13" d="M458 358h2v2h-2z"/><path class="cls-11" d="M440 356h2v2h-2zM444 356h2v2h-2zM448 356h2v2h-2zM452 356h2v2h-2zM456 356h2v2h-2z"/><path class="cls-10" d="M458 356h2v2h-2zM454 356h2v2h-2zM450 356h2v2h-2zM446 356h2v2h-2zM442 356h2v2h-2z"/><path class="cls-12" d="M434 214v2M440 214h2v2h-2z"/><path class="cls-13" d="M442 214h2v2h-2z"/><path class="cls-12" d="M444 214h2v2h-2z"/><path class="cls-13" d="M446 214h2v2h-2z"/><path class="cls-12" d="M448 214h2v2h-2z"/><path class="cls-13" d="M450 214h2v2h-2z"/><path class="cls-12" d="M452 214h2v2h-2z"/><path class="cls-13" d="M454 214h2v2h-2z"/><path class="cls-12" d="M462 214v2"/><path class="cls-11" d="M440 212h2v2h-2zM444 212h2v2h-2zM448 212h2v2h-2zM452 212h2v2h-2z"/><path class="cls-10" d="M454 212h2v2h-2zM450 212h2v2h-2zM446 212h2v2h-2zM442 212h2v2h-2z"/><path class="cls-11" d="M432 96h2v2h-2z"/><path class="cls-12" d="M432 98h2v2h-2z"/><path class="cls-13" d="M434 98h2v2h-2z"/><path class="cls-12" d="M436 98h2v2h-2z"/><path class="cls-13" d="M438 98h2v2h-2z"/><path class="cls-12" d="M440 98h2v2h-2z"/><path class="cls-13" d="M442 98h2v2h-2z"/><path class="cls-12" d="M444 98h2v2h-2z"/><path class="cls-13" d="M446 98h2v2h-2z"/><path class="cls-12" d="M448 98h2v2h-2z"/><path class="cls-13" d="M450 98h2v2h-2z"/><path class="cls-12" d="M452 98h2v2h-2z"/><path class="cls-13" d="M454 98h2v2h-2z"/><path class="cls-12" d="M456 98h2v2h-2z"/><path class="cls-13" d="M458 98h2v2h-2z"/><path class="cls-12" d="M460 98h2v2h-2z"/><path class="cls-13" d="M462 98h2v2h-2z"/><path class="cls-11" d="M436 96h2v2h-2zM440 96h2v2h-2zM444 96h2v2h-2zM448 96h2v2h-2zM452 96h2v2h-2zM456 96h2v2h-2zM460 96h2v2h-2z"/><path class="cls-10" d="M462 96h2v2h-2zM458 96h2v2h-2zM454 96h2v2h-2zM450 96h2v2h-2zM446 96h2v2h-2zM442 96h2v2h-2zM438 96h2v2h-2zM434 96h2v2h-2z"/><path class="cls-12" d="M436 102h2v2h-2z"/><path class="cls-13" d="M438 102h2v2h-2z"/><path class="cls-12" d="M440 102h2v2h-2z"/><path class="cls-13" d="M442 102h2v2h-2z"/><path class="cls-12" d="M444 102h2v2h-2z"/><path class="cls-13" d="M446 102h2v2h-2z"/><path class="cls-12" d="M448 102h2v2h-2z"/><path class="cls-13" d="M450 102h2v2h-2z"/><path class="cls-12" d="M452 102h2v2h-2z"/><path class="cls-13" d="M454 102h2v2h-2z"/><path class="cls-11" d="M436 100h2v2h-2zM440 100h2v2h-2zM444 100h2v2h-2zM448 100h2v2h-2zM452 100h2v2h-2z"/><path class="cls-10" d="M454 100h2v2h-2zM450 100h2v2h-2zM446 100h2v2h-2zM442 100h2v2h-2zM438 100h2v2h-2z"/><path class="cls-11" d="M308 88h2v2h-2z"/><path class="cls-12" d="M308 90h2v2h-2z"/><path class="cls-13" d="M310 90h2v2h-2z"/><path class="cls-12" d="M312 90h2v2h-2z"/><path class="cls-13" d="M314 90h2v2h-2z"/><path class="cls-12" d="M316 90h2v2h-2z"/><path class="cls-13" d="M318 90h2v2h-2z"/><path class="cls-12" d="M320 90h2v2h-2z"/><path class="cls-13" d="M322 90h2v2h-2z"/><path class="cls-12" d="M324 90h2v2h-2z"/><path class="cls-13" d="M326 90h2v2h-2z"/><path class="cls-11" d="M312 88h2v2h-2zM316 88h2v2h-2zM320 88h2v2h-2zM324 88h2v2h-2z"/><path class="cls-10" d="M326 88h2v2h-2zM322 88h2v2h-2zM318 88h2v2h-2zM314 88h2v2h-2zM310 88h2v2h-2z"/><path class="cls-11" d="M308 92h2v2h-2z"/><path class="cls-12" d="M308 94h2v2h-2z"/><path class="cls-13" d="M310 94h2v2h-2z"/><path class="cls-12" d="M312 94h2v2h-2z"/><path class="cls-13" d="M314 94h2v2h-2z"/><path class="cls-12" d="M316 94h2v2h-2z"/><path class="cls-13" d="M318 94h2v2h-2z"/><path class="cls-12" d="M320 94h2v2h-2z"/><path class="cls-13" d="M322 94h2v2h-2z"/><path class="cls-12" d="M324 94h2v2h-2z"/><path class="cls-13" d="M326 94h2v2h-2z"/><path class="cls-11" d="M312 92h2v2h-2zM316 92h2v2h-2zM320 92h2v2h-2zM324 92h2v2h-2z"/><path class="cls-10" d="M326 92h2v2h-2zM322 92h2v2h-2zM318 92h2v2h-2zM314 92h2v2h-2zM310 92h2v2h-2z"/><path class="cls-11" d="M308 96h2v2h-2z"/><path class="cls-12" d="M308 98h2v2h-2z"/><path class="cls-13" d="M310 98h2v2h-2z"/><path class="cls-12" d="M312 98h2v2h-2z"/><path class="cls-13" d="M314 98h2v2h-2z"/><path class="cls-12" d="M316 98h2v2h-2z"/><path class="cls-13" d="M318 98h2v2h-2z"/><path class="cls-12" d="M320 98h2v2h-2z"/><path class="cls-13" d="M322 98h2v2h-2z"/><path class="cls-12" d="M324 98h2v2h-2z"/><path class="cls-13" d="M326 98h2v2h-2z"/><path class="cls-11" d="M312 96h2v2h-2zM316 96h2v2h-2zM320 96h2v2h-2zM324 96h2v2h-2z"/><path class="cls-10" d="M326 96h2v2h-2zM322 96h2v2h-2zM318 96h2v2h-2zM314 96h2v2h-2zM310 96h2v2h-2z"/><path class="cls-12" d="M316 102h2v2h-2z"/><path class="cls-13" d="M318 102h2v2h-2z"/><path class="cls-12" d="M320 102h2v2h-2z"/><path class="cls-13" d="M322 102h2v2h-2z"/><path class="cls-12" d="M324 102h2v2h-2z"/><path class="cls-13" d="M326 102h2v2h-2z"/><path class="cls-11" d="M316 100h2v2h-2zM320 100h2v2h-2zM324 100h2v2h-2z"/><path class="cls-10" d="M326 100h2v2h-2zM322 100h2v2h-2zM318 100h2v2h-2z"/><path class="cls-11" d="M176 88h2v2h-2z"/><path class="cls-12" d="M176 90h2v2h-2z"/><path class="cls-13" d="M178 90h2v2h-2z"/><path class="cls-12" d="M180 90h2v2h-2z"/><path class="cls-13" d="M182 90h2v2h-2z"/><path class="cls-12" d="M184 90h2v2h-2z"/><path class="cls-13" d="M186 90h2v2h-2z"/><path class="cls-12" d="M188 90h2v2h-2z"/><path class="cls-13" d="M190 90h2v2h-2z"/><path class="cls-12" d="M192 90h2v2h-2z"/><path class="cls-13" d="M194 90h2v2h-2z"/><path class="cls-12" d="M196 90h2v2h-2z"/><path class="cls-13" d="M198 90h2v2h-2z"/><path class="cls-12" d="M200 90h2v2h-2z"/><path class="cls-13" d="M202 90h2v2h-2z"/><path class="cls-12" d="M204 90h2v2h-2z"/><path class="cls-13" d="M206 90h2v2h-2z"/><path class="cls-11" d="M180 88h2v2h-2zM184 88h2v2h-2zM188 88h2v2h-2zM192 88h2v2h-2zM196 88h2v2h-2zM200 88h2v2h-2zM204 88h2v2h-2z"/><path class="cls-10" d="M206 88h2v2h-2zM202 88h2v2h-2zM198 88h2v2h-2zM194 88h2v2h-2zM190 88h2v2h-2zM186 88h2v2h-2zM182 88h2v2h-2zM178 88h2v2h-2z"/><path class="cls-12" d="M180 102h2v2h-2z"/><path class="cls-13" d="M182 102h2v2h-2z"/><path class="cls-12" d="M184 102h2v2h-2z"/><path class="cls-13" d="M186 102h2v2h-2z"/><path class="cls-12" d="M188 102h2v2h-2z"/><path class="cls-13" d="M190 102h2v2h-2z"/><path class="cls-12" d="M192 102h2v2h-2z"/><path class="cls-13" d="M194 102h2v2h-2z"/><path class="cls-12" d="M196 102h2v2h-2z"/><path class="cls-13" d="M198 102h2v2h-2z"/><path class="cls-11" d="M180 100h2v2h-2zM184 100h2v2h-2zM188 100h2v2h-2zM192 100h2v2h-2zM196 100h2v2h-2z"/><path class="cls-10" d="M198 100h2v2h-2zM194 100h2v2h-2zM190 100h2v2h-2zM186 100h2v2h-2zM182 100h2v2h-2z"/><path class="cls-11" d="M176 96h2v2h-2z"/><path class="cls-12" d="M176 98h2v2h-2z"/><path class="cls-13" d="M178 98h2v2h-2z"/><path class="cls-12" d="M180 98h2v2h-2z"/><path class="cls-13" d="M182 98h2v2h-2z"/><path class="cls-12" d="M184 98h2v2h-2z"/><path class="cls-13" d="M186 98h2v2h-2z"/><path class="cls-12" d="M188 98h2v2h-2z"/><path class="cls-13" d="M190 98h2v2h-2z"/><path class="cls-12" d="M192 98h2v2h-2z"/><path class="cls-13" d="M194 98h2v2h-2z"/><path class="cls-12" d="M196 98h2v2h-2z"/><path class="cls-13" d="M198 98h2v2h-2z"/><path class="cls-12" d="M200 98h2v2h-2z"/><path class="cls-13" d="M202 98h2v2h-2z"/><path class="cls-12" d="M204 98h2v2h-2z"/><path class="cls-13" d="M206 98h2v2h-2z"/><path class="cls-11" d="M180 96h2v2h-2zM184 96h2v2h-2zM188 96h2v2h-2zM192 96h2v2h-2zM196 96h2v2h-2zM200 96h2v2h-2zM204 96h2v2h-2z"/><path class="cls-10" d="M206 96h2v2h-2zM202 96h2v2h-2zM198 96h2v2h-2zM194 96h2v2h-2zM190 96h2v2h-2zM186 96h2v2h-2zM182 96h2v2h-2zM178 96h2v2h-2z"/><path class="cls-11" d="M176 220h2v2h-2z"/><path class="cls-12" d="M176 222h2v2h-2z"/><path class="cls-13" d="M178 222h2v2h-2z"/><path class="cls-12" d="M180 222h2v2h-2z"/><path class="cls-13" d="M182 222h2v2h-2z"/><path class="cls-12" d="M184 222h2v2h-2z"/><path class="cls-13" d="M186 222h2v2h-2z"/><path class="cls-12" d="M188 222h2v2h-2z"/><path class="cls-13" d="M190 222h2v2h-2z"/><path class="cls-12" d="M192 222h2v2h-2z"/><path class="cls-13" d="M194 222h2v2h-2z"/><path class="cls-12" d="M196 222h2v2h-2z"/><path class="cls-13" d="M198 222h2v2h-2z"/><path class="cls-12" d="M200 222h2v2h-2z"/><path class="cls-13" d="M202 222h2v2h-2z"/><path class="cls-12" d="M204 222h2v2h-2z"/><path class="cls-13" d="M206 222h2v2h-2z"/><path class="cls-11" d="M180 220h2v2h-2zM184 220h2v2h-2zM188 220h2v2h-2zM192 220h2v2h-2zM196 220h2v2h-2zM200 220h2v2h-2zM204 220h2v2h-2z"/><path class="cls-10" d="M206 220h2v2h-2zM202 220h2v2h-2zM198 220h2v2h-2zM194 220h2v2h-2zM190 220h2v2h-2zM186 220h2v2h-2zM182 220h2v2h-2zM178 220h2v2h-2z"/><path class="cls-11" d="M176 224h2v2h-2z"/><path class="cls-12" d="M176 226h2v2h-2z"/><path class="cls-13" d="M178 226h2v2h-2z"/><path class="cls-12" d="M180 226h2v2h-2z"/><path class="cls-13" d="M182 226h2v2h-2z"/><path class="cls-12" d="M184 226h2v2h-2z"/><path class="cls-13" d="M186 226h2v2h-2z"/><path class="cls-12" d="M188 226h2v2h-2z"/><path class="cls-13" d="M190 226h2v2h-2z"/><path class="cls-12" d="M192 226h2v2h-2z"/><path class="cls-13" d="M194 226h2v2h-2z"/><path class="cls-12" d="M196 226h2v2h-2z"/><path class="cls-13" d="M198 226h2v2h-2z"/><path class="cls-12" d="M200 226h2v2h-2z"/><path class="cls-13" d="M202 226h2v2h-2z"/><path class="cls-12" d="M204 226h2v2h-2z"/><path class="cls-13" d="M206 226h2v2h-2z"/><path class="cls-11" d="M180 224h2v2h-2zM184 224h2v2h-2zM188 224h2v2h-2zM192 224h2v2h-2zM196 224h2v2h-2zM200 224h2v2h-2zM204 224h2v2h-2z"/><path class="cls-10" d="M206 224h2v2h-2zM202 224h2v2h-2zM198 224h2v2h-2zM194 224h2v2h-2zM190 224h2v2h-2zM186 224h2v2h-2zM182 224h2v2h-2zM178 224h2v2h-2z"/><path class="cls-11" d="M176 228h2v2h-2z"/><path class="cls-12" d="M176 230h2v2h-2z"/><path class="cls-13" d="M178 230h2v2h-2z"/><path class="cls-12" d="M180 230h2v2h-2z"/><path class="cls-13" d="M182 230h2v2h-2z"/><path class="cls-12" d="M184 230h2v2h-2z"/><path class="cls-13" d="M186 230h2v2h-2z"/><path class="cls-12" d="M188 230h2v2h-2z"/><path class="cls-13" d="M190 230h2v2h-2z"/><path class="cls-12" d="M192 230h2v2h-2z"/><path class="cls-13" d="M194 230h2v2h-2z"/><path class="cls-12" d="M196 230h2v2h-2z"/><path class="cls-13" d="M198 230h2v2h-2z"/><path class="cls-12" d="M200 230h2v2h-2z"/><path class="cls-13" d="M202 230h2v2h-2z"/><path class="cls-12" d="M204 230h2v2h-2z"/><path class="cls-13" d="M206 230h2v2h-2z"/><path class="cls-11" d="M180 228h2v2h-2zM184 228h2v2h-2zM188 228h2v2h-2zM192 228h2v2h-2zM196 228h2v2h-2zM200 228h2v2h-2zM204 228h2v2h-2z"/><path class="cls-10" d="M206 228h2v2h-2zM202 228h2v2h-2zM198 228h2v2h-2zM194 228h2v2h-2zM190 228h2v2h-2zM186 228h2v2h-2zM182 228h2v2h-2zM178 228h2v2h-2z"/><path class="cls-11" d="M176 344h2v2h-2z"/><path class="cls-12" d="M176 346h2v2h-2z"/><path class="cls-13" d="M178 346h2v2h-2z"/><path class="cls-12" d="M180 346h2v2h-2z"/><path class="cls-13" d="M182 346h2v2h-2z"/><path class="cls-12" d="M184 346h2v2h-2z"/><path class="cls-13" d="M186 346h2v2h-2z"/><path class="cls-12" d="M188 346h2v2h-2z"/><path class="cls-13" d="M190 346h2v2h-2z"/><path class="cls-12" d="M192 346h2v2h-2z"/><path class="cls-13" d="M194 346h2v2h-2z"/><path class="cls-12" d="M196 346h2v2h-2z"/><path class="cls-13" d="M198 346h2v2h-2z"/><path class="cls-12" d="M200 346h2v2h-2z"/><path class="cls-13" d="M202 346h2v2h-2z"/><path class="cls-12" d="M204 346h2v2h-2z"/><path class="cls-13" d="M206 346h2v2h-2z"/><path class="cls-11" d="M180 344h2v2h-2zM184 344h2v2h-2zM188 344h2v2h-2zM192 344h2v2h-2zM196 344h2v2h-2zM200 344h2v2h-2zM204 344h2v2h-2z"/><path class="cls-10" d="M206 344h2v2h-2zM202 344h2v2h-2zM198 344h2v2h-2zM194 344h2v2h-2zM190 344h2v2h-2zM186 344h2v2h-2zM182 344h2v2h-2zM178 344h2v2h-2z"/><path class="cls-11" d="M176 472h2v2h-2z"/><path class="cls-12" d="M176 474h2v2h-2z"/><path class="cls-13" d="M178 474h2v2h-2z"/><path class="cls-12" d="M180 474h2v2h-2z"/><path class="cls-13" d="M182 474h2v2h-2z"/><path class="cls-12" d="M184 474h2v2h-2z"/><path class="cls-13" d="M186 474h2v2h-2z"/><path class="cls-12" d="M188 474h2v2h-2z"/><path class="cls-13" d="M190 474h2v2h-2z"/><path class="cls-12" d="M192 474h2v2h-2z"/><path class="cls-13" d="M194 474h2v2h-2z"/><path class="cls-12" d="M196 474h2v2h-2z"/><path class="cls-13" d="M198 474h2v2h-2z"/><path class="cls-12" d="M200 474h2v2h-2z"/><path class="cls-13" d="M202 474h2v2h-2z"/><path class="cls-12" d="M204 474h2v2h-2z"/><path class="cls-13" d="M206 474h2v2h-2z"/><path class="cls-11" d="M180 472h2v2h-2zM184 472h2v2h-2zM188 472h2v2h-2zM192 472h2v2h-2zM196 472h2v2h-2zM200 472h2v2h-2zM204 472h2v2h-2z"/><path class="cls-10" d="M206 472h2v2h-2zM202 472h2v2h-2zM198 472h2v2h-2zM194 472h2v2h-2zM190 472h2v2h-2zM186 472h2v2h-2zM182 472h2v2h-2zM178 472h2v2h-2z"/><path class="cls-11" d="M176 476h2v2h-2z"/><path class="cls-12" d="M176 478h2v2h-2z"/><path class="cls-13" d="M178 478h2v2h-2z"/><path class="cls-12" d="M180 478h2v2h-2z"/><path class="cls-13" d="M182 478h2v2h-2z"/><path class="cls-12" d="M184 478h2v2h-2z"/><path class="cls-13" d="M186 478h2v2h-2z"/><path class="cls-12" d="M188 478h2v2h-2z"/><path class="cls-13" d="M190 478h2v2h-2z"/><path class="cls-12" d="M192 478h2v2h-2z"/><path class="cls-13" d="M194 478h2v2h-2z"/><path class="cls-12" d="M196 478h2v2h-2z"/><path class="cls-13" d="M198 478h2v2h-2z"/><path class="cls-12" d="M200 478h2v2h-2z"/><path class="cls-13" d="M202 478h2v2h-2z"/><path class="cls-12" d="M204 478h2v2h-2z"/><path class="cls-13" d="M206 478h2v2h-2z"/><path class="cls-11" d="M180 476h2v2h-2zM184 476h2v2h-2zM188 476h2v2h-2zM192 476h2v2h-2zM196 476h2v2h-2zM200 476h2v2h-2zM204 476h2v2h-2z"/><path class="cls-10" d="M206 476h2v2h-2zM202 476h2v2h-2zM198 476h2v2h-2zM194 476h2v2h-2zM190 476h2v2h-2zM186 476h2v2h-2zM182 476h2v2h-2zM178 476h2v2h-2z"/><path class="cls-11" d="M176 480h2v2h-2z"/><path class="cls-12" d="M176 482h2v2h-2z"/><path class="cls-13" d="M178 482h2v2h-2z"/><path class="cls-12" d="M180 482h2v2h-2z"/><path class="cls-13" d="M182 482h2v2h-2z"/><path class="cls-12" d="M184 482h2v2h-2z"/><path class="cls-13" d="M186 482h2v2h-2z"/><path class="cls-12" d="M188 482h2v2h-2z"/><path class="cls-13" d="M190 482h2v2h-2z"/><path class="cls-12" d="M192 482h2v2h-2z"/><path class="cls-13" d="M194 482h2v2h-2z"/><path class="cls-12" d="M196 482h2v2h-2z"/><path class="cls-13" d="M198 482h2v2h-2z"/><path class="cls-12" d="M200 482h2v2h-2z"/><path class="cls-13" d="M202 482h2v2h-2z"/><path class="cls-12" d="M204 482h2v2h-2z"/><path class="cls-13" d="M206 482h2v2h-2z"/><path class="cls-11" d="M180 480h2v2h-2zM184 480h2v2h-2zM188 480h2v2h-2zM192 480h2v2h-2zM196 480h2v2h-2zM200 480h2v2h-2zM204 480h2v2h-2z"/><path class="cls-10" d="M206 480h2v2h-2zM202 480h2v2h-2zM198 480h2v2h-2zM194 480h2v2h-2zM190 480h2v2h-2zM186 480h2v2h-2zM182 480h2v2h-2zM178 480h2v2h-2z"/><path class="cls-11" d="M176 484h2v2h-2z"/><path class="cls-12" d="M176 486h2v2h-2z"/><path class="cls-13" d="M178 486h2v2h-2z"/><path class="cls-12" d="M180 486h2v2h-2z"/><path class="cls-13" d="M182 486h2v2h-2z"/><path class="cls-12" d="M184 486h2v2h-2z"/><path class="cls-13" d="M186 486h2v2h-2z"/><path class="cls-12" d="M188 486h2v2h-2z"/><path class="cls-13" d="M190 486h2v2h-2z"/><path class="cls-12" d="M192 486h2v2h-2z"/><path class="cls-13" d="M194 486h2v2h-2z"/><path class="cls-12" d="M196 486h2v2h-2z"/><path class="cls-13" d="M198 486h2v2h-2z"/><path class="cls-12" d="M200 486h2v2h-2z"/><path class="cls-13" d="M202 486h2v2h-2z"/><path class="cls-12" d="M204 486h2v2h-2z"/><path class="cls-13" d="M206 486h2v2h-2z"/><path class="cls-11" d="M180 484h2v2h-2zM184 484h2v2h-2zM188 484h2v2h-2zM192 484h2v2h-2zM196 484h2v2h-2zM200 484h2v2h-2zM204 484h2v2h-2z"/><path class="cls-10" d="M206 484h2v2h-2zM202 484h2v2h-2zM198 484h2v2h-2zM194 484h2v2h-2zM190 484h2v2h-2zM186 484h2v2h-2zM182 484h2v2h-2zM178 484h2v2h-2z"/><path class="cls-11" d="M176 348h2v2h-2z"/><path class="cls-12" d="M176 350h2v2h-2z"/><path class="cls-13" d="M178 350h2v2h-2z"/><path class="cls-12" d="M180 350h2v2h-2z"/><path class="cls-13" d="M182 350h2v2h-2z"/><path class="cls-12" d="M184 350h2v2h-2z"/><path class="cls-13" d="M186 350h2v2h-2z"/><path class="cls-12" d="M188 350h2v2h-2z"/><path class="cls-13" d="M190 350h2v2h-2z"/><path class="cls-12" d="M192 350h2v2h-2z"/><path class="cls-13" d="M194 350h2v2h-2z"/><path class="cls-12" d="M196 350h2v2h-2z"/><path class="cls-13" d="M198 350h2v2h-2z"/><path class="cls-12" d="M200 350h2v2h-2z"/><path class="cls-13" d="M202 350h2v2h-2z"/><path class="cls-12" d="M204 350h2v2h-2z"/><path class="cls-13" d="M206 350h2v2h-2z"/><path class="cls-11" d="M180 348h2v2h-2zM184 348h2v2h-2zM188 348h2v2h-2zM192 348h2v2h-2zM196 348h2v2h-2zM200 348h2v2h-2zM204 348h2v2h-2z"/><path class="cls-10" d="M206 348h2v2h-2zM202 348h2v2h-2zM198 348h2v2h-2zM194 348h2v2h-2zM190 348h2v2h-2zM186 348h2v2h-2zM182 348h2v2h-2zM178 348h2v2h-2z"/><path class="cls-11" d="M176 352h2v2h-2z"/><path class="cls-12" d="M176 354h2v2h-2z"/><path class="cls-13" d="M178 354h2v2h-2z"/><path class="cls-12" d="M180 354h2v2h-2z"/><path class="cls-13" d="M182 354h2v2h-2z"/><path class="cls-12" d="M184 354h2v2h-2z"/><path class="cls-13" d="M186 354h2v2h-2z"/><path class="cls-12" d="M188 354h2v2h-2z"/><path class="cls-13" d="M190 354h2v2h-2z"/><path class="cls-12" d="M192 354h2v2h-2z"/><path class="cls-13" d="M194 354h2v2h-2z"/><path class="cls-12" d="M196 354h2v2h-2z"/><path class="cls-13" d="M198 354h2v2h-2z"/><path class="cls-12" d="M200 354h2v2h-2z"/><path class="cls-13" d="M202 354h2v2h-2z"/><path class="cls-12" d="M204 354h2v2h-2z"/><path class="cls-13" d="M206 354h2v2h-2z"/><path class="cls-11" d="M180 352h2v2h-2zM184 352h2v2h-2zM188 352h2v2h-2zM192 352h2v2h-2zM196 352h2v2h-2zM200 352h2v2h-2zM204 352h2v2h-2z"/><path class="cls-10" d="M206 352h2v2h-2zM202 352h2v2h-2zM198 352h2v2h-2zM194 352h2v2h-2zM190 352h2v2h-2zM186 352h2v2h-2zM182 352h2v2h-2zM178 352h2v2h-2z"/><path class="cls-12" d="M184 358h2v2h-2z"/><path class="cls-13" d="M186 358h2v2h-2z"/><path class="cls-12" d="M188 358h2v2h-2z"/><path class="cls-13" d="M190 358h2v2h-2z"/><path class="cls-12" d="M192 358h2v2h-2z"/><path class="cls-13" d="M194 358h2v2h-2z"/><path class="cls-12" d="M196 358h2v2h-2z"/><path class="cls-13" d="M198 358h2v2h-2z"/><path class="cls-12" d="M200 358h2v2h-2z"/><path class="cls-13" d="M202 358h2v2h-2z"/><path class="cls-11" d="M184 356h2v2h-2zM188 356h2v2h-2zM192 356h2v2h-2zM196 356h2v2h-2zM200 356h2v2h-2z"/><path class="cls-10" d="M202 356h2v2h-2zM198 356h2v2h-2zM194 356h2v2h-2zM190 356h2v2h-2zM186 356h2v2h-2zM184 468h2v4h-2zM198 468h2v4h-2z"/></g><g id="char-1-3_copy" data-name="char-1-3 copy"><path id="shirt-9" data-name="shirt" class="cls-5" transform="rotate(-180 318 352)" d="M308 344h20v16h-20z"/><path id="shoe-19" data-name="shoe" class="cls-8" d="M336 364h8v8l-8 8h-8v-8l8-8z"/><path id="pants-4" data-name="pants" class="cls-3" transform="rotate(-180 318 366)" d="M308 360h20v12h-20z"/><path id="shoe-20" data-name="shoe" class="cls-8" d="M316 372v8h-8l-8-8v-8h8l8 8z"/><path id="hand-4" data-name="hand" class="cls-6" transform="rotate(-180 324 360)" d="M320 356h8v8h-8z"/></g><g id="char-1-3"><path id="shirt-10" data-name="shirt" class="cls-5" d="M56 344h20v16H56z"/><path id="shoe-21" data-name="shoe" class="cls-8" d="M48 364h-8v8l8 8h8v-8l-8-8z"/><path id="pants-5" data-name="pants" class="cls-3" d="M56 360h20v12H56z"/><path id="shoe-22" data-name="shoe" class="cls-8" d="M68 372v8h8l8-8v-8h-8l-8 8z"/><path id="hand-5" data-name="hand" class="cls-6" d="M56 356h8v8h-8z"/></g><g id="char-1-2_copy" data-name="char-1-2 copy"><path id="pants-6" data-name="pants" class="cls-3" transform="rotate(-180 318 238)" d="M308 232h20v12h-20z"/><path class="cls-2" transform="rotate(-180 322 248)" d="M312 244h20v8h-20z"/><path class="cls-5" d="M312 216v-4h12v4h4v16h-20v-16h4z"/><path id="hand-6" data-name="hand" class="cls-6" transform="rotate(-180 318 232)" d="M314 228h8v8h-8z"/></g><g id="char-1-2"><path id="pants-7" data-name="pants" class="cls-3" d="M56 232h20v12H56z"/><path class="cls-2" d="M52 244h20v8H52z"/><path class="cls-5" d="M72 216v-4H60v4h-4v16h20v-16h-4z"/><path id="hand-7" data-name="hand" class="cls-6" d="M62 228h8v8h-8z"/></g><g id="char-1-1"><path id="back-2" data-name="back" class="cls-1" d="M0 0h128v128H0z"/><path class="cls-6" d="M68 52V36H56v-8H32v48h8v8h20v4h12V52zm-20 8h-8v-8h8z"/><path id="shirt-11" data-name="shirt" class="cls-5" d="M56 88h20v16H56z"/><path id="shoe-23" data-name="shoe" class="cls-8" d="M48 108h-8v8l8 8h8v-8l-8-8z"/><path id="shoe-24" data-name="shoe" class="cls-8" d="M68 116v8h8l8-8v-8h-8l-8 8z"/><path id="pants-8" data-name="pants" class="cls-3" d="M56 104h20v12H56z"/><path id="hand-8" data-name="hand" class="cls-6" d="M68 100h8v8h-8z"/><path class="cls-14" d="M76 28v-8H30v26l20-15.39V38h12v14h-4l7 11-7 11h14v12l12-12V28h-8z"/><path id="eye" d="M40 176h8v8h-8z"/><path class="cls-6" d="M68 176v-16H56v-8H32v48h8v8h20v4h12v-36zm-20 8h-8v-8h8z"/><path class="cls-14" d="M76 152v-8H30v26l20-15.38V162h12v14h-4l7 11-7 11h14v12l12-12v-46h-8z"/><path id="eye-2" data-name="eye" d="M40 308h8v8h-8z"/><path class="cls-6" d="M68 308v-16H56v-8H32v48h8v8h20v4h12v-36zm-20 8h-8v-8h8z"/><path class="cls-14" d="M76 284v-8H30v26l20-15.38V294h12v14h-4l7 11-7 11h14v12l12-12v-46h-8z"/><path id="eye-3" data-name="eye" d="M40 432h8v8h-8z"/><path class="cls-6" d="M68 432v-16H56v-8H32v48h8v8h20v4h12v-36zm-20 8h-8v-8h8z"/><path class="cls-14" d="M76 408v-8H30v26l20-15.38V418h12v14h-4l7 11-7 11h14v12l12-12v-46h-8z"/><path id="eye-4" data-name="eye" transform="rotate(-180 340 436)" d="M336 432h8v8h-8z"/><path class="cls-6" d="M312 432v36h12v-4h20v-8h8v-48h-24v8h-12v16zm24 0h8v8h-8z"/><path class="cls-14" d="M308 408v-8h46v26l-20-15.38V418h-12v14h4l-7 11 7 11h-14v12l-12-12v-46h8z"/><path id="eye-5" data-name="eye" transform="rotate(-180 340 312)" d="M336 308h8v8h-8z"/><path class="cls-6" d="M312 308v36h12v-4h20v-8h8v-48h-24v8h-12v16zm24 0h8v8h-8z"/><path class="cls-14" d="M308 284v-8h46v26l-20-15.38V294h-12v14h4l-7 11 7 11h-14v12l-12-12v-46h8z"/><path id="eye-6" data-name="eye" transform="rotate(-180 340 180)" d="M336 176h8v8h-8z"/><path class="cls-6" d="M312 176v36h12v-4h20v-8h8v-48h-24v8h-12v16zm24 0h8v8h-8z"/><path class="cls-14" d="M308 152v-8h46v26l-20-15.38V162h-12v14h4l-7 11 7 11h-14v12l-12-12v-46h8z"/><path id="eye-7" data-name="eye" transform="rotate(-180 340 56)" d="M336 52h8v8h-8z"/><path class="cls-6" d="M312 52v36h12v-4h20v-8h8V28h-24v8h-12v16zm24 0h8v8h-8z"/><path class="cls-14" d="M308 28v-8h46v26l-20-15.39V38h-12v14h4l-7 11 7 11h-14v12l-12-12V28h8zM472 152v-8h-48v8h-8v56h4v4h56v-4h4v-56h-8zM472 408v-8h-48v8h-8v56h4v4h56v-4h4v-56h-8zM472 28v-8h-48v8h-8v56h4v4h56v-4h4V28h-8zM472 284v-8h-48v8h-8v56h4v4h56v-4h4v-56h-8z"/><g id="zan-head"><path class="cls-4" d="M216 52V28h-48v56h18v8h12v-8h18V52z"/><path id="eye-8" data-name="eye" class="cls-9" d="M168 52h8v8h-8z"/><path id="eye-9" data-name="eye" class="cls-9" d="M208 52h8v8h-8z"/><path d="M200 44v8h-16v-8h-24v24h24v-8h16v8h24V44zm-24 16h-8v-8h8zm40 0h-8v-8h8z"/><path class="cls-4" d="M152 52h8v16h-8zM224 52h8v16h-8z"/><path class="cls-14" d="M160 28h8v16h-8zM216 28v-8h-48v8l48 28 8 4V28h-8zM168 68h-8v16h4v4h22v-4h-18V68zM216 84h-18v4l22 2v-6h4V68h-8v16z"/><path id="mouth" class="cls-7" d="M194 74h-8v2h10v-2h-2z"/></g><g id="zan-head-2" data-name="zan-head"><path class="cls-4" d="M216 176v-24h-48v56h18v8h12v-8h18v-32z"/><path id="eye-10" data-name="eye" class="cls-9" d="M168 176h8v8h-8z"/><path id="eye-11" data-name="eye" class="cls-9" d="M208 176h8v8h-8z"/><path d="M200 168v8h-16v-8h-24v24h24v-8h16v8h24v-24zm-24 16h-8v-8h8zm40 0h-8v-8h8z"/><path class="cls-4" d="M152 176h8v16h-8zM224 176h8v16h-8z"/><path class="cls-14" d="M160 152h8v16h-8zM216 152v-8h-48v8l48 28 8 4v-32h-8zM168 192h-8v16h4v4h22v-4h-18v-16zM216 208h-18v4l22 2v-6h4v-16h-8v16z"/><path id="mouth-2" data-name="mouth" class="cls-7" d="M194 198h-8v2h10v-2h-2z"/></g><g id="zan-head-3" data-name="zan-head"><path class="cls-4" d="M216 308v-24h-48v56h18v8h12v-8h18v-32z"/><path id="eye-12" data-name="eye" class="cls-9" d="M168 308h8v8h-8z"/><path id="eye-13" data-name="eye" class="cls-9" d="M208 308h8v8h-8z"/><path d="M200 300v8h-16v-8h-24v24h24v-8h16v8h24v-24zm-24 16h-8v-8h8zm40 0h-8v-8h8z"/><path class="cls-4" d="M152 308h8v16h-8zM224 308h8v16h-8z"/><path class="cls-14" d="M160 284h8v16h-8zM216 284v-8h-48v8l48 28 8 4v-32h-8zM168 324h-8v16h4v4h22v-4h-18v-16zM216 340h-18v4l22 2v-6h4v-16h-8v16z"/><path id="mouth-3" data-name="mouth" class="cls-7" d="M194 330h-8v2h10v-2h-2z"/></g><g id="zan-head-4" data-name="zan-head"><path class="cls-4" d="M216 432v-24h-48v56h18v8h12v-8h18v-32z"/><path id="eye-14" data-name="eye" class="cls-9" d="M168 432h8v8h-8z"/><path id="eye-15" data-name="eye" class="cls-9" d="M208 432h8v8h-8z"/><path d="M200 424v8h-16v-8h-24v24h24v-8h16v8h24v-24zm-24 16h-8v-8h8zm40 0h-8v-8h8z"/><path class="cls-4" d="M152 432h8v16h-8zM224 432h8v16h-8z"/><path class="cls-14" d="M160 408h8v16h-8zM216 408v-8h-48v8l48 28 8 4v-32h-8zM168 448h-8v16h4v4h22v-4h-18v-16zM216 464h-18v4l22 2v-6h4v-16h-8v16z"/><path id="mouth-4" data-name="mouth" class="cls-7" d="M194 454h-8v2h10v-2h-2z"/></g><path id="left-glasses" d="M38 176v-8h-8v24h8v-8h26v-8H38z"/><path id="left-glasses-2" data-name="left-glasses" d="M38 308v-8h-8v24h8v-8h26v-8H38z"/><path id="left-glasses-3" data-name="left-glasses" d="M38 432v-8h-8v24h8v-8h26v-8H38z"/><path id="left-glasses-4" data-name="left-glasses" d="M38 52v-8h-8v24h8v-8h26v-8H38z"/><path id="right-glasses" d="M346 52v-8h8v24h-8v-8h-26v-8h26z"/><path id="right-glasses-2" data-name="right-glasses" d="M346 176v-8h8v24h-8v-8h-26v-8h26z"/><path id="right-glasses-3" data-name="right-glasses" d="M346 308v-8h8v24h-8v-8h-26v-8h26z"/><path id="right-glasses-4" data-name="right-glasses" d="M346 432v-8h8v24h-8v-8h-26v-8h26z"/><path class="cls-10" d="M184 88h2v4h-2zM198 88h2v4h-2z"/><path class="cls-11" d="M56 88h2v2h-2z"/><path class="cls-12" d="M56 90h2v2h-2z"/><path class="cls-13" d="M58 90h2v2h-2z"/><path class="cls-12" d="M60 90h2v2h-2z"/><path class="cls-13" d="M62 90h2v2h-2z"/><path class="cls-12" d="M64 90h2v2h-2z"/><path class="cls-13" d="M66 90h2v2h-2z"/><path class="cls-12" d="M68 90h2v2h-2z"/><path class="cls-13" d="M70 90h2v2h-2z"/><path class="cls-12" d="M72 90h2v2h-2z"/><path class="cls-13" d="M74 90h2v2h-2z"/><path class="cls-11" d="M60 88h2v2h-2zM64 88h2v2h-2zM68 88h2v2h-2zM72 88h2v2h-2z"/><path class="cls-10" d="M74 88h2v2h-2zM70 88h2v2h-2zM66 88h2v2h-2zM62 88h2v2h-2zM58 88h2v2h-2z"/><path class="cls-11" d="M56 216h2v2h-2z"/><path class="cls-12" d="M56 218h2v2h-2z"/><path class="cls-13" d="M58 218h2v2h-2z"/><path class="cls-12" d="M60 218h2v2h-2z"/><path class="cls-13" d="M62 218h2v2h-2z"/><path class="cls-12" d="M64 218h2v2h-2z"/><path class="cls-13" d="M66 218h2v2h-2z"/><path class="cls-12" d="M68 218h2v2h-2z"/><path class="cls-13" d="M70 218h2v2h-2z"/><path class="cls-12" d="M72 218h2v2h-2z"/><path class="cls-13" d="M74 218h2v2h-2z"/><path class="cls-11" d="M60 216h2v2h-2zM64 216h2v2h-2zM68 216h2v2h-2zM72 216h2v2h-2z"/><path class="cls-10" d="M74 216h2v2h-2zM70 216h2v2h-2zM66 216h2v2h-2zM62 216h2v2h-2zM58 216h2v2h-2z"/><path class="cls-11" d="M56 344h2v2h-2z"/><path class="cls-12" d="M56 346h2v2h-2z"/><path class="cls-13" d="M58 346h2v2h-2z"/><path class="cls-12" d="M60 346h2v2h-2z"/><path class="cls-13" d="M62 346h2v2h-2z"/><path class="cls-12" d="M64 346h2v2h-2z"/><path class="cls-13" d="M66 346h2v2h-2z"/><path class="cls-12" d="M68 346h2v2h-2z"/><path class="cls-13" d="M70 346h2v2h-2z"/><path class="cls-12" d="M72 346h2v2h-2z"/><path class="cls-13" d="M74 346h2v2h-2z"/><path class="cls-11" d="M60 344h2v2h-2zM64 344h2v2h-2zM68 344h2v2h-2zM72 344h2v2h-2z"/><path class="cls-10" d="M74 344h2v2h-2zM70 344h2v2h-2zM66 344h2v2h-2zM62 344h2v2h-2zM58 344h2v2h-2z"/><path class="cls-11" d="M56 472h2v2h-2z"/><path class="cls-12" d="M56 474h2v2h-2z"/><path class="cls-13" d="M58 474h2v2h-2z"/><path class="cls-12" d="M60 474h2v2h-2z"/><path class="cls-13" d="M62 474h2v2h-2z"/><path class="cls-12" d="M64 474h2v2h-2z"/><path class="cls-13" d="M66 474h2v2h-2z"/><path class="cls-12" d="M68 474h2v2h-2z"/><path class="cls-13" d="M70 474h2v2h-2z"/><path class="cls-12" d="M72 474h2v2h-2z"/><path class="cls-13" d="M74 474h2v2h-2z"/><path class="cls-11" d="M60 472h2v2h-2zM64 472h2v2h-2zM68 472h2v2h-2zM72 472h2v2h-2z"/><path class="cls-10" d="M74 472h2v2h-2zM70 472h2v2h-2zM66 472h2v2h-2zM62 472h2v2h-2zM58 472h2v2h-2z"/><path class="cls-12" d="M60 470h2v2h-2z"/><path class="cls-13" d="M62 470h2v2h-2z"/><path class="cls-12" d="M64 470h2v2h-2z"/><path class="cls-13" d="M66 470h2v2h-2z"/><path class="cls-12" d="M68 470h2v2h-2z"/><path class="cls-13" d="M70 470h2v2h-2z"/><path class="cls-11" d="M60 468h2v2h-2zM64 468h2v2h-2zM68 468h2v2h-2z"/><path class="cls-10" d="M70 468h2v2h-2zM66 468h2v2h-2zM62 468h2v2h-2z"/><path class="cls-11" d="M56 476h2v2h-2z"/><path class="cls-12" d="M56 478h2v2h-2z"/><path class="cls-13" d="M58 478h2v2h-2z"/><path class="cls-12" d="M60 478h2v2h-2z"/><path class="cls-13" d="M62 478h2v2h-2z"/><path class="cls-12" d="M64 478h2v2h-2z"/><path class="cls-13" d="M66 478h2v2h-2z"/><path class="cls-12" d="M68 478h2v2h-2z"/><path class="cls-13" d="M70 478h2v2h-2z"/><path class="cls-12" d="M72 478h2v2h-2z"/><path class="cls-13" d="M74 478h2v2h-2z"/><path class="cls-11" d="M60 476h2v2h-2zM64 476h2v2h-2zM68 476h2v2h-2zM72 476h2v2h-2z"/><path class="cls-10" d="M74 476h2v2h-2zM70 476h2v2h-2zM66 476h2v2h-2zM62 476h2v2h-2zM58 476h2v2h-2z"/><path class="cls-11" d="M56 480h2v2h-2z"/><path class="cls-12" d="M56 482h2v2h-2z"/><path class="cls-13" d="M58 482h2v2h-2z"/><path class="cls-12" d="M60 482h2v2h-2z"/><path class="cls-13" d="M62 482h2v2h-2z"/><path class="cls-12" d="M64 482h2v2h-2z"/><path class="cls-13" d="M66 482h2v2h-2z"/><path class="cls-12" d="M68 482h2v2h-2z"/><path class="cls-13" d="M70 482h2v2h-2z"/><path class="cls-12" d="M72 482h2v2h-2z"/><path class="cls-13" d="M74 482h2v2h-2z"/><path class="cls-11" d="M60 480h2v2h-2zM64 480h2v2h-2zM68 480h2v2h-2zM72 480h2v2h-2z"/><path class="cls-10" d="M74 480h2v2h-2zM70 480h2v2h-2zM66 480h2v2h-2zM62 480h2v2h-2zM58 480h2v2h-2z"/><path class="cls-11" d="M56 484h2v2h-2z"/><path class="cls-12" d="M56 486h2v2h-2z"/><path class="cls-13" d="M58 486h2v2h-2z"/><path class="cls-12" d="M60 486h2v2h-2z"/><path class="cls-13" d="M70 486h2v2h-2z"/><path class="cls-12" d="M72 486h2v2h-2z"/><path class="cls-13" d="M74 486h2v2h-2z"/><path class="cls-11" d="M60 484h2v2h-2zM72 484h2v2h-2z"/><path class="cls-10" d="M74 484h2v2h-2zM70 484h2v2h-2zM58 484h2v2h-2z"/><path class="cls-11" d="M56 348h2v2h-2z"/><path class="cls-12" d="M56 350h2v2h-2z"/><path class="cls-13" d="M58 350h2v2h-2z"/><path class="cls-12" d="M60 350h2v2h-2z"/><path class="cls-13" d="M62 350h2v2h-2z"/><path class="cls-12" d="M64 350h2v2h-2z"/><path class="cls-13" d="M66 350h2v2h-2z"/><path class="cls-12" d="M68 350h2v2h-2z"/><path class="cls-13" d="M70 350h2v2h-2z"/><path class="cls-12" d="M72 350h2v2h-2z"/><path class="cls-13" d="M74 350h2v2h-2z"/><path class="cls-11" d="M60 348h2v2h-2zM64 348h2v2h-2zM68 348h2v2h-2zM72 348h2v2h-2z"/><path class="cls-10" d="M74 348h2v2h-2zM70 348h2v2h-2zM66 348h2v2h-2zM62 348h2v2h-2zM58 348h2v2h-2z"/><path class="cls-11" d="M56 352h2v2h-2z"/><path class="cls-12" d="M56 354h2v2h-2z"/><path class="cls-13" d="M58 354h2v2h-2z"/><path class="cls-12" d="M60 354h2v2h-2z"/><path class="cls-13" d="M62 354h2v2h-2z"/><path class="cls-12" d="M64 354h2v2h-2z"/><path class="cls-13" d="M66 354h2v2h-2z"/><path class="cls-12" d="M68 354h2v2h-2z"/><path class="cls-13" d="M70 354h2v2h-2z"/><path class="cls-12" d="M72 354h2v2h-2z"/><path class="cls-13" d="M74 354h2v2h-2z"/><path class="cls-11" d="M60 352h2v2h-2zM64 352h2v2h-2zM68 352h2v2h-2zM72 352h2v2h-2z"/><path class="cls-10" d="M74 352h2v2h-2zM70 352h2v2h-2zM66 352h2v2h-2zM62 352h2v2h-2zM58 352h2v2h-2z"/><path class="cls-12" d="M64 358h2v2h-2z"/><path class="cls-13" d="M66 358h2v2h-2z"/><path class="cls-12" d="M68 358h2v2h-2z"/><path class="cls-13" d="M70 358h2v2h-2z"/><path class="cls-12" d="M72 358h2v2h-2z"/><path class="cls-13" d="M74 358h2v2h-2z"/><path class="cls-11" d="M64 356h2v2h-2zM68 356h2v2h-2zM72 356h2v2h-2z"/><path class="cls-10" d="M74 356h2v2h-2zM70 356h2v2h-2zM66 356h2v2h-2z"/><path class="cls-12" d="M60 214h2v2h-2z"/><path class="cls-13" d="M62 214h2v2h-2z"/><path class="cls-12" d="M64 214h2v2h-2z"/><path class="cls-13" d="M66 214h2v2h-2z"/><path class="cls-12" d="M68 214h2v2h-2z"/><path class="cls-13" d="M70 214h2v2h-2z"/><path class="cls-11" d="M60 212h2v2h-2zM64 212h2v2h-2zM68 212h2v2h-2z"/><path class="cls-10" d="M70 212h2v2h-2zM66 212h2v2h-2zM62 212h2v2h-2z"/><path class="cls-11" d="M56 220h2v2h-2z"/><path class="cls-12" d="M56 222h2v2h-2z"/><path class="cls-13" d="M58 222h2v2h-2z"/><path class="cls-12" d="M60 222h2v2h-2z"/><path class="cls-13" d="M62 222h2v2h-2z"/><path class="cls-12" d="M64 222h2v2h-2z"/><path class="cls-13" d="M66 222h2v2h-2z"/><path class="cls-12" d="M68 222h2v2h-2z"/><path class="cls-13" d="M70 222h2v2h-2z"/><path class="cls-12" d="M72 222h2v2h-2z"/><path class="cls-13" d="M74 222h2v2h-2z"/><path class="cls-11" d="M60 220h2v2h-2zM64 220h2v2h-2zM68 220h2v2h-2zM72 220h2v2h-2z"/><path class="cls-10" d="M74 220h2v2h-2zM70 220h2v2h-2zM66 220h2v2h-2zM62 220h2v2h-2zM58 220h2v2h-2z"/><path class="cls-11" d="M56 224h2v2h-2z"/><path class="cls-12" d="M56 226h2v2h-2z"/><path class="cls-13" d="M58 226h2v2h-2z"/><path class="cls-12" d="M60 226h2v2h-2z"/><path class="cls-13" d="M62 226h2v2h-2z"/><path class="cls-12" d="M64 226h2v2h-2z"/><path class="cls-13" d="M66 226h2v2h-2z"/><path class="cls-12" d="M68 226h2v2h-2z"/><path class="cls-13" d="M70 226h2v2h-2z"/><path class="cls-12" d="M72 226h2v2h-2z"/><path class="cls-13" d="M74 226h2v2h-2z"/><path class="cls-11" d="M60 224h2v2h-2zM64 224h2v2h-2zM68 224h2v2h-2zM72 224h2v2h-2z"/><path class="cls-10" d="M74 224h2v2h-2zM70 224h2v2h-2zM66 224h2v2h-2zM62 224h2v2h-2zM58 224h2v2h-2z"/><path class="cls-11" d="M56 228h2v2h-2z"/><path class="cls-12" d="M56 230h2v2h-2z"/><path class="cls-13" d="M58 230h2v2h-2z"/><path class="cls-12" d="M60 230h2v2h-2z"/><path class="cls-13" d="M70 230h2v2h-2z"/><path class="cls-12" d="M72 230h2v2h-2z"/><path class="cls-13" d="M74 230h2v2h-2z"/><path class="cls-11" d="M60 228h2v2h-2zM72 228h2v2h-2z"/><path class="cls-10" d="M74 228h2v2h-2zM70 228h2v2h-2zM58 228h2v2h-2z"/><path class="cls-11" d="M56 92h2v2h-2z"/><path class="cls-12" d="M56 94h2v2h-2z"/><path class="cls-13" d="M58 94h2v2h-2z"/><path class="cls-12" d="M60 94h2v2h-2z"/><path class="cls-13" d="M62 94h2v2h-2z"/><path class="cls-12" d="M64 94h2v2h-2z"/><path class="cls-13" d="M66 94h2v2h-2z"/><path class="cls-12" d="M68 94h2v2h-2z"/><path class="cls-13" d="M70 94h2v2h-2z"/><path class="cls-12" d="M72 94h2v2h-2z"/><path class="cls-13" d="M74 94h2v2h-2z"/><path class="cls-11" d="M60 92h2v2h-2zM64 92h2v2h-2zM68 92h2v2h-2zM72 92h2v2h-2z"/><path class="cls-10" d="M74 92h2v2h-2zM70 92h2v2h-2zM66 92h2v2h-2zM62 92h2v2h-2zM58 92h2v2h-2z"/><path class="cls-11" d="M56 96h2v2h-2z"/><path class="cls-12" d="M56 98h2v2h-2z"/><path class="cls-13" d="M58 98h2v2h-2z"/><path class="cls-12" d="M60 98h2v2h-2z"/><path class="cls-13" d="M62 98h2v2h-2z"/><path class="cls-12" d="M64 98h2v2h-2z"/><path class="cls-13" d="M66 98h2v2h-2z"/><path class="cls-12" d="M68 98h2v2h-2z"/><path class="cls-13" d="M70 98h2v2h-2z"/><path class="cls-12" d="M72 98h2v2h-2z"/><path class="cls-13" d="M74 98h2v2h-2z"/><path class="cls-11" d="M60 96h2v2h-2zM64 96h2v2h-2zM68 96h2v2h-2zM72 96h2v2h-2z"/><path class="cls-10" d="M74 96h2v2h-2zM70 96h2v2h-2zM66 96h2v2h-2zM62 96h2v2h-2zM58 96h2v2h-2z"/><path class="cls-11" d="M58 90h2v2h-2z"/><path class="cls-12" d="M58 92h2v2h-2z"/><path class="cls-13" d="M60 92h2v2h-2z"/><path class="cls-12" d="M62 92h2v2h-2z"/><path class="cls-13" d="M64 92h2v2h-2z"/><path class="cls-12" d="M66 92h2v2h-2z"/><path class="cls-13" d="M68 92h2v2h-2z"/><path class="cls-11" d="M62 90h2v2h-2zM66 90h2v2h-2z"/><path class="cls-10" d="M68 90h2v2h-2zM64 90h2v2h-2zM60 90h2v2h-2z"/><path class="cls-11" d="M308 216h2v2h-2z"/><path class="cls-12" d="M308 218h2v2h-2z"/><path class="cls-13" d="M310 218h2v2h-2z"/><path class="cls-12" d="M312 218h2v2h-2z"/><path class="cls-13" d="M314 218h2v2h-2z"/><path class="cls-12" d="M316 218h2v2h-2z"/><path class="cls-13" d="M318 218h2v2h-2z"/><path class="cls-12" d="M320 218h2v2h-2z"/><path class="cls-13" d="M322 218h2v2h-2z"/><path class="cls-12" d="M324 218h2v2h-2z"/><path class="cls-13" d="M326 218h2v2h-2z"/><path class="cls-11" d="M312 216h2v2h-2zM316 216h2v2h-2zM320 216h2v2h-2zM324 216h2v2h-2z"/><path class="cls-10" d="M326 216h2v2h-2zM322 216h2v2h-2zM318 216h2v2h-2zM314 216h2v2h-2zM310 216h2v2h-2z"/><path class="cls-11" d="M58 86h2v2h-2z"/><path class="cls-12" d="M58 88h2v2h-2z"/><path class="cls-13" d="M60 88h2v2h-2z"/><path class="cls-12" d="M62 88h2v2h-2z"/><path class="cls-13" d="M64 88h2v2h-2z"/><path class="cls-12" d="M66 88h2v2h-2z"/><path class="cls-13" d="M68 88h2v2h-2z"/><path class="cls-11" d="M62 86h2v2h-2zM66 86h2v2h-2z"/><path class="cls-10" d="M68 86h2v2h-2zM64 86h2v2h-2zM60 86h2v2h-2z"/><path class="cls-12" d="M312 214h2v2h-2z"/><path class="cls-13" d="M314 214h2v2h-2z"/><path class="cls-12" d="M316 214h2v2h-2z"/><path class="cls-13" d="M318 214h2v2h-2z"/><path class="cls-12" d="M320 214h2v2h-2z"/><path class="cls-13" d="M322 214h2v2h-2z"/><path class="cls-11" d="M312 212h2v2h-2zM316 212h2v2h-2zM320 212h2v2h-2z"/><path class="cls-10" d="M322 212h2v2h-2zM318 212h2v2h-2zM314 212h2v2h-2z"/><path class="cls-11" d="M58 94h2v2h-2z"/><path class="cls-12" d="M58 96h2v2h-2z"/><path class="cls-13" d="M60 96h2v2h-2z"/><path class="cls-12" d="M62 96h2v2h-2z"/><path class="cls-13" d="M64 96h2v2h-2z"/><path class="cls-12" d="M66 96h2v2h-2z"/><path class="cls-13" d="M68 96h2v2h-2z"/><path class="cls-11" d="M62 94h2v2h-2zM66 94h2v2h-2z"/><path class="cls-10" d="M68 94h2v2h-2zM64 94h2v2h-2zM60 94h2v2h-2z"/><path class="cls-11" d="M308 220h2v2h-2z"/><path class="cls-12" d="M308 222h2v2h-2z"/><path class="cls-13" d="M310 222h2v2h-2z"/><path class="cls-12" d="M312 222h2v2h-2z"/><path class="cls-13" d="M314 222h2v2h-2z"/><path class="cls-12" d="M316 222h2v2h-2z"/><path class="cls-13" d="M318 222h2v2h-2z"/><path class="cls-12" d="M320 222h2v2h-2z"/><path class="cls-13" d="M322 222h2v2h-2z"/><path class="cls-12" d="M324 222h2v2h-2z"/><path class="cls-13" d="M326 222h2v2h-2z"/><path class="cls-11" d="M312 220h2v2h-2zM316 220h2v2h-2zM320 220h2v2h-2zM324 220h2v2h-2z"/><path class="cls-10" d="M326 220h2v2h-2zM322 220h2v2h-2zM318 220h2v2h-2zM314 220h2v2h-2zM310 220h2v2h-2z"/><path class="cls-11" d="M58 98h2v2h-2z"/><path class="cls-12" d="M58 100h2v2h-2z"/><path class="cls-13" d="M60 100h2v2h-2z"/><path class="cls-12" d="M62 100h2v2h-2z"/><path class="cls-13" d="M64 100h2v2h-2z"/><path class="cls-12" d="M66 100h2v2h-2z"/><path class="cls-11" d="M62 98h2v2h-2zM66 98h2v2h-2z"/><path class="cls-10" d="M68 98h2v2h-2zM64 98h2v2h-2zM60 98h2v2h-2z"/><path class="cls-11" d="M308 224h2v2h-2z"/><path class="cls-12" d="M308 226h2v2h-2z"/><path class="cls-13" d="M310 226h2v2h-2z"/><path class="cls-12" d="M312 226h2v2h-2z"/><path class="cls-13" d="M314 226h2v2h-2z"/><path class="cls-12" d="M316 226h2v2h-2z"/><path class="cls-13" d="M318 226h2v2h-2z"/><path class="cls-12" d="M320 226h2v2h-2z"/><path class="cls-13" d="M322 226h2v2h-2z"/><path class="cls-12" d="M324 226h2v2h-2z"/><path class="cls-13" d="M326 226h2v2h-2z"/><path class="cls-11" d="M312 224h2v2h-2zM316 224h2v2h-2zM320 224h2v2h-2zM324 224h2v2h-2z"/><path class="cls-10" d="M326 224h2v2h-2zM322 224h2v2h-2zM318 224h2v2h-2zM314 224h2v2h-2zM310 224h2v2h-2z"/><path class="cls-11" d="M58 218h2v2h-2z"/><path class="cls-12" d="M58 220h2v2h-2z"/><path class="cls-13" d="M60 220h2v2h-2z"/><path class="cls-12" d="M62 220h2v2h-2z"/><path class="cls-13" d="M64 220h2v2h-2z"/><path class="cls-12" d="M66 220h2v2h-2z"/><path class="cls-11" d="M62 218h2v2h-2zM66 218h2v2h-2z"/><path class="cls-10" d="M68 218h2v2h-2zM64 218h2v2h-2zM60 218h2v2h-2z"/><path class="cls-11" d="M308 344h2v2h-2z"/><path class="cls-12" d="M308 346h2v2h-2z"/><path class="cls-13" d="M310 346h2v2h-2z"/><path class="cls-12" d="M312 346h2v2h-2z"/><path class="cls-13" d="M314 346h2v2h-2z"/><path class="cls-12" d="M316 346h2v2h-2z"/><path class="cls-13" d="M318 346h2v2h-2z"/><path class="cls-12" d="M320 346h2v2h-2z"/><path class="cls-13" d="M322 346h2v2h-2z"/><path class="cls-12" d="M324 346h2v2h-2z"/><path class="cls-13" d="M326 346h2v2h-2z"/><path class="cls-11" d="M312 344h2v2h-2zM316 344h2v2h-2zM320 344h2v2h-2zM324 344h2v2h-2z"/><path class="cls-10" d="M326 344h2v2h-2zM322 344h2v2h-2zM318 344h2v2h-2zM314 344h2v2h-2zM310 344h2v2h-2z"/><path class="cls-11" d="M58 346h2v2h-2z"/><path class="cls-12" d="M58 348h2v2h-2z"/><path class="cls-13" d="M60 348h2v2h-2z"/><path class="cls-12" d="M62 348h2v2h-2z"/><path class="cls-13" d="M64 348h2v2h-2z"/><path class="cls-12" d="M66 348h2v2h-2z"/><path class="cls-11" d="M62 346h2v2h-2zM66 346h2v2h-2z"/><path class="cls-10" d="M68 346h2v2h-2zM64 346h2v2h-2zM60 346h2v2h-2z"/><path class="cls-11" d="M308 472h2v2h-2z"/><path class="cls-12" d="M308 474h2v2h-2z"/><path class="cls-13" d="M310 474h2v2h-2z"/><path class="cls-12" d="M312 474h2v2h-2z"/><path class="cls-13" d="M314 474h2v2h-2z"/><path class="cls-12" d="M316 474h2v2h-2z"/><path class="cls-13" d="M318 474h2v2h-2z"/><path class="cls-12" d="M320 474h2v2h-2z"/><path class="cls-13" d="M322 474h2v2h-2z"/><path class="cls-12" d="M324 474h2v2h-2z"/><path class="cls-13" d="M326 474h2v2h-2z"/><path class="cls-11" d="M312 472h2v2h-2zM316 472h2v2h-2zM320 472h2v2h-2zM324 472h2v2h-2z"/><path class="cls-10" d="M326 472h2v2h-2zM322 472h2v2h-2zM318 472h2v2h-2zM314 472h2v2h-2zM310 472h2v2h-2z"/><path class="cls-11" d="M58 342h2v2h-2z"/><path class="cls-12" d="M58 344h2v2h-2z"/><path class="cls-13" d="M60 344h2v2h-2z"/><path class="cls-12" d="M62 344h2v2h-2z"/><path class="cls-13" d="M64 344h2v2h-2z"/><path class="cls-12" d="M66 344h2v2h-2z"/><path class="cls-11" d="M62 342h2v2h-2zM66 342h2v2h-2z"/><path class="cls-10" d="M68 342h2v2h-2zM64 342h2v2h-2zM60 342h2v2h-2z"/><path class="cls-12" d="M312 470h2v2h-2z"/><path class="cls-13" d="M314 470h2v2h-2z"/><path class="cls-12" d="M316 470h2v2h-2z"/><path class="cls-13" d="M318 470h2v2h-2z"/><path class="cls-12" d="M320 470h2v2h-2z"/><path class="cls-13" d="M322 470h2v2h-2z"/><path class="cls-11" d="M312 468h2v2h-2zM316 468h2v2h-2zM320 468h2v2h-2z"/><path class="cls-10" d="M322 468h2v2h-2zM318 468h2v2h-2zM314 468h2v2h-2z"/><path class="cls-11" d="M58 350h2v2h-2z"/><path class="cls-12" d="M58 352h2v2h-2z"/><path class="cls-13" d="M60 352h2v2h-2z"/><path class="cls-12" d="M62 352h2v2h-2z"/><path class="cls-13" d="M64 352h2v2h-2z"/><path class="cls-12" d="M66 352h2v2h-2z"/><path class="cls-11" d="M62 350h2v2h-2zM66 350h2v2h-2z"/><path class="cls-10" d="M68 350h2v2h-2zM64 350h2v2h-2zM60 350h2v2h-2z"/><path class="cls-11" d="M308 476h2v2h-2z"/><path class="cls-12" d="M308 478h2v2h-2z"/><path class="cls-13" d="M310 478h2v2h-2z"/><path class="cls-12" d="M312 478h2v2h-2z"/><path class="cls-13" d="M314 478h2v2h-2z"/><path class="cls-12" d="M316 478h2v2h-2z"/><path class="cls-13" d="M318 478h2v2h-2z"/><path class="cls-12" d="M320 478h2v2h-2z"/><path class="cls-13" d="M322 478h2v2h-2z"/><path class="cls-12" d="M324 478h2v2h-2z"/><path class="cls-13" d="M326 478h2v2h-2z"/><path class="cls-11" d="M312 476h2v2h-2zM316 476h2v2h-2zM320 476h2v2h-2zM324 476h2v2h-2z"/><path class="cls-10" d="M326 476h2v2h-2zM322 476h2v2h-2zM318 476h2v2h-2zM314 476h2v2h-2zM310 476h2v2h-2z"/><path class="cls-11" d="M58 354h2v2h-2z"/><path class="cls-13" d="M64 356h2v2h-2z"/><path class="cls-12" d="M66 356h2v2h-2z"/><path class="cls-11" d="M62 354h2v2h-2zM66 354h2v2h-2z"/><path class="cls-10" d="M68 354h2v2h-2zM64 354h2v2h-2zM60 354h2v2h-2z"/><path class="cls-11" d="M308 480h2v2h-2z"/><path class="cls-12" d="M308 482h2v2h-2z"/><path class="cls-13" d="M310 482h2v2h-2z"/><path class="cls-12" d="M312 482h2v2h-2z"/><path class="cls-13" d="M314 482h2v2h-2z"/><path class="cls-12" d="M316 482h2v2h-2z"/><path class="cls-13" d="M318 482h2v2h-2z"/><path class="cls-12" d="M320 482h2v2h-2z"/><path class="cls-13" d="M322 482h2v2h-2z"/><path class="cls-12" d="M324 482h2v2h-2z"/><path class="cls-13" d="M326 482h2v2h-2z"/><path class="cls-11" d="M312 480h2v2h-2zM316 480h2v2h-2zM320 480h2v2h-2zM324 480h2v2h-2z"/><path class="cls-10" d="M326 480h2v2h-2zM322 480h2v2h-2zM318 480h2v2h-2zM314 480h2v2h-2zM310 480h2v2h-2z"/><path class="cls-11" d="M60 360h-2M66 358h2v2h-2z"/><path class="cls-10" d="M68 358h2v2h-2zM64 358h2v2h-2z"/><path class="cls-11" d="M308 484h2v2h-2z"/><path class="cls-12" d="M308 486h2v2h-2z"/><path class="cls-13" d="M310 486h2v2h-2z"/><path class="cls-12" d="M312 486h2v2h-2z"/><path class="cls-13" d="M322 486h2v2h-2z"/><path class="cls-12" d="M324 486h2v2h-2z"/><path class="cls-13" d="M326 486h2v2h-2z"/><path class="cls-11" d="M312 484h2v2h-2zM324 484h2v2h-2z"/><path class="cls-10" d="M326 484h2v2h-2zM322 484h2v2h-2zM310 484h2v2h-2z"/><path class="cls-11" d="M58 222h2v2h-2z"/><path class="cls-12" d="M58 224h2v2h-2z"/><path class="cls-13" d="M60 224h2v2h-2z"/><path class="cls-12" d="M62 224h2v2h-2z"/><path class="cls-13" d="M64 224h2v2h-2z"/><path class="cls-12" d="M66 224h2v2h-2z"/><path class="cls-11" d="M62 222h2v2h-2zM66 222h2v2h-2z"/><path class="cls-10" d="M68 222h2v2h-2zM64 222h2v2h-2zM60 222h2v2h-2z"/><path class="cls-11" d="M308 348h2v2h-2z"/><path class="cls-12" d="M308 350h2v2h-2z"/><path class="cls-13" d="M310 350h2v2h-2z"/><path class="cls-12" d="M312 350h2v2h-2z"/><path class="cls-13" d="M314 350h2v2h-2z"/><path class="cls-12" d="M316 350h2v2h-2z"/><path class="cls-13" d="M318 350h2v2h-2z"/><path class="cls-12" d="M320 350h2v2h-2z"/><path class="cls-13" d="M322 350h2v2h-2z"/><path class="cls-12" d="M324 350h2v2h-2z"/><path class="cls-13" d="M326 350h2v2h-2z"/><path class="cls-11" d="M312 348h2v2h-2zM316 348h2v2h-2zM320 348h2v2h-2zM324 348h2v2h-2z"/><path class="cls-10" d="M326 348h2v2h-2zM322 348h2v2h-2zM318 348h2v2h-2zM314 348h2v2h-2zM310 348h2v2h-2z"/><path class="cls-11" d="M58 226h2v2h-2z"/><path class="cls-12" d="M58 228h2v2h-2z"/><path class="cls-13" d="M60 228h2v2h-2z"/><path class="cls-11" d="M62 226h2v2h-2zM66 226h2v2h-2z"/><path class="cls-10" d="M68 226h2v2h-2zM64 226h2v2h-2zM60 226h2v2h-2z"/><path class="cls-11" d="M308 352h2v2h-2z"/><path class="cls-12" d="M308 354h2v2h-2z"/><path class="cls-13" d="M310 354h2v2h-2z"/><path class="cls-12" d="M312 354h2v2h-2z"/><path class="cls-13" d="M314 354h2v2h-2z"/><path class="cls-12" d="M316 354h2v2h-2z"/><path class="cls-13" d="M318 354h2v2h-2z"/><path class="cls-12" d="M320 354h2v2h-2z"/><path class="cls-13" d="M322 354h2v2h-2z"/><path class="cls-12" d="M324 354h2v2h-2z"/><path class="cls-13" d="M326 354h2v2h-2z"/><path class="cls-11" d="M312 352h2v2h-2zM316 352h2v2h-2zM320 352h2v2h-2zM324 352h2v2h-2z"/><path class="cls-10" d="M326 352h2v2h-2zM322 352h2v2h-2zM318 352h2v2h-2zM314 352h2v2h-2zM310 352h2v2h-2z"/><path class="cls-11" d="M58 230h2v2h-2z"/><path class="cls-10" d="M60 230h2v2h-2z"/><path class="cls-11" d="M308 356h2v2h-2z"/><path class="cls-12" d="M308 358h2v2h-2z"/><path class="cls-13" d="M310 358h2v2h-2z"/><path class="cls-12" d="M312 358h2v2h-2z"/><path class="cls-13" d="M314 358h2v2h-2z"/><path class="cls-12" d="M316 358h2v2h-2z"/><path class="cls-13" d="M318 358h2v2h-2z"/><path class="cls-11" d="M312 356h2v2h-2zM316 356h2v2h-2z"/><path class="cls-10" d="M318 356h2v2h-2zM314 356h2v2h-2zM310 356h2v2h-2z"/><path class="cls-11" d="M58 102h2v2h-2z"/><path class="cls-12" d="M58 104h2v2h-2z"/><path class="cls-13" d="M60 104h2v2h-2z"/><path class="cls-12" d="M62 104h2v2h-2z"/><path class="cls-13" d="M64 104h2v2h-2z"/><path class="cls-12" d="M66 104h2v2h-2z"/><path class="cls-11" d="M62 102h2v2h-2zM66 102h2v2h-2z"/><path class="cls-10" d="M64 102h2v2h-2zM60 102h2v2h-2z"/><path class="cls-11" d="M308 228h2v2h-2z"/><path class="cls-12" d="M308 230h2v2h-2z"/><path class="cls-13" d="M310 230h2v2h-2z"/><path class="cls-12" d="M312 230h2v2h-2z"/><path class="cls-13" d="M322 230h2v2h-2z"/><path class="cls-12" d="M324 230h2v2h-2z"/><path class="cls-13" d="M326 230h2v2h-2z"/><path class="cls-11" d="M312 228h2v2h-2zM324 228h2v2h-2z"/><path class="cls-10" d="M326 228h2v2h-2zM322 228h2v2h-2zM310 228h2v2h-2z"/></g></g></svg>