<?xml version="1.0" encoding="utf-8"?>
<!-- Generator: Adobe Illustrator 23.1.0, SVG Export Plug-In . SVG Version: 6.00 Build 0)  -->
<svg version="1.1" id="Layer_1" xmlns="http://www.w3.org/2000/svg" xmlns:xlink="http://www.w3.org/1999/xlink" x="0px" y="0px"
	 viewBox="0 0 512 512" style="enable-background:new 0 0 512 512;" xml:space="preserve">
<style type="text/css">
	.st0{fill:#FFFFFF;}
</style>
<path class="st0" d="M213.3,0H42.7C19.2,0,0,19.2,0,42.7v170.7C0,236.8,19.2,256,42.7,256h170.7c23.5,0,42.7-19.2,42.7-42.7V42.7
	C256,19.2,236.8,0,213.3,0z M85.3,192c-11.7,0-21.3-9.6-21.3-21.3s9.6-21.3,21.3-21.3s21.3,9.6,21.3,21.3S97.1,192,85.3,192z
	 M85.3,106.7c-11.7,0-21.3-9.6-21.3-21.3S73.6,64,85.3,64s21.3,9.6,21.3,21.3S97.1,106.7,85.3,106.7z M170.7,192
	c-11.7,0-21.3-9.6-21.3-21.3s9.6-21.3,21.3-21.3s21.3,9.6,21.3,21.3S182.4,192,170.7,192z M170.7,106.7c-11.7,0-21.3-9.6-21.3-21.3
	S158.9,64,170.7,64S192,73.6,192,85.3S182.4,106.7,170.7,106.7z"/>
<path class="st0" d="M497.6,316.5L376.8,195.7c-16.8-16.5-43.7-16.5-60.3,0L195.7,316.5c-16.5,16.8-16.5,43.7,0,60.3l120.8,120.8
	c16.8,16.5,43.7,16.5,60.3,0l120.8-120.8C514.1,360.3,514.1,333.1,497.6,316.5L497.6,316.5z M301.3,361.9c-8.3,8.3-21.9,8.3-30.1,0
	c-8.3-8.3-8.3-21.9,0-30.1c8.3-8.3,21.9-8.3,30.1,0C309.9,340,309.9,353.3,301.3,361.9z M361.9,361.9c-8.3,8.3-21.9,8.3-30.1,0
	c-8.3-8.3-8.3-21.9,0-30.1c8.3-8.3,21.9-8.3,30.1,0C370.1,340,370.1,353.3,361.9,361.9z M422.1,361.9c-8.3,8.3-21.9,8.3-30.1,0
	c-8.3-8.3-8.3-21.9,0-30.1c8.3-8.3,21.9-8.3,30.1,0S430.4,353.3,422.1,361.9z"/>
</svg>
